<svg id="Group_49712" data-name="Group 49712" xmlns="http://www.w3.org/2000/svg" width="20.67" height="20.67" viewBox="0 0 20.67 20.67">
  <path id="Path_45584" data-name="Path 45584" d="M23.288,10H11.476A1.476,1.476,0,0,0,10,11.476V23.288a1.476,1.476,0,0,0,1.476,1.476H23.288a1.476,1.476,0,0,0,1.476-1.476V11.476A1.476,1.476,0,0,0,23.288,10ZM11.476,23.288V11.476H23.288V23.288Z" transform="translate(-4.094 -4.094)"/>
  <path id="Path_45585" data-name="Path 45585" d="M5.691,15.288H3.476V3.476H15.288V5.691a.738.738,0,1,0,1.476,0V3.476A1.476,1.476,0,0,0,15.288,2H3.476A1.476,1.476,0,0,0,2,3.476V15.288a1.476,1.476,0,0,0,1.476,1.476H5.691a.738.738,0,1,0,0-1.476Z" transform="translate(-2 -2)"/>
  <rect id="Rectangle_19433" data-name="Rectangle 19433" width="7" height="3" transform="translate(10.335 1.485)" fill="#fff"/>
  <rect id="Rectangle_19434" data-name="Rectangle 19434" width="7" height="3" transform="translate(4.485 11.485) rotate(90)" fill="#fff"/>
</svg>
