<svg xmlns="http://www.w3.org/2000/svg" width="18.271" height="18.278" viewBox="0 0 18.271 18.278">
  <g id="Group_49712" data-name="Group 49712" transform="translate(-1 -1)">
    <rect id="Rectangle_19451" data-name="Rectangle 19451" width="18.271" height="13.399" rx="3" transform="translate(1 5.872)" fill="#ffc661"/>
    <path id="Path_45643" data-name="Path 45643" d="M18.436,21.567H3.82A1.827,1.827,0,0,1,1.993,19.74V10a1.772,1.772,0,0,1,.183-.786A1.827,1.827,0,0,0,1,10.909v9.744a1.827,1.827,0,0,0,1.827,1.827H17.444a1.827,1.827,0,0,0,1.638-1.041A1.766,1.766,0,0,1,18.436,21.567Z" transform="translate(0 -3.21)" fill="#e49f4e"/>
    <path id="Path_45644" data-name="Path 45644" d="M17.557,9H2.94a1.827,1.827,0,0,0-1.65,1.06l8.49,8.49a.664.664,0,0,0,.938,0l8.49-8.49A1.827,1.827,0,0,0,17.557,9Z" transform="translate(-0.113 -3.128)" fill="#96d7ff"/>
    <path id="Path_45645" data-name="Path 45645" d="M19.229,25.09l-5.914-5.9a.652.652,0,0,0-.932,0L10.21,21.362,8.035,19.194a.652.652,0,0,0-.932,0L1.19,25.09A1.827,1.827,0,0,0,2.9,26.308H17.518a1.827,1.827,0,0,0,1.711-1.218Z" transform="translate(-0.074 -7.037)" fill="#ff9797"/>
    <path id="Path_45646" data-name="Path 45646" d="M17.89,29.562l.171-.043.11-.043a1.218,1.218,0,0,0,.134-.055l.11-.061.122-.073.1-.073.1-.091a.408.408,0,0,0,.091-.085l.091-.1a1.115,1.115,0,0,0,.079-.1l.079-.122.055-.1v-.043a1.864,1.864,0,0,1-.639.122H3.876a1.827,1.827,0,0,1-1.73-1.261l-.956.956c.03.073.067.152.1.225a.122.122,0,0,1,0,.049l.128.195.043.049a1.858,1.858,0,0,0,.292.286.774.774,0,0,0,.073.061l.122.073.158.091.122.049.207.061h.1A1.529,1.529,0,0,0,2.9,29.6H17.518a1.413,1.413,0,0,0,.28,0A.487.487,0,0,0,17.89,29.562Z" transform="translate(-0.074 -10.333)" fill="#e47979"/>
    <path id="Path_45647" data-name="Path 45647" d="M18.44,9H4.81v3.21l6.346,6.34a.664.664,0,0,0,.938,0l6.346-6.34Z" transform="translate(-1.49 -3.128)" fill="#86c3ef"/>
    <path id="Path_45648" data-name="Path 45648" d="M18.181,2.827V9.8l-5.621,5.621a.664.664,0,0,1-.938,0L6,9.8V2.827A1.827,1.827,0,0,1,7.827,1h8.526A1.827,1.827,0,0,1,18.181,2.827Z" transform="translate(-1.955 0)" fill="#eef5fd"/>
    <path id="Path_45649" data-name="Path 45649" d="M6.761,10.434v-7A1.827,1.827,0,0,1,8.588,1.609h8.526a1.772,1.772,0,0,1,.743.164A1.827,1.827,0,0,0,16.353,1H7.827A1.827,1.827,0,0,0,6,2.827V9.8l5.621,5.621a.664.664,0,0,0,.286.158Z" transform="translate(-1.955)" fill="#d7e2f2"/>
    <path id="Path_45650" data-name="Path 45650" d="M17.009,6.6h-6.09a.609.609,0,0,1,0-1.218h6.09a.609.609,0,0,1,0,1.218Zm0,2.46h-6.09a.609.609,0,0,1,0-1.218h6.09a.609.609,0,0,1,0,1.218Zm0,2.46h-6.09a.609.609,0,1,1,0-1.218h6.09a.609.609,0,1,1,0,1.218Z" transform="translate(-3.64 -1.712)" fill="#d7e2f2"/>
    <path id="Path_45651" data-name="Path 45651" d="M16.7,6.218h-6.09a.609.609,0,0,1,0-1.218H16.7a.609.609,0,0,1,0,1.218Zm0,2.436h-6.09a.609.609,0,0,1,0-1.218H16.7a.609.609,0,0,1,0,1.218Zm0,2.436h-6.09a.609.609,0,0,1,0-1.218H16.7a.609.609,0,0,1,0,1.218Z" transform="translate(-3.519 -1.564)" fill="#ffc661"/>
  </g>
</svg>
