<svg xmlns="http://www.w3.org/2000/svg" width="23.609" height="23.609" viewBox="0 0 23.609 23.609">
  <path id="Path_45725" data-name="Path 45725" d="M13.8,2a11.8,11.8,0,1,0,11.8,11.8A11.8,11.8,0,0,0,13.8,2Zm0,2.361a9.668,9.668,0,0,1,2.113.248A3.081,3.081,0,0,1,15,5.789c-.26.2-.543.366-.826.543A5.383,5.383,0,0,0,11.987,8.3a7.661,7.661,0,0,0-.732,3.9c0,1.605,0,2.55-1.121,3.388-1.617,1.263-4.084.555-5.619-.083a9.833,9.833,0,0,1-.153-1.7A9.444,9.444,0,0,1,13.8,4.361Zm5.773,16.9a8.016,8.016,0,0,0-.744-1.346c-.13-.189-.26-.378-.378-.578-.46-.8-.3-1.18.449-2.361l.118-.2a5.631,5.631,0,0,0,.685-2.869,6.4,6.4,0,0,1,.106-1.18c.189-.862,2.019-1.1,3.152-1.18a9.373,9.373,0,0,1-3.376,9.774Z" transform="translate(-2 -2)" fill="#621ae3"/>
</svg>
