<svg xmlns="http://www.w3.org/2000/svg" width="18.103" height="16.404" viewBox="0 0 18.103 16.404">
  <g id="Group_49712" data-name="Group 49712" transform="translate(-1 -3.818)">
    <path id="Path_45629" data-name="Path 45629" d="M3,22H6.5V33.1H3Z" transform="translate(-1.416 -12.873)" fill="#187fb8"/>
    <path id="Path_45630" data-name="Path 45630" d="M3,22H6.5V33.1H3Z" transform="translate(-1.416 -12.873)" fill="#187fb8"/>
    <path id="Path_45631" data-name="Path 45631" d="M3,22H6.5V33.1H3Z" transform="translate(-1.416 -12.873)" fill="#1267a0"/>
    <path id="Path_45632" data-name="Path 45632" d="M3,28.277a16.468,16.468,0,0,0,3.5.872V22H3Z" transform="translate(-1.416 -12.873)" fill="#187fb8"/>
    <path id="Path_45633" data-name="Path 45633" d="M3,23.43a16.45,16.45,0,0,0,3.5.872V22H3Z" transform="translate(-1.416 -12.873)" fill="#2499ce"/>
    <path id="Path_45634" data-name="Path 45634" d="M29.57,21.527c-2.022,0-3.464,1.094-3.464,1.861V21.665h-4.08c.051.876,0,11.1,0,11.1h4.08v-6a2.666,2.666,0,0,1,.028-.914,1.923,1.923,0,0,1,1.838-1.369c1.376,0,1.93,1.033,1.93,2.547V32.76h4.088V26.6c0-3.463-1.912-5.07-4.419-5.07Z" transform="translate(-14.887 -12.538)" fill="#187fb8"/>
    <path id="Path_45635" data-name="Path 45635" d="M29.57,21.527c-2.022,0-3.464,1.094-3.464,1.861V21.665h-4.08c.051.876,0,11.1,0,11.1h4.08v-6a2.666,2.666,0,0,1,.028-.914,1.923,1.923,0,0,1,1.838-1.369c1.376,0,1.93,1.033,1.93,2.547V32.76h4.088V26.6c0-3.463-1.912-5.07-4.419-5.07Z" transform="translate(-14.887 -12.538)" fill="#1267a0"/>
    <path id="Path_45636" data-name="Path 45636" d="M29.57,21.527c-2.022,0-3.464,1.094-3.464,1.861V21.665h-4.08c.03.584.025,4.429.015,7.467a37.566,37.566,0,0,0,4.065.213V26.764c0-.336.008-.4.008-.4a1.842,1.842,0,0,1,1.858-1.88c1.376,0,1.93,1.033,1.93,2.547v2.11a31.194,31.194,0,0,0,4.088-.687V26.6c0-3.463-1.912-5.07-4.419-5.07Z" transform="translate(-14.887 -12.538)" fill="#187fb8"/>
    <path id="Path_45637" data-name="Path 45637" d="M14.683,8.989c-2.022,0-3.464,1.094-3.464,1.861V9.127H7.139c.015.292.021,1.29.022,2.632a36.774,36.774,0,0,0,4.022.21,34.7,34.7,0,0,0,7.339-.758,4.076,4.076,0,0,0-3.839-2.222ZM3.156,3.818A1.96,1.96,0,0,0,1,5.744,1.939,1.939,0,0,0,3.105,7.667h.026a1.935,1.935,0,1,0,.025-3.849Z" transform="translate(0 0)" fill="#2499ce"/>
    <path id="Path_45638" data-name="Path 45638" d="M3.156,7.37C1.852,7.37,1,7.14,1,8.245a1.939,1.939,0,0,0,2.105,1.923h.026A1.955,1.955,0,0,0,5.283,8.242C5.258,7.138,4.457,7.37,3.156,7.37Z" transform="translate(0 -2.5)" fill="#187fb8"/>
    <path id="Path_45639" data-name="Path 45639" d="M3.156,10.973C1.852,10.973,1,9.9,1,10.244a1.939,1.939,0,0,0,2.105,1.923h.026a1.955,1.955,0,0,0,2.152-1.925C5.275,9.9,4.44,10.973,3.156,10.973Z" transform="translate(0 -4.5)" fill="#1267a0"/>
  </g>
</svg>
