<svg xmlns="http://www.w3.org/2000/svg" width="17.024" height="18.278" viewBox="0 0 17.024 18.278">
  <g id="Group_49712" data-name="Group 49712" transform="translate(-8.126 -4)">
    <path id="Path_45640" data-name="Path 45640" d="M16.961,6.105a8.195,8.195,0,0,0-4.815,13.488l-.609,4.067,4.57-1.57a8.2,8.2,0,1,0,.855-15.984Z" transform="translate(-1.683 -1.686)" fill="#3074f2"/>
    <path id="Path_45641" data-name="Path 45641" d="M9.85,22.278a.3.3,0,0,1-.3-.35L10.137,18a8.506,8.506,0,1,1,7.908,2.909,8.412,8.412,0,0,1-3.625-.184L9.949,22.262A.329.329,0,0,1,9.85,22.278ZM15.333,4.721A7.89,7.89,0,0,0,10.7,17.709a.3.3,0,0,1,.073.245l-.544,3.563,4.087-1.406a.3.3,0,0,1,.181,0,7.9,7.9,0,1,0,.835-15.39Z" fill="#3074f2"/>
    <path id="Path_45642" data-name="Path 45642" d="M31.762,44.889l3.877-4.737a.222.222,0,0,1,.3-.037l1.889,1.415a.222.222,0,0,0,.282-.011l3.005-2.626a.224.224,0,0,1,.334.294l-3.34,5.005a.224.224,0,0,1-.321.055L35.9,42.832a.222.222,0,0,0-.259,0l-3.584,2.385a.224.224,0,0,1-.3-.329Z" transform="translate(-19.992 -29.53)" fill="#fff"/>
  </g>
</svg>
