<svg xmlns="http://www.w3.org/2000/svg" width="15.133" height="18.625" viewBox="0 0 15.133 18.625">
  <path id="Path_45726" data-name="Path 45726" d="M9.819,0C4.715,0,2,3.271,2,6.838c0,1.654.924,3.717,2.4,4.371.225.1.347.058.4-.15.044-.158.239-.921.333-1.281a.329.329,0,0,0-.079-.324,4.242,4.242,0,0,1-.881-2.574,5.017,5.017,0,0,1,5.343-4.9c2.91,0,4.946,1.891,4.946,4.595,0,3.056-1.617,5.17-3.718,5.17A1.665,1.665,0,0,1,8.991,9.7a22.132,22.132,0,0,0,.983-3.76A1.444,1.444,0,0,0,8.478,4.352c-1.184,0-2.144,1.172-2.144,2.746a3.915,3.915,0,0,0,.354,1.675L5.3,14.387a12.563,12.563,0,0,0,.086,4.127.123.123,0,0,0,.224.057A14.667,14.667,0,0,0,7.537,14.94c.144-.532.737-2.689.737-2.689a3.218,3.218,0,0,0,2.715,1.295c3.567,0,6.144-3.135,6.144-7.026C17.12,2.79,13.928,0,9.819,0" transform="translate(-2)" fill="#d32f2f"/>
</svg>
