<svg id="qr-code-svgrepo-com" xmlns="http://www.w3.org/2000/svg" xmlns:xlink="http://www.w3.org/1999/xlink" width="304.46" height="304.46" viewBox="0 0 304.46 304.46">
  <defs>
    <linearGradient id="linear-gradient" x1="0.992" y1="0.477" x2="0" y2="0.438" gradientUnits="objectBoundingBox">
      <stop offset="0" stop-color="#161fe4"/>
      <stop offset="1" stop-color="#bb14e2"/>
    </linearGradient>
  </defs>
  <g id="Group_49478" data-name="Group 49478" transform="translate(26.968 26.968)">
    <g id="Group_49477" data-name="Group 49477">
      <rect id="Rectangle_19454" data-name="Rectangle 19454" width="26.968" height="26.968" rx="13.484" fill="url(#linear-gradient)"/>
    </g>
  </g>
  <g id="Group_49480" data-name="Group 49480" transform="translate(210.073)">
    <g id="Group_49479" data-name="Group 49479">
      <path id="Path_45664" data-name="Path 45664" d="M346.284,0V13.484H332.8V26.968h13.484V80.9h13.484V94.387H346.284V107.87h26.968V80.9H413.7V94.387h13.484V0ZM413.7,67.419H359.768V13.484H413.7Z" transform="translate(-332.8)" fill="url(#linear-gradient)"/>
    </g>
  </g>
  <g id="Group_49482" data-name="Group 49482" transform="translate(250.524 26.968)">
    <g id="Group_49481" data-name="Group 49481">
      <rect id="Rectangle_19455" data-name="Rectangle 19455" width="26.968" height="26.968" rx="13.484" fill="url(#linear-gradient)"/>
    </g>
  </g>
  <g id="Group_49484" data-name="Group 49484" transform="translate(26.968 250.524)">
    <g id="Group_49483" data-name="Group 49483">
      <rect id="Rectangle_19456" data-name="Rectangle 19456" width="26.968" height="26.968" rx="13.484" fill="url(#linear-gradient)"/>
    </g>
  </g>
  <g id="Group_49486" data-name="Group 49486" transform="translate(214.403 214.403)">
    <g id="Group_49485" data-name="Group 49485">
      <rect id="Rectangle_19457" data-name="Rectangle 19457" width="13.484" height="13.484" rx="6.742" fill="url(#linear-gradient)"/>
    </g>
  </g>
  <g id="Group_49488" data-name="Group 49488" transform="translate(137.831 290.976)">
    <g id="Group_49487" data-name="Group 49487">
      <rect id="Rectangle_19458" data-name="Rectangle 19458" width="13.484" height="13.484" rx="6.742" fill="url(#linear-gradient)"/>
    </g>
  </g>
  <g id="Group_49490" data-name="Group 49490" transform="translate(153.145 229.718)">
    <g id="Group_49489" data-name="Group 49489">
      <rect id="Rectangle_19459" data-name="Rectangle 19459" width="13.484" height="13.484" rx="6.742" fill="url(#linear-gradient)"/>
    </g>
  </g>
  <g id="Group_49492" data-name="Group 49492" transform="translate(153.145 264.008)">
    <g id="Group_49491" data-name="Group 49491">
      <rect id="Rectangle_19460" data-name="Rectangle 19460" width="13.484" height="13.484" rx="6.742" fill="url(#linear-gradient)"/>
    </g>
  </g>
  <g id="Group_49494" data-name="Group 49494" transform="translate(290.976 183.774)">
    <g id="Group_49493" data-name="Group 49493">
      <rect id="Rectangle_19461" data-name="Rectangle 19461" width="13.484" height="13.484" rx="6.742" fill="url(#linear-gradient)"/>
    </g>
  </g>
  <g id="Group_49496" data-name="Group 49496" transform="translate(0 183.774)">
    <g id="Group_49495" data-name="Group 49495">
      <rect id="Rectangle_19462" data-name="Rectangle 19462" width="13.484" height="13.484" rx="6.742" fill="url(#linear-gradient)"/>
    </g>
  </g>
  <g id="Group_49498" data-name="Group 49498" transform="translate(0 107.202)">
    <g id="Group_49497" data-name="Group 49497">
      <rect id="Rectangle_19463" data-name="Rectangle 19463" width="13.484" height="13.484" rx="6.742" fill="url(#linear-gradient)"/>
    </g>
  </g>
  <g id="Group_49500" data-name="Group 49500" transform="translate(139.769 13.484)">
    <g id="Group_49499" data-name="Group 49499">
      <path id="Path_45665" data-name="Path 45665" d="M257.368,25.6V39.084H230.4V52.568h40.451V25.6Z" transform="translate(-230.4 -25.6)" fill="url(#linear-gradient)"/>
    </g>
  </g>
  <g id="Group_49502" data-name="Group 49502" transform="translate(129.17 142.654)">
    <g id="Group_49501" data-name="Group 49501">
      <path id="Path_45666" data-name="Path 45666" d="M341.005,204.8v13.484H314.038v13.484H273.586V218.284H260.1v13.484H233.135v13.484h40.451v13.484H233.135V245.251H219.651v13.484H206.168V245.251H192.684v13.484H179.2v13.484h26.968V285.7h13.484V272.219h26.968V285.7H233.135v13.484h13.484v26.968H260.1v13.484h13.484V326.154h40.451V299.186h13.484V285.7H314.038V258.735H287.07V245.251h26.968v13.484h13.484V245.251h13.484V231.768h13.484V204.8Zm-40.451,67.419V312.67H260.1V272.219Z" transform="translate(-179.2 -204.8)" fill="url(#linear-gradient)"/>
    </g>
  </g>
  <g id="Group_49504" data-name="Group 49504" transform="translate(170.829 93.179)">
    <g id="Group_49503" data-name="Group 49503">
      <path id="Path_45667" data-name="Path 45667" d="M308.568,153.6H295.084v13.484H281.6v26.968h13.484V180.568h13.484V167.084h13.484V153.6Z" transform="translate(-281.6 -153.6)" fill="url(#linear-gradient)"/>
    </g>
  </g>
  <g id="Group_49506" data-name="Group 49506" transform="translate(169.578 290.976)">
    <g id="Group_49505" data-name="Group 49505">
      <rect id="Rectangle_19464" data-name="Rectangle 19464" width="26.968" height="13.484" rx="6.742" fill="url(#linear-gradient)"/>
    </g>
  </g>
  <g id="Group_49508" data-name="Group 49508" transform="translate(122.516 13.484)">
    <g id="Group_49507" data-name="Group 49507">
      <rect id="Rectangle_19465" data-name="Rectangle 19465" width="13.484" height="13.484" rx="6.742" fill="url(#linear-gradient)"/>
    </g>
  </g>
  <g id="Group_49510" data-name="Group 49510" transform="translate(250.524 122.516)">
    <g id="Group_49509" data-name="Group 49509">
      <rect id="Rectangle_19466" data-name="Rectangle 19466" width="13.484" height="13.484" rx="6.742" fill="url(#linear-gradient)"/>
    </g>
  </g>
  <g id="Group_49512" data-name="Group 49512" transform="translate(264.008 107.202)">
    <g id="Group_49511" data-name="Group 49511">
      <rect id="Rectangle_19467" data-name="Rectangle 19467" width="13.484" height="13.484" rx="6.742" fill="url(#linear-gradient)"/>
    </g>
  </g>
  <g id="Group_49514" data-name="Group 49514" transform="translate(61.258 183.774)">
    <g id="Group_49513" data-name="Group 49513">
      <rect id="Rectangle_19468" data-name="Rectangle 19468" width="13.484" height="13.484" rx="6.742" fill="url(#linear-gradient)"/>
    </g>
  </g>
  <g id="Group_49516" data-name="Group 49516" transform="translate(0 210.073)">
    <g id="Group_49515" data-name="Group 49515">
      <path id="Path_45668" data-name="Path 45668" d="M80.9,413.7V359.768H94.387V332.8H80.9v13.484H40.451V332.8H13.484v13.484H0v80.9H107.87V413.7Zm-13.484,0H13.484V359.768H67.419Z" transform="translate(0 -332.8)" fill="url(#linear-gradient)"/>
    </g>
  </g>
  <g id="Group_49518" data-name="Group 49518" transform="translate(91.887 91.887)">
    <g id="Group_49517" data-name="Group 49517">
      <rect id="Rectangle_19469" data-name="Rectangle 19469" width="13.484" height="13.484" rx="6.742" fill="url(#linear-gradient)"/>
    </g>
  </g>
  <g id="Group_49520" data-name="Group 49520">
    <g id="Group_49519" data-name="Group 49519">
      <path id="Path_45669" data-name="Path 45669" d="M94.387,0H0V80.9H13.484V94.387H26.968V80.9H40.451V94.387H53.935V80.9H80.9V53.935H94.387V40.451H80.9V13.484H107.87V0ZM67.419,67.419H13.484V13.484H67.419Z" fill="url(#linear-gradient)"/>
    </g>
  </g>
  <g id="Group_49522" data-name="Group 49522" transform="translate(183.774 40.451)">
    <g id="Group_49521" data-name="Group 49521">
      <rect id="Rectangle_19470" data-name="Rectangle 19470" width="13.484" height="13.484" rx="6.742" fill="url(#linear-gradient)"/>
    </g>
  </g>
  <g id="Group_49524" data-name="Group 49524" transform="translate(153.145)">
    <g id="Group_49523" data-name="Group 49523">
      <rect id="Rectangle_19471" data-name="Rectangle 19471" width="13.484" height="13.484" rx="6.742" fill="url(#linear-gradient)"/>
    </g>
  </g>
  <g id="Group_49526" data-name="Group 49526" transform="translate(0 65.53)">
    <g id="Group_49525" data-name="Group 49525">
      <path id="Path_45670" data-name="Path 45670" d="M161.805,129.368V115.884H148.322V102.4H134.838v13.484H107.87V102.4H94.387v26.968H107.87v26.968H67.419V142.851H53.935v13.484H13.484v13.484H40.451V183.3H0v13.484H40.451V210.27H53.935V196.787H67.419V210.27H80.9V196.787H107.87V183.3H94.387V169.819h26.968V183.3h26.968V169.819H134.838V156.335H121.354V129.368ZM80.9,183.3H53.935V169.819H80.9Z" transform="translate(0 -102.4)" fill="url(#linear-gradient)"/>
    </g>
  </g>
  <g id="Group_49528" data-name="Group 49528" transform="translate(108.709 223.557)">
    <g id="Group_49527" data-name="Group 49527">
      <path id="Path_45671" data-name="Path 45671" d="M206.168,385.368V358.4H192.684v13.484H179.2v13.484h13.484v13.484H179.2v13.484h26.968V398.851h13.484V385.368Z" transform="translate(-179.2 -358.4)" fill="url(#linear-gradient)"/>
    </g>
  </g>
  <g id="Group_49530" data-name="Group 49530" transform="translate(223.557 264.008)">
    <g id="Group_49529" data-name="Group 49529">
      <path id="Path_45672" data-name="Path 45672" d="M412.335,448.684V435.2H398.851v13.484H358.4v13.484h26.968v13.484h13.484V462.168h26.968v13.484H439.3V448.684Z" transform="translate(-358.4 -435.2)" fill="url(#linear-gradient)"/>
    </g>
  </g>
  <g id="Group_49532" data-name="Group 49532" transform="translate(277.492 215.827)">
    <g id="Group_49531" data-name="Group 49531">
      <path id="Path_45673" data-name="Path 45673" d="M474.284,358.4v13.484H460.8v13.484h26.968V358.4Z" transform="translate(-460.8 -358.4)" fill="url(#linear-gradient)"/>
    </g>
  </g>
</svg>
