<svg xmlns="http://www.w3.org/2000/svg" width="20.691" height="16.739" viewBox="0 0 20.691 16.739">
  <g id="Group_49712" data-name="Group 49712" transform="translate(0 -2)">
    <path id="Path_45661" data-name="Path 45661" d="M6.144,9.5h0Zm5.794,0h0Z" transform="translate(1.582 2.157)" fill="#fafafa"/>
    <path id="Path_45662" data-name="Path 45662" d="M20.691,9.726A2.578,2.578,0,0,0,18.116,7.15a2.543,2.543,0,0,0-1.548.521,10.824,10.824,0,0,0-5.322-1.743l1.08-2.534,3.143.734a1.922,1.922,0,1,0,.3-1.253L12.1,2.017a.644.644,0,0,0-.74.375l-1.494,3.5A11.041,11.041,0,0,0,4.084,7.638,2.578,2.578,0,0,0,0,9.726a2.549,2.549,0,0,0,1.3,2.229q-.015.173-.014.346c0,3.55,4.043,6.438,9.013,6.438s9.013-2.888,9.013-6.438c0-.1,0-.2-.01-.3a2.549,2.549,0,0,0,1.388-2.276Z" transform="translate(0 0)" fill="#ff9800"/>
    <circle id="Ellipse_1674" data-name="Ellipse 1674" cx="0.644" cy="0.644" r="0.644" transform="translate(16.738 3.288)" fill="#fafafa"/>
    <circle id="Ellipse_1675" data-name="Ellipse 1675" cx="1.288" cy="1.288" r="1.288" transform="translate(5.794 10.369)" fill="#fafafa"/>
    <path id="Path_45663" data-name="Path 45663" d="M11.7,13.079a5.068,5.068,0,0,1-5.946,0,.644.644,0,1,1,.755-1.043,3.776,3.776,0,0,0,4.437,0,.644.644,0,1,1,.755,1.043Z" transform="translate(1.574 2.849)" fill="#fafafa"/>
    <circle id="Ellipse_1676" data-name="Ellipse 1676" cx="1.288" cy="1.288" r="1.288" transform="translate(12.232 10.369)" fill="#fafafa"/>
  </g>
</svg>
