<svg xmlns="http://www.w3.org/2000/svg" width="19.974" height="16.229" viewBox="0 0 19.974 16.229">
  <path id="Path_45726" data-name="Path 45726" d="M19.974,3.921a8.537,8.537,0,0,1-2.359.647,4.072,4.072,0,0,0,1.8-2.263,8.183,8.183,0,0,1-2.6.991A4.095,4.095,0,0,0,9.736,6.1a4.216,4.216,0,0,0,.095.934,11.59,11.59,0,0,1-8.44-4.283A4.1,4.1,0,0,0,2.649,8.219a4.045,4.045,0,0,1-1.85-.5V7.76A4.113,4.113,0,0,0,4.08,11.783a4.087,4.087,0,0,1-1.074.135,3.62,3.62,0,0,1-.775-.07A4.133,4.133,0,0,0,6.057,14.7,8.227,8.227,0,0,1,.98,16.447,7.67,7.67,0,0,1,0,16.391a11.527,11.527,0,0,0,6.282,1.838A11.574,11.574,0,0,0,17.936,6.576c0-.181-.006-.356-.015-.529a8.169,8.169,0,0,0,2.052-2.126Z" transform="translate(0 -2)" fill="#03a9f4"/>
</svg>
