<svg id="Group_49712" data-name="Group 49712" xmlns="http://www.w3.org/2000/svg" width="18.281" height="18.278" viewBox="0 0 18.281 18.278">
  <path id="Path_55" data-name="Path 55" d="M9.143,0h0a9.135,9.135,0,0,0-7.4,14.5L.6,17.894l3.513-1.123A9.139,9.139,0,1,0,9.143,0Z" transform="translate(0 0)" fill="#4caf50"/>
  <path id="Path_56" data-name="Path 56" d="M31.26,31.24a2.578,2.578,0,0,1-1.794,1.29c-.478.1-1.1.183-3.2-.688a11.454,11.454,0,0,1-4.551-4.02,5.214,5.214,0,0,1-1.086-2.757,2.918,2.918,0,0,1,.935-2.225,1.328,1.328,0,0,1,.935-.328c.113,0,.215.006.306.01.269.012.4.027.58.451.221.531.758,1.843.822,1.978a.544.544,0,0,1,.039.495,1.58,1.58,0,0,1-.3.419c-.135.155-.263.274-.4.441-.123.145-.263.3-.107.569a8.113,8.113,0,0,0,1.483,1.843,6.719,6.719,0,0,0,2.144,1.322.578.578,0,0,0,.644-.1,11.06,11.06,0,0,0,.714-.947.51.51,0,0,1,.656-.2c.247.086,1.553.731,1.821.865s.445.2.511.312A2.268,2.268,0,0,1,31.26,31.24Z" transform="translate(-16.798 -18.333)" fill="#fafafa"/>
</svg>
