<svg xmlns="http://www.w3.org/2000/svg" width="59" height="84.833" viewBox="0 0 59 84.833">
  <path id="Path_63" data-name="Path 63" d="M6522.457,902.666a3.1,3.1,0,0,1-1.832-1.879q-4.981-11.2-10.011-22.37c-.1-.235-.22-.465-.383-.806-.259.237-.49.432-.7.644q-8.031,8.046-16.062,16.091a4.449,4.449,0,0,1-1.131.91,1.794,1.794,0,0,1-2.578-1.423,36.4,36.4,0,0,1-.1-3.781q.007-9.208.037-18.418.022-8.477.048-16.955.018-9.123.023-18.246.012-8.176.032-16.353a1.975,1.975,0,0,1,3.483-1.518q5.465,4.873,10.929,9.746,21.69,19.356,43.373,38.722a3.373,3.373,0,0,1,.936,1.194,1.89,1.89,0,0,1-1.835,2.56c-2.233.153-4.47.251-6.706.372l-11.952.653-4.054.223c.484,1.1.923,2.113,1.376,3.121q4.419,9.844,8.844,19.689c.763,1.7.427,2.6-1.265,3.367q-4.507,2.035-9.018,4.059a4.049,4.049,0,0,0-.431.258Zm-28.818-78.7c-.051,21.678-.1,43.171-.152,64.882.364-.351.566-.541.762-.737q7.4-7.406,14.789-14.81a5.163,5.163,0,0,1,.711-.621,1.805,1.805,0,0,1,2.584.417,4.371,4.371,0,0,1,.463.82q3.877,8.629,7.745,17.263c1.031,2.3,2.063,4.595,3.122,6.955l6.491-2.909c-.154-.368-.269-.658-.4-.941-3.4-7.587-6.771-15.186-10.223-22.75-.827-1.811.1-3.177,2.032-3.26,5.736-.244,11.466-.6,17.2-.925,1.02-.056,2.038-.131,3.278-.211Z" transform="translate(-6489.658 -817.833)" fill="#fff"/>
</svg>
