<svg xmlns="http://www.w3.org/2000/svg" width="252.74" height="203.492" viewBox="0 0 252.74 203.492">
  <path id="Path_63" data-name="Path 63" d="M4035.562,953.383l-9.761-15.6c-9.6-15.336-19.52-31.2-29.216-46.834a5.9,5.9,0,0,0-5.793-3.236c-20.547.078-41.439.071-61.642.062l-18.449,0-17.795,0c-20.586,0-41.872.008-62.809-.041h-.028a5.182,5.182,0,0,0-5.027,2.685c-9.406,15.132-19.012,30.49-28.3,45.342l-11.364,18.173c-1.634,2.616-1.536,3.484.657,5.8L3899.4,1079.767c3.1,3.288,6.3,6.688,9.483,9.995a3.839,3.839,0,0,0,2.577,1.439,4.029,4.029,0,0,0,2.673-1.4c.281-.276.546-.568.811-.859l.385-.42L4034.948,960.03C4037.535,957.252,4037.592,956.63,4035.562,953.383Zm-48.429-59.276-35.409,56.61-35.418-56.61ZM3946,953.28h-70.723l35.359-56.518Zm-41.041-59.168-35.408,56.609-35.411-56.609Zm-76.5,2.647,35.411,56.6h-70.811Zm71.618,174.62L3794.766,959.887h72.571l34.468,110.285Zm11.631,2.808-2.048.329-35.851-114.687h73.638Zm8.826-.348-1.9-.927,35.308-113.093h72.69Zm36.852-120.462,35.411-56.613,35.434,56.613Z" transform="translate(-3784.255 -887.709)" fill="#d3d2f9"/>
</svg>
