<svg xmlns="http://www.w3.org/2000/svg" xmlns:xlink="http://www.w3.org/1999/xlink" width="168.156" height="168.156" viewBox="0 0 168.156 168.156">
  <defs>
    <linearGradient id="linear-gradient" x1="-0.04" y1="0.5" x2="1.067" y2="0.5" gradientUnits="objectBoundingBox">
      <stop offset="0.042" stop-color="#da6268"/>
      <stop offset="0.514" stop-color="#cd4598"/>
    </linearGradient>
  </defs>
  <g id="Group_155" data-name="Group 155" transform="translate(-3178.844 -587.695)">
    <g id="Group_69" data-name="Group 69">
      <rect id="Rectangle_36" data-name="Rectangle 36" width="168.156" height="168.156" rx="84.078" transform="translate(3178.844 587.695)" fill="url(#linear-gradient)"/>
    </g>
    <path id="Path_43" data-name="Path 43" d="M3250.392,642.975h4.412c.208.121.408.328.627.35a32.844,32.844,0,0,1,17.115,6.871,1.832,1.832,0,0,0,1.751-.252,19.186,19.186,0,0,1,11.153-5.864c2.761-.445,5.546-.742,8.321-1.105h22.792c-.078.42-.125.848-.239,1.258-2.617,9.382-8.705,15.723-17.467,19.568-3.095,1.358-6.393,2.257-9.889,3.466,5.8,1.638,11.4,1,16.95.136.091.233.189.356.167.449-.145.593-.294,1.188-.483,1.768-3.479,10.642-10.943,16.5-21.889,18.024a3.094,3.094,0,0,0-2.663,2.005,31.711,31.711,0,0,1-33.776,17.077,31.972,31.972,0,0,1-.785-62.938C3247.794,643.539,3249.091,643.247,3250.392,642.975Zm11.9,31.953a9.857,9.857,0,0,0-9.6-9.655,9.874,9.874,0,1,0-.309,19.745A9.8,9.8,0,0,0,3262.289,674.928Z" fill="#fff"/>
  </g>
</svg>
