<svg xmlns="http://www.w3.org/2000/svg" xmlns:xlink="http://www.w3.org/1999/xlink" width="168.156" height="168.156" viewBox="0 0 168.156 168.156">
  <defs>
    <linearGradient id="linear-gradient" x1="-0.04" y1="0.5" x2="1.067" y2="0.5" gradientUnits="objectBoundingBox">
      <stop offset="0.042" stop-color="#f7931e"/>
      <stop offset="0.973" stop-color="#ed6940"/>
    </linearGradient>
  </defs>
  <g id="Group_154" data-name="Group 154" transform="translate(-321.844 -1190.695)">
    <g id="Group_146" data-name="Group 146">
      <rect id="Rectangle_60" data-name="Rectangle 60" width="168.156" height="168.156" rx="84.078" transform="translate(321.844 1190.695)" fill="url(#linear-gradient)"/>
    </g>
    <g id="Group_148" data-name="Group 148">
      <path id="Path_214" data-name="Path 214" d="M423.147,1314.337l-41.615-3.792c-23.338-2.127-27.061-13.151-25.5-30.25l1.421-15.593c.785-8.609,1.4-15.409,5.835-20.093,4.519-4.777,11.68-6.24,24.716-5.052l41.615,3.793c12.72,1.159,19.385,3.751,23.005,8.946h0c3.654,5.243,3.362,11.84,2.5,21.307L453.7,1289.2c-1.005,11.023-3.51,17.379-8.376,21.257C440.6,1314.218,434.171,1315.342,423.147,1314.337Zm-35.838-67.181c-10.28-.937-15.806-.131-18.481,2.7-2.615,2.764-3.1,8.124-3.779,15.543l-1.421,15.592c-1.352,14.833,1.254,20.379,18.6,21.959l41.616,3.793c8.741.8,13.745.122,16.729-2.254,3.038-2.421,4.744-7.349,5.531-15.982l1.421-15.592c.71-7.792,1.013-13.133-1.16-16.251v0c-2.149-3.084-7.363-4.792-17.436-5.71Z" fill="#fff"/>
      <g id="Group_147" data-name="Group 147">
        <path id="Path_215" data-name="Path 215" d="M417.419,1280.017l-18.391,7.574a2.711,2.711,0,0,1-3.732-2.752l1.667-18.291a2.71,2.71,0,0,1,4.161-2.035l16.725,10.715a2.711,2.711,0,0,1-.43,4.789Z" fill="#fff"/>
        <path id="Path_216" data-name="Path 216" d="M397.576,1289.684a4.617,4.617,0,0,1-4.179-5.018l1.666-18.29a4.619,4.619,0,0,1,7.09-3.47l16.725,10.715a4.619,4.619,0,0,1-.734,8.16l-18.389,7.574A4.664,4.664,0,0,1,397.576,1289.684Zm2.158-23.689a.806.806,0,0,0-.871.727l-1.667,18.29a.807.807,0,0,0,.324.72.816.816,0,0,0,.78.095l18.393-7.576a.8.8,0,0,0,.125-1.417L400.1,1266.12A.785.785,0,0,0,399.734,1265.995Z" fill="#fff"/>
      </g>
    </g>
  </g>
</svg>
