<svg xmlns="http://www.w3.org/2000/svg" xmlns:xlink="http://www.w3.org/1999/xlink" width="168.156" height="168.156" viewBox="0 0 168.156 168.156">
  <defs>
    <linearGradient id="linear-gradient" x1="0.5" y1="0.121" x2="0.5" y2="1.3" gradientUnits="objectBoundingBox">
      <stop offset="0.016" stop-color="#83b8e3"/>
      <stop offset="0.35" stop-color="#64a6dc"/>
    </linearGradient>
  </defs>
  <g id="Group_157" data-name="Group 157" transform="translate(-4119.844 -1119.695)">
    <g id="Group_28" data-name="Group 28">
      <rect id="Rectangle_16" data-name="Rectangle 16" width="168.156" height="168.156" rx="84.078" transform="translate(4119.844 1119.695)" fill="url(#linear-gradient)"/>
    </g>
    <g id="Hu2kg8">
      <g id="Group_30" data-name="Group 30">
        <g id="Group_29" data-name="Group 29">
          <path id="Path_19" data-name="Path 19" d="M4184.915,1248.021v-11.3h-20.659c-.036-.663-.089-1.168-.089-1.674q-.006-27.673.012-55.349a6,6,0,0,1,.357-2.135c1.578-4.043,3.247-8.051,4.806-12.1a1.657,1.657,0,0,1,1.838-1.237q35.773.039,71.546.023c.409,0,.818.05,1.351.084.031.563.082,1.069.082,1.576,0,15.881.019,31.763-.04,47.644a3.816,3.816,0,0,1-1.015,2.418c-6.511,6.609-13.1,13.14-19.634,19.726a3.127,3.127,0,0,1-2.469,1.02c-4.35-.05-8.7.008-13.051-.042a3.279,3.279,0,0,0-2.623,1.06c-3.035,3.115-6.1,6.205-9.243,9.212a4.04,4.04,0,0,1-2.414,1.025C4190.849,1248.1,4188.02,1248.021,4184.915,1248.021Zm-8.6-76.355V1224.7h16.976v11.328c.686-.646,1.1-1.018,1.5-1.412,3-3,5.973-6.038,9.038-8.976a3.7,3.7,0,0,1,2.287-.953c5.661-.08,11.323,0,16.984-.087a3.929,3.929,0,0,0,2.44-.986q5.216-5.012,10.231-10.228a3.884,3.884,0,0,0,1.012-2.43c.063-12.529.045-25.058.041-37.586,0-.556-.047-1.111-.073-1.7Z" fill="#fff"/>
          <path id="Path_20" data-name="Path 20" d="M4203.466,1207.377h-6.155v-21.3h6.155Z" fill="#fff"/>
          <path id="Path_21" data-name="Path 21" d="M4217.13,1186.018h6.152v21.3h-6.152Z" fill="#fff"/>
        </g>
      </g>
    </g>
  </g>
</svg>
