<svg xmlns="http://www.w3.org/2000/svg" width="168" height="200.267" viewBox="0 0 168 200.267">
  <path id="Path_63" data-name="Path 63" d="M4511.979,428.885a27.794,27.794,0,0,0-5.71-16.66c-4.813-6.668-11.45-11.946-20.888-16.607-12.349-6.1-26.313-9.777-42.69-11.243-1.573-.141-3.144-.316-4.714-.492-.7-.079-1.4-.157-2.1-.232h-15.7q-1.735.182-3.471.358c-2.545.261-5.091.52-7.631.818-14.614,1.712-27.117,5.213-38.225,10.7-9.421,4.657-16.039,9.865-20.827,16.39a28.822,28.822,0,0,0-5.968,17.56l.019,23.086c.027,27.654.053,56.25-.073,84.376-.041,9.243,3.455,17.125,10.689,24.1,6.753,6.508,15.25,11.43,26.74,15.49a131.435,131.435,0,0,0,37.572,7.14c23.4,1.2,43.627-1.928,61.815-9.565,10.74-4.51,18.433-9.925,24.209-17.043,4.7-5.789,6.979-11.855,6.975-18.546q-.018-28.166-.011-56.33Q4511.989,455.535,4511.979,428.885ZM4354.6,415.334c4.544-6.163,10.822-10.9,20.357-15.359,10.528-4.925,22.291-8.094,35.96-9.688a145.057,145.057,0,0,1,46.868,2.05c13.49,2.85,24.022,7.038,33.147,13.179,5.522,3.716,9.355,7.558,12.064,12.092,4.684,7.841,4.189,14.571-1.654,22.5-5.643,7.66-13.681,12.1-20.054,15.114-10.705,5.062-22.529,8.257-36.146,9.769-3.893.432-7.861.667-11.7.894-1.758.105-3.516.209-5.272.331l-.043,0h-.043c-17.831-.283-33.318-3.042-47.343-8.434-10.037-3.858-17.406-8.408-23.191-14.317a26.627,26.627,0,0,1-7.1-11.808C4348.561,424.626,4351.911,418.974,4354.6,415.334ZM4349.6,457c.015-1.053.03-2.105.023-3.156-.011-1.654-.009-3.308-.006-5.056l0-4.843,5.067,4.8c7.249,6.86,16.163,11.916,28.053,15.91,15.967,5.363,33.03,7.585,52.168,6.8a134.085,134.085,0,0,0,40.646-7.572c9.24-3.344,16.738-7.462,22.922-12.589,1.4-1.166,2.728-2.436,4.129-3.78.663-.636,1.338-1.284,2.041-1.939l1.576-1.469.146,2.882c.029.487.055.922.055,1.356,0,1.427,0,2.853-.013,4.28-.017,2.8-.033,5.7.037,8.533.161,6.565-2.2,12.38-7.217,17.776-5.6,6.024-12.844,10.651-22.795,14.562a128.828,128.828,0,0,1-47.863,8.652q-4.575,0-9.3-.263a130.385,130.385,0,0,1-33.342-6.075c-10.874-3.561-19.023-7.862-25.646-13.536-6.466-5.54-9.8-11.155-10.488-17.673A63.373,63.373,0,0,1,4349.6,457Zm149.6,98.154c-5.615,6.04-12.806,10.643-22.63,14.485a129.2,129.2,0,0,1-47.757,8.7q-6.454,0-13.182-.543a122.247,122.247,0,0,1-35.948-8.081c-9.858-3.929-17.018-8.458-22.531-14.254-5.274-5.545-7.746-11.581-7.559-18.453.1-3.6.075-7.167.051-10.941-.012-1.7-.023-3.419-.023-5.173v-2.333l5.024,4.782c6.01,5.716,13.507,10.31,22.922,14.047,12.81,5.086,26.743,7.911,42.593,8.639,17.46.8,33.145-.871,47.943-5.113,12.457-3.57,21.962-8.22,29.915-14.632,1.521-1.226,2.943-2.576,4.45-4,.713-.677,1.438-1.364,2.192-2.056l1.567-1.438.146,2.776c.028.441.051.833.052,1.224,0,1.6-.006,3.192-.014,4.788-.016,3.218-.033,6.545.038,9.809C4506.593,543.943,4504.222,549.755,4499.2,555.154ZM4351.363,481.98c1.055.885,2.089,1.783,3.117,2.678,2.266,1.97,4.4,3.831,6.73,5.512,7.674,5.548,16.726,9.6,28.486,12.764a149.122,149.122,0,0,0,48.2,4.514,132.837,132.837,0,0,0,35.862-6.784c11.726-4.038,20.471-9.024,27.52-15.691.716-.677,1.426-1.361,2.208-2.115l2.946-2.831v4.262c0,1.582-.008,3.165-.016,4.747-.018,3.489-.036,7.1.037,10.637.134,6.564-2.236,12.374-7.246,17.763-5.534,5.95-12.776,10.581-22.793,14.574a123.56,123.56,0,0,1-37.131,8.177q-5.808.43-11.518.43a139.8,139.8,0,0,1-35.584-4.483c-11.154-2.931-20.248-6.925-27.8-12.207-5.955-4.164-9.888-8.431-12.378-13.427a20.3,20.3,0,0,1-2.343-8.943c-.046-4.547-.037-9.167-.029-13.635l.006-7.172" transform="translate(-4344 -383.651)" fill="#e3b5f6"/>
</svg>
