<svg xmlns="http://www.w3.org/2000/svg" width="121.156" height="90.919" viewBox="0 0 121.156 90.919">
  <g id="Group_90" data-name="Group 90" transform="translate(-4715.619 -803.604)">
    <path id="Path_10" data-name="Path 10" d="M4726.777,883.718c-.388-.835-.828-1.651-1.156-2.509q-4.6-12.028-9.167-24.071c-.851-2.239-.362-3.335,1.867-4.185,4.1-1.561,8.194-3.112,12.286-4.682a7.781,7.781,0,0,0,1.443-.709q25.866-16.719,51.72-33.457c.24-.155.47-.323.87-.6-.487-1.174-.992-2.359-1.472-3.555a2.77,2.77,0,0,1,.108-2.495,2.621,2.621,0,0,1,4.486-.164,5.034,5.034,0,0,1,.511,1.064q11.847,31.122,23.686,62.248c.064.168.134.334.187.5a2.714,2.714,0,1,1-5.07,1.915c-.376-.854-.673-1.742-1.009-2.614-.128-.331-.267-.659-.432-1.063l-18.23,2.721c.633,1.655,1.233,3.224,1.832,4.794.384,1.007.784,2.009,1.145,3.024a2.759,2.759,0,0,1-1.784,3.875c-2.209.861-4.431,1.689-6.647,2.532-6.547,2.491-13.09,4.995-19.649,7.452a4.335,4.335,0,0,1-2.078.235c-1.015-.153-1.506-.975-1.855-1.9-1.7-4.506-3.418-9-5.122-13.5a10.3,10.3,0,0,1-.28-1.1c-1.3.192-2.429.405-3.563.517a39.741,39.741,0,0,0-11.737,2.99c-2.28.967-4.63,1.77-6.961,2.612-.832.3-1.7.5-2.552.743Zm17.709-10.464,59.285-9.01-17.533-45.4-50.1,32.428C4738.938,858.653,4741.692,865.9,4744.486,873.254Zm39.765,6.25-2.455-6.465-23.4,3.485,4.347,11.434ZM4730.11,878l8.855-3.381-7.848-20.627-8.849,3.372Z" fill="#1a1a1a" stroke="#fff" stroke-miterlimit="10" stroke-width="1"/>
    <path id="Path_11" data-name="Path 11" d="M4807.313,832.081a8.724,8.724,0,0,1,1.906-1.422c6.5-2.494,13.02-4.926,19.542-7.359a2.526,2.526,0,0,1,3.293,1.2,2.754,2.754,0,0,1-1.026,3.577,5.58,5.58,0,0,1-.976.448q-9.4,3.584-18.817,7.147a4.027,4.027,0,0,1-1.666.32,2.539,2.539,0,0,1-2.108-3.716Z" fill="#1a1a1a" stroke="#fff" stroke-miterlimit="10" stroke-width="1"/>
    <path id="Path_12" data-name="Path 12" d="M4812.181,844.408a2.558,2.558,0,0,1,2.818-1.642c3.324.21,6.646.436,9.969.651q4.235.274,8.47.538a2.93,2.93,0,0,1,2.195.969,2.674,2.674,0,0,1-1.492,4.319,4.459,4.459,0,0,1-1.28.066q-9-.627-18-1.282c-1.928-.141-2.927-1.131-2.838-2.768A5.15,5.15,0,0,1,4812.181,844.408Z" fill="#1a1a1a" stroke="#fff" stroke-miterlimit="10" stroke-width="1"/>
    <path id="Path_13" data-name="Path 13" d="M4803.9,822.7c-1.542-.679-1.833-2.554-.563-3.949,1.06-1.164,2.181-2.274,3.277-3.406q4.86-5.015,9.722-10.027c1.231-1.266,2.707-1.473,3.832-.567a2.787,2.787,0,0,1,.073,4.254c-1.793,1.853-3.623,3.669-5.435,5.5q-3.7,3.746-7.4,7.492A2.781,2.781,0,0,1,4803.9,822.7Z" fill="#1a1a1a" stroke="#fff" stroke-miterlimit="10" stroke-width="1"/>
  </g>
</svg>
