<svg xmlns="http://www.w3.org/2000/svg" width="218.402" height="212.443" viewBox="0 0 218.402 212.443">
  <g id="Group_90" data-name="Group 90" transform="translate(-5520.598 -876.026)">
    <path id="Path_2" data-name="Path 2" d="M5738.212,909.858a9.156,9.156,0,0,0-3.922-1.231c-31.155-.5-62.832-.947-93.467-1.377l-34.716-.495q-18.1-.264-36.206-.489a4.369,4.369,0,0,1-4.63-3.416c-1.1-3.734-2.348-7.4-3.743-11.457-3.32-9.666-11.07-15.25-21.264-15.319-1.878-.013-3.757,0-5.635.009-3.074.017-6.252.035-9.393-.053-2.393-.061-3.758.639-4.638,2.418v1.377c.629,1.594,1.738,2.613,4.707,2.57,1.969-.036,3.955-.047,5.926-.047,1.573,0,3.138.007,4.679.014l3.553.013c8.465.015,13.647,3.754,16.306,11.764q3.789,11.414,7.569,22.83c7.576,22.865,15.41,46.51,23.242,69.72a14.5,14.5,0,0,1-.62,11.286,22.155,22.155,0,0,0,20.62,31.416q44.544.03,89.092,0l8.428,0a10.563,10.563,0,0,0,2.338-.175,2.943,2.943,0,0,0,2.263-3.09,2.818,2.818,0,0,0-2.4-2.8,15.353,15.353,0,0,0-2.857-.234q-48.325-.02-96.653-.016c-5.058,0-9.467-1.751-12.415-4.923a15.458,15.458,0,0,1-3.849-11.994,20.4,20.4,0,0,1,1.733-6.085c.331-.824.644-1.6.9-2.378l.377-1.137,2.685-.473c1.314-.233,2.629-.466,3.946-.688.674-.114,1.4-.209,2.279-.3l16.881-1.742q15.415-1.59,30.831-3.193,9.515-.995,19.025-2.017c10.815-1.154,22-2.347,33.007-3.451,12.456-1.249,21.282-8.714,24.214-20.482,3.06-12.284,6.026-24.817,8.9-36.936q1.792-7.565,3.591-15.126C5739.3,910.435,5738.48,910,5738.212,909.858Zm-7.369,9.4c-.294,1.235-.577,2.419-.864,3.6l-2.664,10.982q-3.445,14.214-6.912,28.425c-2.346,9.582-8.557,14.962-18.461,15.987l-104.934,10.855c-.316.033-.634.048-1.048.064l-2.191.109-25.335-76.788,163.454,2.4Z" fill="#1a1a1a"/>
    <path id="Path_3" data-name="Path 3" d="M5589.622,1046.056h-.134a21.207,21.207,0,0,0-.028,42.413h.071a21.281,21.281,0,0,0,21.249-21.1,20.943,20.943,0,0,0-6.2-14.948A21.171,21.171,0,0,0,5589.622,1046.056Zm-.071,36.081h-.069a14.918,14.918,0,1,1,.069,0Z" fill="#1a1a1a"/>
    <path id="Path_4" data-name="Path 4" d="M5687.643,1046.057h-.13a21.205,21.205,0,0,0,.1,42.41h.056a21.206,21.206,0,0,0-.029-42.411Zm.011,36.078h-.073a15,15,0,0,1-14.9-14.7,14.744,14.744,0,0,1,4.3-10.533,14.864,14.864,0,0,1,25.521,10.385A14.922,14.922,0,0,1,5687.654,1082.135Z" fill="#1a1a1a"/>
  </g>
</svg>
