<svg id="gear-svgrepo-com_1_" data-name="gear-svgrepo-com (1)" xmlns="http://www.w3.org/2000/svg" xmlns:xlink="http://www.w3.org/1999/xlink" width="19.484" height="19.484" viewBox="0 0 19.484 19.484">
  <defs>
    <linearGradient id="linear-gradient" x1="0.5" x2="0.5" y2="1" gradientUnits="objectBoundingBox">
      <stop offset="0" stop-color="#f7d3ff"/>
      <stop offset="1" stop-color="#ebd8ff"/>
    </linearGradient>
  </defs>
  <g id="Group_47440" data-name="Group 47440">
    <path id="Path_35667" data-name="Path 35667" d="M18.417,7.817H17.384A7.677,7.677,0,0,0,16.5,5.726l.743-.744a1.065,1.065,0,0,0,0-1.5L16.007,2.242a1.088,1.088,0,0,0-1.5,0l-.774.769a7.688,7.688,0,0,0-2.063-.837V1.068A1.061,1.061,0,0,0,10.613,0H8.864A1.055,1.055,0,0,0,7.816,1.068v1.1a7.709,7.709,0,0,0-2.067.838l-.773-.769a1.091,1.091,0,0,0-1.505,0L2.234,3.478a1.068,1.068,0,0,0-.312.751,1.054,1.054,0,0,0,.311.751l.743.746a7.676,7.676,0,0,0-.882,2.091H1.06A1.056,1.056,0,0,0,0,8.873v1.748a1.048,1.048,0,0,0,1.06,1.047H2.093a7.714,7.714,0,0,0,.881,2.095l-.743.747a1.066,1.066,0,0,0,0,1.505l1.238,1.237a1.064,1.064,0,0,0,1.5,0l.777-.77a7.738,7.738,0,0,0,2.067.838v1.1a1.047,1.047,0,0,0,1.047,1.059h1.75a1.053,1.053,0,0,0,1.054-1.059v-1.1a7.692,7.692,0,0,0,2.064-.838l.77.768a1.065,1.065,0,0,0,1.5,0l1.238-1.236a1.063,1.063,0,0,0,0-1.5l-.742-.75a7.746,7.746,0,0,0,.882-2.095h1.033a1.055,1.055,0,0,0,1.068-1.047V8.873A1.063,1.063,0,0,0,18.417,7.817ZM9.738,13.075A3.328,3.328,0,1,1,13.1,9.747,3.345,3.345,0,0,1,9.738,13.075Z" fill="url(#linear-gradient)"/>
  </g>
</svg>
