<svg id="image-interface-symbol-square-variant-svgrepo-com" xmlns="http://www.w3.org/2000/svg" xmlns:xlink="http://www.w3.org/1999/xlink" width="17.112" height="17.111" viewBox="0 0 17.112 17.111">
  <defs>
    <linearGradient id="linear-gradient" x1="0.5" x2="0.5" y2="1" gradientUnits="objectBoundingBox">
      <stop offset="0" stop-color="#f7d3ff"/>
      <stop offset="1" stop-color="#ebd8ff"/>
    </linearGradient>
  </defs>
  <path id="Path_35668" data-name="Path 35668" d="M16.173,0H.939A.939.939,0,0,0,0,.939V16.172a.939.939,0,0,0,.939.939H16.173a.939.939,0,0,0,.939-.939V.939A.939.939,0,0,0,16.173,0Zm-.939,1.878V8.45L12.1,5.321,7.722,9.495,4.592,7.407,1.879,9.269V1.878ZM3.183,4.9A1.617,1.617,0,1,1,4.8,6.52,1.617,1.617,0,0,1,3.183,4.9Z" transform="translate(0 0)" fill="url(#linear-gradient)"/>
</svg>
