<svg xmlns="http://www.w3.org/2000/svg" xmlns:xlink="http://www.w3.org/1999/xlink" width="213.726" height="214.033" viewBox="0 0 213.726 214.033">
  <defs>
    <linearGradient id="linear-gradient" x1="2.708" y1="1.956" x2="-0.495" y2="-0.076" gradientUnits="objectBoundingBox">
      <stop offset="0.428" stop-color="#a716e2"/>
      <stop offset="0.973" stop-color="#231ee3"/>
    </linearGradient>
  </defs>
  <path id="Path_63" data-name="Path 63" d="M6282.531,466.842v3.168q0,55.162,0,110.325c0,.956.023,1.915-.036,2.868a8.988,8.988,0,0,1-9.34,8.858c-11.1.03-22.209.009-33.314.009q-68.061,0-136.123-.02a13.408,13.408,0,0,1-4.335-.526,8.523,8.523,0,0,1-6-7.461,29.2,29.2,0,0,1-.124-3.523q-.01-55.273-.005-110.546v-3.1c-1.836,0-3.431.012-5.025,0-4.9-.043-7.152-2.273-7.159-7.139-.012-9.267.155-18.538-.068-27.8-.118-4.916,2.351-7.9,7.935-7.821,13.014.187,26.032.06,39.049.06h2.847c-.688-.642-1.051-1.033-1.466-1.359a25.025,25.025,0,0,1,16.5-44.763c6.322.3,12.076,2.468,16.3,7.255,4.7,5.335,9.128,10.95,13.293,16.718,3.909,5.414,7.322,11.187,10.952,16.8.432.669.857,1.343,1.469,2.3.588-.9,1.061-1.6,1.509-2.315,6.747-10.783,13.519-21.542,21.891-31.19,5.182-5.971,11.543-9.485,19.542-9.6a25.015,25.015,0,0,1,16.112,44.375,6.125,6.125,0,0,0-1.623,1.768h2.284q19.415,0,38.829,0c.882,0,1.768-.008,2.645.067a5.755,5.755,0,0,1,5.6,5.718q.12,15.553,0,31.11a5.711,5.711,0,0,1-5.587,5.723C6287.037,466.956,6284.975,466.842,6282.531,466.842ZM6169.409,585.968V476.807a5.431,5.431,0,0,0-1.345,1.988q-3.345,7.431-6.669,14.872c-.653,1.47-1.628,2.525-3.316,2.411s-2.462-1.3-2.93-2.852c-1.4-4.637-2.881-9.25-4.342-13.869-.23-.729-.522-1.439-.823-2.261-5.214,2.345-10.167,4.564-15.11,6.8-1.447.656-2.858.862-4.07-.381s-.981-2.645-.3-4.082q2.541-5.376,5.028-10.778c.228-.493.369-1.025.553-1.546h-36.76v1.96q0,56.255,0,112.508c0,3.516.892,4.385,4.471,4.386q31.653.008,63.305,0Zm37.307-109.247-.334.089V585.968h65.594c.514,0,1.03,0,1.543-.033a2.879,2.879,0,0,0,2.838-2.589,11.867,11.867,0,0,0,.1-2.2q.006-55.812,0-111.622v-2.461h-36.941c1.993,4.274,3.87,8.325,5.772,12.363.676,1.436.9,2.844-.306,4.082s-2.621,1.048-4.067.383q-4.7-2.165-9.425-4.279c-1.852-.832-3.717-1.635-5.711-2.51-.319.894-.584,1.562-.8,2.245-1.408,4.482-2.827,8.96-4.194,13.454-.5,1.633-1.127,3.142-3.077,3.271-1.931.127-2.795-1.213-3.494-2.8-2.125-4.84-4.319-9.649-6.493-14.466C6207.411,478.1,6207.054,477.416,6206.716,476.721ZM6175.8,464.014V585.767h24.183V464.014Zm-22.542-33.491H6087.34v30.212c3.074,0,5.994-.007,8.914,0,13.587.038,27.175.052,40.762.162a2.941,2.941,0,0,0,3.144-1.995c4.072-8.865,8.237-17.687,12.363-26.527C6152.792,431.8,6152.994,431.194,6153.258,430.523Zm135.252-.117H6222.5a10.836,10.836,0,0,0,.377,1.163c4.354,9.3,8.746,18.583,13.039,27.912.6,1.308,1.464,1.391,2.621,1.389q24.015-.022,48.03-.016c.629,0,1.259-.091,1.939-.143Zm-106.309-6.4a12.363,12.363,0,0,0-.687-1.444c-4.411-6.765-8.654-13.65-13.32-20.235a106.91,106.91,0,0,0-10.749-13.082c-5.413-5.519-13.87-6.563-20.847-3.238-6.847,3.262-11.319,10.745-10.779,18.034.6,8.111,5.6,14.871,13.191,16.964a72.988,72.988,0,0,0,15.108,2.8c9,.51,18.051.292,27.08.369A6.6,6.6,0,0,0,6182.2,424.01Zm11.08.032c.893.085,1.245.146,1.6.147q10.365.009,20.729.006a72.057,72.057,0,0,0,20.632-2.972c13.011-3.858,17.523-20.182,8.464-30.318a18.562,18.562,0,0,0-27.4-.744c-5.8,5.9-10.334,12.795-14.9,19.642C6199.354,414.375,6196.467,419.055,6193.281,424.042ZM6139.614,474.4l.355.387c.657-.259,1.325-.494,1.969-.782,2.611-1.169,5.209-2.367,7.823-3.528,3.022-1.343,4.434-.693,5.448,2.493,1,3.145,1.976,6.3,2.978,9.442.158.5.4.965.745,1.79,8.15-18.137,16.125-35.882,24.188-53.825-.947-.049-1.523-.105-2.1-.106-6.245-.006-12.49.053-18.733-.044a2.792,2.792,0,0,0-2.97,1.925c-4.8,10.387-9.679,20.741-14.526,31.107Q6142.191,468.828,6139.614,474.4Zm96.138.418.331-.35a8.687,8.687,0,0,0-.329-.986q-9.784-20.928-19.553-41.864a2.211,2.211,0,0,0-2.419-1.366c-6.537.032-13.075.014-19.612.022-.412,0-.824.088-1.481.163,8.072,17.957,16.047,35.7,24.182,53.8.341-.844.555-1.289.7-1.755,1-3.144,1.985-6.294,2.982-9.439,1.052-3.317,2.4-3.915,5.594-2.5S6232.551,473.4,6235.752,474.822Zm-37.517-17.116c-3.432-7.638-6.767-15.062-10.1-22.485l-.484.011-10.093,22.474Z" transform="translate(-6081 -378.044)" fill="url(#linear-gradient)"/>
</svg>
