<svg xmlns="http://www.w3.org/2000/svg" width="50.375" height="50.528" viewBox="0 0 50.375 50.528">
  <g id="Group_154" data-name="Group 154" transform="matrix(0.986, -0.168, 0.168, 0.986, -2307.353, -707.905)">
    <g id="Group_72" data-name="Group 72">
      <path id="Path_45" data-name="Path 45" d="M2199.576,1102.639l-3.583,21.015c-.028.03-.068.055-.083.091a4.547,4.547,0,0,1-5.315,2.983q-13.288-2.264-26.577-4.532a4.571,4.571,0,0,1-3.9-5.467q1.644-9.727,3.325-19.45a5.428,5.428,0,0,1,.541-1.61,4.518,4.518,0,0,1,4.964-2.267q13.058,2.223,26.114,4.452c.281.048.563.094.842.152a4.519,4.519,0,0,1,3.57,3.751C2199.523,1102.049,2199.543,1102.345,2199.576,1102.639Zm-35.4,12.072c1.919-1.362,3.732-2.651,5.547-3.936a5.784,5.784,0,0,1,.646-.419,3.182,3.182,0,0,1,4.076.976c.614.834,1.181,1.7,1.783,2.575.186-.155.308-.252.426-.354q3.741-3.2,7.481-6.392a3.209,3.209,0,0,1,5.147.863q2.025,3.375,4.046,6.753c.1.163.2.321.37.583l.09-.527q1.017-5.969,2.035-11.938c.152-.894-.091-1.237-.987-1.39l-26.4-4.5c-.907-.155-1.253.1-1.41,1.016q-1.377,8.079-2.755,16.157Z" fill="#1a1a1a"/>
      <path id="Path_46" data-name="Path 46" d="M2181.592,1136.31q-2.984-1.376-5.967-2.75-10.44-4.8-20.881-9.59a4.123,4.123,0,0,1-2.026-5.836q3.192-6.452,6.385-12.9a.634.634,0,0,1,.245-.293l-.076.45c-.643,3.769-1.312,7.533-1.919,11.307a6.9,6.9,0,0,0,5.746,8.125q7.486,1.269,14.973,2.551l10.46,1.783.5.085c-.1.217-.187.407-.282.592q-1.1,2.148-2.2,4.3a4.021,4.021,0,0,1-3.656,2.33,1.374,1.374,0,0,0-.208.038Z" fill="#1a1a1a"/>
      <path id="Path_47" data-name="Path 47" d="M2171.109,1106.73a3.647,3.647,0,1,1,4.2-2.994A3.672,3.672,0,0,1,2171.109,1106.73Z" fill="#1a1a1a"/>
    </g>
  </g>
</svg>
