<svg xmlns="http://www.w3.org/2000/svg" width="121.455" height="117.485" viewBox="0 0 121.455 117.485">
  <g id="Group_151" data-name="Group 151" transform="translate(-497.447 -667.002) rotate(9)">
    <path id="Path_212" data-name="Path 212" d="M713.352,622.98l-66.2,54.213a11.66,11.66,0,0,1-18.808-6.65L612.29,593.18a11.662,11.662,0,0,1,14.578-13.591l82.253,23.144a11.664,11.664,0,0,1,4.231,20.247Z" transform="matrix(1, 0.017, -0.017, 1, 11.087, -11.507)" fill="#fff"/>
    <path id="Path_213" data-name="Path 213" d="M623,587.43a3.413,3.413,0,0,0-1.644.857,3.454,3.454,0,0,0-1.033,3.226l16.055,77.362a3.468,3.468,0,0,0,2.233,2.557,3.519,3.519,0,0,0,3.333-.585l66.2-54.222a3.449,3.449,0,0,0-1.26-5.991L624.645,587.49A3.425,3.425,0,0,0,623,587.43Z" fill="#fff"/>
  </g>
</svg>
