<svg id="Layer_2" data-name="Layer 2" xmlns="http://www.w3.org/2000/svg" width="16.065" height="16.065" viewBox="0 0 16.065 16.065">
  <path id="Path_45473" data-name="Path 45473" d="M17.262,16.459H3.607V2.8A.8.8,0,1,0,2,2.8V17.262a.8.8,0,0,0,.8.8H17.262a.8.8,0,0,0,0-1.607Z" transform="translate(-2 -2)" fill="#fff"/>
  <path id="Path_45474" data-name="Path 45474" d="M7.607,14.246V10.229a.8.8,0,1,0-1.607,0v4.016a.8.8,0,0,0,1.607,0Zm3.213,0V7.016a.8.8,0,0,0-1.607,0v7.229a.8.8,0,0,0,1.607,0Zm3.213,0V5.41a.8.8,0,1,0-1.607,0v8.836a.8.8,0,1,0,1.607,0Zm3.213,0V3.8a.8.8,0,0,0-1.607,0V14.246a.8.8,0,0,0,1.607,0Z" transform="translate(-2.787 -2.197)" fill="#fff"/>
</svg>
