<svg xmlns="http://www.w3.org/2000/svg" width="14.081" height="14.081" viewBox="0 0 14.081 14.081">
  <path id="Path_45583" data-name="Path 45583" d="M9.04,2A7.04,7.04,0,1,1,2,9.04,7.04,7.04,0,0,1,9.04,2Zm0,9.974a.88.88,0,1,0,.88.88A.88.88,0,0,0,9.04,11.974Zm0-7.04A2.347,2.347,0,0,0,6.694,7.28a.587.587,0,0,0,1.173,0,1.173,1.173,0,1,1,2.347,0,1.362,1.362,0,0,1-.429,1.053l-.136.147-.31.316a2.549,2.549,0,0,0-.885,2,.587.587,0,0,0,1.173,0,1.362,1.362,0,0,1,.429-1.053l.136-.147.31-.316a2.549,2.549,0,0,0,.885-2A2.347,2.347,0,0,0,9.04,4.933Z" transform="translate(-2 -2)" fill="#212121"/>
</svg>
