<svg id="Group_49140" data-name="Group 49140" xmlns="http://www.w3.org/2000/svg" width="32.311" height="30.975" viewBox="0 0 32.311 30.975">
  <path id="Path_45508" data-name="Path 45508" d="M28.232,4.5v8.077H12.077V27.385H4V7.192A2.7,2.7,0,0,1,6.692,4.5Z" transform="translate(-4 -4.5)" fill="#4285f4"/>
  <path id="Path_45509" data-name="Path 45509" d="M22,29.577V21.5h8.077Z" transform="translate(2.232 1.385)" fill="#ea4435"/>
  <rect id="Rectangle_19371" data-name="Rectangle 19371" width="8" height="17" transform="translate(24.152 5.975)" fill="#ffba00"/>
  <rect id="Rectangle_19372" data-name="Rectangle 19372" width="8" height="16" transform="translate(24.152 22.975) rotate(90)" fill="#00ac47"/>
  <path id="Path_45510" data-name="Path 45510" d="M30.077,7.192v5.385H22V4.5h5.385A2.7,2.7,0,0,1,30.077,7.192Z" transform="translate(2.232 -4.5)" fill="#0066da"/>
  <path id="Path_45511" data-name="Path 45511" d="M12.077,21.5v8.077H6.692A2.7,2.7,0,0,1,4,26.885V21.5Z" transform="translate(-4 1.385)" fill="#188038"/>
  <path id="Path_45512" data-name="Path 45512" d="M16.988,18.548c0,1.2-.888,2.41-2.894,2.41a4.042,4.042,0,0,1-2.046-.525l-.108-.081.39-1.1.175.108a3.171,3.171,0,0,0,1.575.458,1.6,1.6,0,0,0,1.185-.417,1.156,1.156,0,0,0,.337-.875c-.013-.983-.915-1.333-1.764-1.333h-.727V16.1h.727c.606,0,1.508-.3,1.508-1.1,0-.606-.417-.956-1.144-.956a2.54,2.54,0,0,0-1.4.458l-.188.135-.377-1.064.094-.081a3.815,3.815,0,0,1,2.06-.606c1.6,0,2.315.983,2.315,1.952a1.934,1.934,0,0,1-1.09,1.75,2.046,2.046,0,0,1,1.373,1.965Z" transform="translate(-1.251 -1.599)" fill="#4285f4"/>
  <path id="Path_45513" data-name="Path 45513" d="M19.447,12.98V20.8H18.128V14.353l-1.265.687-.283-1.1,1.844-.956Z" transform="translate(0.355 -1.564)" fill="#4285f4"/>
</svg>
