<svg xmlns="http://www.w3.org/2000/svg" width="21.591" height="22.924" viewBox="0 0 21.591 22.924">
  <g id="Group_49140" data-name="Group 49140" transform="translate(0.111 -0.028)">
    <path id="Path_45471" data-name="Path 45471" d="M20.314,6.736l-.694-1.2a2.132,2.132,0,0,0-2.907-.786h0a2.122,2.122,0,0,1-2.907-.755,2.041,2.041,0,0,1-.286-1.02h0A2.132,2.132,0,0,0,11.388.778H9.99A2.122,2.122,0,0,0,7.868,2.91h0a2.132,2.132,0,0,1-2.132,2.1,2.04,2.04,0,0,1-1.02-.286h0a2.132,2.132,0,0,0-2.907.786L1.064,6.736a2.132,2.132,0,0,0,.775,2.907h0a2.132,2.132,0,0,1,0,3.693h0a2.122,2.122,0,0,0-.775,2.9h0l.7,1.214a2.132,2.132,0,0,0,2.907.826h0a2.112,2.112,0,0,1,2.9.775,2.04,2.04,0,0,1,.286,1.02h0A2.132,2.132,0,0,0,9.99,22.2h1.4A2.132,2.132,0,0,0,13.52,20.08h0a2.122,2.122,0,0,1,2.132-2.132,2.172,2.172,0,0,1,1.02.286h0a2.132,2.132,0,0,0,2.907-.775h0l.734-1.224a2.122,2.122,0,0,0-.775-2.907h0a2.122,2.122,0,0,1-.775-2.907,2.092,2.092,0,0,1,.775-.775h0a2.132,2.132,0,0,0,.775-2.9h0Z" transform="translate(0 0)" fill="none" stroke="#200e32" stroke-linecap="round" stroke-linejoin="round" strokeWidth="1.5" fillRule="evenodd"/>
    <circle id="Ellipse_1604" data-name="Ellipse 1604" cx="2.938" cy="2.938" r="2.938" transform="translate(7.756 8.552)" fill="none" stroke="#200e32" stroke-linecap="round" stroke-linejoin="round" strokeWidth="1.5"/>
  </g>
</svg>
