<svg xmlns="http://www.w3.org/2000/svg" width="19.365" height="20.541" viewBox="0 0 19.365 20.541">
  <g id="Group_49140" data-name="Group 49140" transform="translate(0.878 0.75)">
    <path id="Path_45471" data-name="Path 45471" d="M18.142,6.073,17.525,5a1.9,1.9,0,0,0-2.584-.7h0a1.886,1.886,0,0,1-2.584-.671,1.814,1.814,0,0,1-.254-.907h0A1.9,1.9,0,0,0,10.208.778H8.966a1.886,1.886,0,0,0-1.886,1.9h0a1.9,1.9,0,0,1-1.9,1.868,1.814,1.814,0,0,1-.907-.254h0a1.9,1.9,0,0,0-2.584.7L1.032,6.073a1.9,1.9,0,0,0,.689,2.584h0a1.9,1.9,0,0,1,0,3.282h0a1.886,1.886,0,0,0-.689,2.575h0l.626,1.079a1.9,1.9,0,0,0,2.584.734h0a1.877,1.877,0,0,1,2.575.689,1.813,1.813,0,0,1,.254.907h0a1.9,1.9,0,0,0,1.9,1.895h1.242A1.9,1.9,0,0,0,12.1,17.933h0A1.886,1.886,0,0,1,14,16.038a1.93,1.93,0,0,1,.907.254h0a1.9,1.9,0,0,0,2.584-.689h0l.653-1.088a1.886,1.886,0,0,0-.689-2.584h0a1.886,1.886,0,0,1-.689-2.584,1.859,1.859,0,0,1,.689-.689h0a1.9,1.9,0,0,0,.689-2.575h0Z" transform="translate(-0.779 -0.778)" fill="none" stroke="#fff" stroke-linecap="round" stroke-linejoin="round" strokeWidth="1.5" fillRule="evenodd"/>
    <circle id="Ellipse_1604" data-name="Ellipse 1604" cx="2.611" cy="2.611" r="2.611" transform="translate(6.202 6.909)" fill="none" stroke="#fff" stroke-linecap="round" stroke-linejoin="round" strokeWidth="1.5"/>
  </g>
</svg>
