<svg id="Group_49140" data-name="Group 49140" xmlns="http://www.w3.org/2000/svg" width="33.141" height="37.293" viewBox="0 0 33.141 37.293">
  <g id="Group_48768" data-name="Group 48768">
    <path id="Path_45490" data-name="Path 45490" d="M31.737,33.941a.621.621,0,0,1-1.064-.443.593.593,0,0,1,.192-.458.578.578,0,0,1,.429-.163.606.606,0,0,1,.621.621.507.507,0,0,1-.177.443m-.8-.813a.48.48,0,0,0-.148.355.517.517,0,1,0,1.035,0,.458.458,0,0,0-.148-.355.5.5,0,0,0-.37-.163.567.567,0,0,0-.37.163m.562.68a.284.284,0,0,1-.177.059.346.346,0,0,1-.251-.1.356.356,0,0,1-.1-.266.413.413,0,0,1,.089-.266.3.3,0,0,1,.251-.1.394.394,0,0,1,.177.044.305.305,0,0,1,.148.237h-.163c-.015-.044-.03-.089-.059-.1a.21.21,0,0,0-.089-.03.134.134,0,0,0-.118.059.315.315,0,0,0-.044.177.238.238,0,0,0,.044.163.182.182,0,0,0,.118.059.214.214,0,0,0,.1-.03l.044-.089h.148a.289.289,0,0,1-.118.192m1.567-6.563c0-.059-.015-.118-.015-.177s-.015-.074-.015-.1a1.546,1.546,0,0,0-.059-.251,1.431,1.431,0,0,0-.266-.458,1.48,1.48,0,0,0-.384-.31,2.019,2.019,0,0,0-.414-.148c-.044,0-.074-.015-.1-.015a2.188,2.188,0,0,0-.177-1.508l.03-.03a6.751,6.751,0,0,0,.458-.5l.03-.03a1.616,1.616,0,0,0,.207-.429,1.379,1.379,0,0,0,.059-.325v-.281a2.13,2.13,0,0,0-.192-.813,2.091,2.091,0,0,0-.31-.458,1.812,1.812,0,0,0-.488-.384c-.015-.015-.03-.015-.044-.03a7.209,7.209,0,0,0-1.242-1.375c-.207-.177-.4-.325-.562-.443s-.3-.207-.37-.266a2.553,2.553,0,0,0-.37-.237,3.628,3.628,0,0,1-.31-.207,1.088,1.088,0,0,0-.089-.074.114.114,0,0,0-.015-.044.728.728,0,0,1-.015-.207c0-.148,0-.37.015-.665.03-.473.074-1.109.133-1.981.015-.281.015-.547.015-.783a5.765,5.765,0,0,0-.148-1.079c-.015-.074-.044-.148-.059-.222a.5.5,0,0,0-.044-.118,1.019,1.019,0,0,0-.059-.148c-.015-.03-.015-.059-.044-.089a1.492,1.492,0,0,0-.1-.222l-.015-.015-.015-.044-.015-.03a2.165,2.165,0,0,0-.251-.355,5.4,5.4,0,0,0-.251-.843,4.818,4.818,0,0,0-.488-.946,2.719,2.719,0,0,0-.251-.325l.03-.03a15.171,15.171,0,0,0,1.907-2.557c1.523-2.646,1.02-4.257.325-5.144l-.015-.03-.015-.03a4.264,4.264,0,0,0-2.69-1.33,11.553,11.553,0,0,0-5.647,1.183L19.453.947a2.533,2.533,0,0,0-.37-.325A4.072,4.072,0,0,0,18.654.37,3.388,3.388,0,0,0,17.679.1a6.356,6.356,0,0,0-2.35.222A16.326,16.326,0,0,0,11.1,2.2,28.991,28.991,0,0,0,6.5,5.662,27.433,27.433,0,0,0,1.98,10.851,15.332,15.332,0,0,0,.62,13.319a8.41,8.41,0,0,0-.65,2.217,4.017,4.017,0,0,0,.044,1.4,2.677,2.677,0,0,0,.591,1.153l1.316,1.375.148.148-.015.015-.044.089a.825.825,0,0,1-.074.118l-.044.089c-.015.044-.044.089-.059.133l-.044.089c-.015.044-.044.089-.059.133a.21.21,0,0,0-.03.089l-.044.133c-.015.03-.015.059-.03.089s-.03.089-.044.148c0,.015-.015.03-.015.044s-.015.03-.015.044c-.015.044-.03.1-.044.148s-.015.059-.015.089-.015.044-.015.059-.015.059-.015.089-.015.059-.015.089c-.015.059-.015.118-.03.192a.112.112,0,0,1-.015.059v.015c0,.044-.015.089-.015.118,0,.059-.015.133-.015.192v.739a.188.188,0,0,0,.015.089.367.367,0,0,0,.015.118v.044c0,.03.015.074.015.1s.015.059.015.1a.054.054,0,0,0,.015.044c0,.015.015.044.015.059v.03a.665.665,0,0,0,.03.118c0,.015,0,.015.015.03a.161.161,0,0,1,.015.074l.015.03c0,.015,0,.015.015.03l.015.03v.044c0,.015,0,.015.015.03l.015.03c0,.03.015.044.015.074a.671.671,0,0,1,.03.118v0c0,.015,0,.015.015.03a.581.581,0,0,1,.03.089.5.5,0,0,1,.044.118l.015.015c.015.03.015.059.03.074l.015.03c0,.015.015.03.015.044a.112.112,0,0,0,.03.059l.015.03c.015.015.015.044.03.059a.054.054,0,0,1,.015.044.721.721,0,0,1,.044.1l.015.015c.015.015.015.03.03.044s.015.044.03.059a.241.241,0,0,1,.044.089l.015.015c.015.015.015.03.03.044s.03.044.03.059a.323.323,0,0,1,.044.074v.015c.015.015.015.03.03.044a.2.2,0,0,0,.044.059.876.876,0,0,1,.059.089c.015.015.03.03.03.044a.2.2,0,0,0,.044.059.323.323,0,0,1,.044.074c.015.015.03.044.044.059a.115.115,0,0,0,.059.059l.044.044.015.015c.03.03.044.059.074.089l.03.03.044.044.089.089.03.03L2.9,25.8l.015.015a.683.683,0,0,1,.1.1l.015.015c.015.015.03.015.044.044.044.044.089.074.133.118l.03.015.015.015.03.015c.044.03.074.059.118.089l.015.015a.046.046,0,0,0,.03.015l.03.03c.03.03.059.044.089.074l.03.015.03.03.015.015c.03.015.074.044.1.059a.077.077,0,0,0,.059.03l.03.015.015.015h.015a1.3,1.3,0,0,1,.148.089l.03.015.177.089h.015l.03.015.089.044c.015,0,.03.015.044.015s.03.015.059.03h.015a.21.21,0,0,0,.089.03h.015a.721.721,0,0,0,.1.044h.015l.03.015c.015,0,.03.015.044.015h.015c.044.015.089.03.148.044h.015a1.232,1.232,0,0,0,.222.059h.015c.059.015.133.03.192.044h.059a.742.742,0,0,0,.177.03h.059c.044,0,.074.015.118.015,0,.015.015.03.015.044.1.281.207.562.325.828a14.926,14.926,0,0,0,12.092,9.283c5.514.68,11.412-2.986,13.807-7.938.1-.192.192-.37.281-.562a2.841,2.841,0,0,0,.547-.769.962.962,0,0,0,.222-.769M2.453,25.323h0" transform="translate(0.07 -0.07)" fill="#664f44"/>
  </g>
  <path id="Path_45491" data-name="Path 45491" d="M33.826,8.633a2.9,2.9,0,0,0-.917-.68.732.732,0,0,0-.192-.059c-.03-.015-.059-.044-.089-.059A3.914,3.914,0,0,0,31.7,7.6a9.738,9.738,0,0,0-4.464.8c-.059.03-.118.044-.177.074-.089.044-.177.074-.266.118-.148.059-.3.133-.458.207-.03.015-.044.015-.074.03L25.976,8.5l-.133-.148-.118-.133-.044-.059L24.6,6.918l-.089-.1-.118-.133H24.38l-.31.074-.355.074a2.775,2.775,0,0,0-.695-.192,5.449,5.449,0,0,0-1.981.192,12.858,12.858,0,0,0-2.557.99,26.431,26.431,0,0,0-5.869,4.124c-.695.621-1.33,1.271-1.922,1.907S9.6,15.108,9.124,15.714a17.345,17.345,0,0,0-2.158,3.563,7.54,7.54,0,0,0-.577,1.966,2.859,2.859,0,0,0,.03,1.079c.03.1.059.177.089.266a1.59,1.59,0,0,0,.281.458l1.2,1.256.133.133.015-.015a.45.45,0,0,1,.118-.118l.015-.015.044-.044c.03-.044.074-.074.1-.118a.26.26,0,0,1,.074-.059c.03-.015.044-.044.074-.059l.03-.03c.03-.015.044-.044.074-.059s.074-.059.1-.089.044-.03.059-.044h.015c.044-.03.074-.059.118-.089a.259.259,0,0,0,.074-.059c.044-.03.074-.059.118-.089s.044-.03.074-.044a.6.6,0,0,1,.133-.074c.03-.015.044-.03.074-.044s.089-.044.133-.074.044-.03.074-.044l.03-.015c.044-.015.074-.044.118-.059.015-.015.044-.015.059-.03a.721.721,0,0,1,.1-.044l.089-.044.03-.015.222-.089c.03-.015.044-.015.074-.03s.044-.015.074-.03l.03-.015c.015,0,.03-.015.044-.015a.942.942,0,0,1,.1-.03h.03c.044-.015.074-.015.118-.03s.074-.015.1-.03.089-.015.133-.03c.015,0,.03-.015.059-.015a.089.089,0,0,0,.059-.015.409.409,0,0,1,.133-.015c.044,0,.074-.015.118-.015s.059-.015.089-.015h.118c.148,0,.325,0,.5.015h.03a4.791,4.791,0,0,1,.591.089c.044.015.1.015.148.03.015-.015.015-.044.03-.059.118-.192.222-.4.34-.591a22.436,22.436,0,0,1,2.1-2.942c.251-.3.5-.562.754-.828a19.6,19.6,0,0,1,3.045-2.587c.207-.148.429-.281.621-.414.281-.177.547-.325.8-.473.207-.118.4-.222.591-.31q.466-.244.843-.4l.222-.089c.1-.044.207-.089.3-.118A1.272,1.272,0,0,0,22.251,14h-.3a1.272,1.272,0,0,0-.237.015l-.473.044c-.059.015-.1.015-.163.03a7.446,7.446,0,0,1,1.168-.473c.251-.074.5-.133.739-.177a7.426,7.426,0,0,1,.917-.118c.192-.015.37-.015.532-.015s.325.015.458.015a4.744,4.744,0,0,1,.783.1,1.348,1.348,0,0,0-.251-.251,2.484,2.484,0,0,0-.547-.3c-.074-.03-.133-.044-.192-.074a.457.457,0,0,0-.118-.03,1.474,1.474,0,0,1,.237-.03c.089-.015.163-.015.251-.03a7.317,7.317,0,0,1,1.774.074,5.46,5.46,0,0,1,.887.237,1.381,1.381,0,0,0-.325-.4,3.41,3.41,0,0,0-.281-.207c.192.044.355.089.532.148a8.777,8.777,0,0,1,1.109.429l.266.133c.03.015.044.03.059.03.266.148.414.251.414.251a1.112,1.112,0,0,0-.251-.443c-.03-.03-.059-.074-.089-.1h.015c.015,0,.03.015.059.015a.25.25,0,0,1,.074.03,5.387,5.387,0,0,1,.5.222c.015,0,.015.015.03.015l.089.044a1.76,1.76,0,0,1,.222.133l.222.133c.044.03.074.044.118.074a2.7,2.7,0,0,1,.237.192c.089.074.163.148.237.222l.044.044a1.772,1.772,0,0,1,.163.177,3.66,3.66,0,0,1,.281.384,3.086,3.086,0,0,1,.251.547c0,.015,0,.03.015.03.044-.044.133-.133.237-.251.857-1.005,3.429-4.257,1.877-6.238" transform="translate(-5.404 -5.643)" fill="#132134"/>
  <g id="Group_48769" data-name="Group 48769" transform="translate(2.316 9.347)">
    <path id="Path_45492" data-name="Path 45492" d="M45.534,81.231a.753.753,0,0,0-.089-.429.052.052,0,0,0-.015-.03l-.015-.015-.044-.044a.643.643,0,0,0-.1-.089.323.323,0,0,0-.074-.044,1.015,1.015,0,0,0-.251-.074,1.2,1.2,0,0,0-.237-.015h-.118v.03c0,.015.015.03.015.059s0,.03.015.03c.015.044.03.118.044.177a.114.114,0,0,1-.015.044v.015a2.385,2.385,0,0,1-.429.636,1.472,1.472,0,0,1-.148.163c-.739.769-2.336,1.848-5.706,2.454a11.539,11.539,0,0,1-3.089.059,4.325,4.325,0,0,1-2.794-1.168c-.044-.044-.074-.1-.118-.148s-.044-.074-.074-.118c-.015-.015-.015-.03-.03-.044a2.33,2.33,0,0,1-.281-1.109,2.077,2.077,0,0,1,.384-1.212,1.424,1.424,0,0,1,.754-.562,1.263,1.263,0,0,1,.473-.059.509.509,0,0,1,.133.015c.1.015.266.03.458.059a.089.089,0,0,1,.059.015,15.783,15.783,0,0,0,2.853.1,12.481,12.481,0,0,0,7.775-3.223v-.015a1.151,1.151,0,0,0-.266-.843,1.332,1.332,0,0,0-.148-.133c-.03-.03-.074-.044-.1-.074a.643.643,0,0,1-.1-.059l-.133-.089v-.015a.309.309,0,0,0-.059-.089,7.34,7.34,0,0,0-2.01-1.922,2.173,2.173,0,0,0-.3-.192c-.813-.5-.931-.665-.857-2.01.03-.488.074-1.123.133-2,0-.118.015-.222.015-.325v-.429c0-.074-.015-.148-.015-.207a.187.187,0,0,0-.015-.089C41,68.149,41,68.075,40.981,68c0-.03-.015-.074-.015-.1a.348.348,0,0,0-.03-.118c-.015-.03-.015-.074-.03-.1a.432.432,0,0,1-.03-.133c0-.015-.015-.03-.015-.044s-.015-.03-.015-.044v-.015l-.015-.044a.21.21,0,0,1-.03-.089v-.015l-.015-.03-.015-.03a1.734,1.734,0,0,0-.074-.163l-.015-.044c-.03-.044-.059-.1-.089-.148l-.015-.015-.015-.015c-.03-.03-.044-.059-.074-.089l-.03-.044a.643.643,0,0,0-.089-.1v-.118c-.015-.059-.03-.133-.044-.207,0-.015-.015-.044-.015-.059v-.015c0-.03-.015-.044-.015-.074a.834.834,0,0,0-.059-.177c0-.015-.015-.044-.015-.059l-.044-.133c-.015-.03-.015-.059-.03-.074a.525.525,0,0,0-.059-.133l-.044-.089c-.015-.044-.044-.089-.059-.133l-.044-.089c-.03-.044-.044-.089-.074-.133l-.044-.089a1.3,1.3,0,0,1-.089-.148c-.015-.03-.03-.044-.044-.074s-.03-.044-.044-.059c-.044-.044-.074-.089-.118-.133L39.5,64.6a1.685,1.685,0,0,0-.163-.163l-.015-.015a.322.322,0,0,1-.074-.059h-.015c-.03-.015-.044-.03-.074-.044l-.015-.015c-.03-.015-.074-.044-.133-.074-.015-.015-.044-.015-.074-.03-.133-.044-.3-.1-.5-.163a.054.054,0,0,1-.044-.015,4.647,4.647,0,0,0-.562-.118c-.074-.015-.133-.015-.207-.03a.289.289,0,0,1-.1-.015h-.044c-.163-.015-.31-.03-.473-.03H36.99a2.72,2.72,0,0,0-.606.059,1.03,1.03,0,0,1,.3-.237,3.247,3.247,0,0,1,.31-.148,1.629,1.629,0,0,0-.266.03c-.03,0-.059.015-.089.015a.089.089,0,0,0-.059.015h-.015a.054.054,0,0,0-.044.015,7.633,7.633,0,0,0-1.153.37l-.089.044H35.26a.133.133,0,0,0-.074.015,1.31,1.31,0,0,1,.65-.606c.03-.015.074-.03.1-.044s.015,0,.03-.015.059-.015.074-.03a.259.259,0,0,1,.074-.015h-.237a3.525,3.525,0,0,0-1.345.443,5.377,5.377,0,0,0-.71.473.629.629,0,0,1-.163.03c-.562.118-1.2.266-1.863.473-.251.074-.5.163-.754.251-.192.074-.4.148-.591.222-.148.059-.281.118-.429.177a10.082,10.082,0,0,0-2.883,1.877l-.089.089-.222.222-.089.089a.845.845,0,0,1-.1.118,6.038,6.038,0,0,0-.458.577,5.1,5.1,0,0,0-.3.473l-.015.015a6.173,6.173,0,0,0-.5,1.094c-.074.192-.133.4-.192.606-.015.059-.03.1-.044.163l-.015.03a5.248,5.248,0,0,0-.133.695c0,.044-.015.089-.015.148a2.88,2.88,0,0,0-.03.37,2.617,2.617,0,0,0-.015.34v.458a3.6,3.6,0,0,0,.015.4v.015c0,.133.015.266.03.414,0,.059.015.118.015.177v.044a.289.289,0,0,0,.015.1c.015.148.044.31.059.473,0,.044.015.089.015.133.03.133.044.281.074.414a2.224,2.224,0,0,1-.015-.443c0-.059.015-.133.015-.192a2.061,2.061,0,0,1,.1-.488l.044-.133c0-.015.015-.03.03-.059a1.764,1.764,0,0,1,.118-.237c.015.059.015.118.03.163V74.3a10.272,10.272,0,0,0,.163,1.626s.015-.931.177-1.05a18.414,18.414,0,0,0,.532,2.395.746.746,0,0,0,.1.192v-.177l-.03-.961v-.1c.192.4.414.8.665,1.227.074.118.133.237.207.355a5.206,5.206,0,0,0-1.242,1.73c-.044.118-.1.237-.148.355-.03.074-.044.133-.074.207,0,.015-.015.044-.015.059-.015.044-.03.1-.044.148s-.015.044-.015.074-.03.1-.044.148-.015.044-.015.074l-.044.222a1.141,1.141,0,0,0-.03.222.133.133,0,0,1-.015.074c0,.059-.015.1-.015.163a.187.187,0,0,1-.015.089c0,.059-.015.1-.015.163v.517a.909.909,0,0,0,.015.192v.044a1.474,1.474,0,0,0,.03.237.133.133,0,0,0,.015.074.629.629,0,0,0,.03.163c0,.03.015.059.015.089s.015.1.03.148.015.059.015.089a.437.437,0,0,1,.03.148.942.942,0,0,1,.03.1c.015.044.03.1.044.148s.015.059.03.089.03.1.044.148.015.059.03.089c.015.059.044.118.059.163s.015.044.03.074l.222.488c.015.03.03.044.044.074l.089.177a.309.309,0,0,0,.059.089c.03.044.059.1.089.148s.044.059.059.089a.9.9,0,0,0,.1.148.626.626,0,0,1,.074.1c.03.044.074.1.1.148a.626.626,0,0,1,.074.1c.044.044.074.1.118.148s.044.059.074.089a1.472,1.472,0,0,0,.148.163l.074.074c.074.074.148.163.222.237a1.27,1.27,0,0,1-.1-.177.113.113,0,0,1-.03-.074l-.044-.089a.721.721,0,0,1-.044-.1,2.481,2.481,0,0,1-.207-1.064l.133.177c.044.1.118.237.192.384a.691.691,0,0,1,.074.148c.118.207.237.443.384.665.177.281.355.547.547.8a5.323,5.323,0,0,1-.3-.783.535.535,0,0,1-.015-.207c.015.015.03.044.059.059s.03.044.059.059q.044.067.133.177l.03.03c.03.03.044.074.074.1a.812.812,0,0,0,.1.133,12.9,12.9,0,0,0,1.035,1.212,1.622,1.622,0,0,0,.251.192l-.429-.769c.976.8,5.026,1.818,9,.68a10.4,10.4,0,0,0,1.434-.517c.281-.118.562-.266.843-.414l.044-.03c.192-.1.384-.222.577-.34.148-.089.3-.192.429-.281q.355-.244.71-.532c.015-.015.03-.03.044-.03a8.272,8.272,0,0,0,.636-.606,8.945,8.945,0,0,0,.71-.843l.015-.015a1.8,1.8,0,0,0,.148-.207l.015-.015c.015-.03.03-.044.044-.074.074-.1.133-.192.207-.3.015-.03.03-.044.044-.074a1,1,0,0,1,.1-.163c.03-.044.044-.074.074-.118a.6.6,0,0,0,.074-.133c.044-.074.089-.163.133-.237l.044-.089.089-.177.044-.089.015-.03c.03-.074.074-.148.1-.222v-.015a3.092,3.092,0,0,0,.31-.34c.015-.015.03-.03.03-.044a2.433,2.433,0,0,0,.148-.71M21.749,78.363a.112.112,0,0,0-.015-.059,6.668,6.668,0,0,1-.1-.783v-.059c-.044.015-.089.074-.148.148a.643.643,0,0,0-.059.1,4.828,4.828,0,0,0-.251.606,2.871,2.871,0,0,0,.03-.355V77.92c.015-.118.03-.251.044-.37v-.044a3.438,3.438,0,0,1,.074-.414.112.112,0,0,1,.015-.059v-.015a.054.054,0,0,1,.015-.044c0-.03.015-.044.015-.074.015-.1.044-.207.059-.31s.03-.177.044-.251v-.03c0-.015,0-.03.015-.03v-.03c0-.015.015-.044.015-.059a.054.054,0,0,1,.015-.044.64.64,0,0,1,.015-.074c0-.015.015-.044.015-.059a.64.64,0,0,1,.015-.074.054.054,0,0,1,.015-.044c0-.015,0-.03.015-.03,0-.03.015-.044.015-.059v-.044l-.03.03c-.03.015-.044.044-.074.059l-.03.03a.392.392,0,0,0-.074.089l-.015.015-.089.133-.015.015c0,.015-.015.015-.015.03l-.044.089v.03c-.015.044-.044.089-.059.133-.044.118-.089.237-.118.34-.015.03-.015.074-.03.089a1.2,1.2,0,0,0-.03.133v0A.325.325,0,0,1,21,76.855c0-.074.015-.163.015-.237a.865.865,0,0,1,.03-.192.089.089,0,0,1,.015-.059c0-.03.015-.059.015-.089s.015-.059.015-.089v-.044c0-.03.015-.074.015-.1v-.1a.054.054,0,0,1,.015-.044.525.525,0,0,0,.03-.148v-.015c.015-.03.015-.074.03-.1v-.015c.015-.074.044-.148.059-.222v-.03a.054.054,0,0,1,.015-.044c.03-.118.074-.237.1-.34v-.015c.03-.089.074-.192.1-.281v-.015c.015-.044.03-.074.044-.118s.044-.118.074-.177a.385.385,0,0,1,.044-.1c.015-.015.015-.044.03-.059a.721.721,0,0,0,.044-.1l.015-.03.251-.458c.015-.015.015-.044.03-.059v-.015l.015-.03c.03-.044.059-.1.089-.148.044-.074.074-.148.118-.207.074-.133.133-.251.177-.31a.158.158,0,0,1,.044-.074c-.015,0-.089-.059-.207-.133a6.808,6.808,0,0,0-.606-.325c-.089-.044-.163-.074-.251-.118s-.222-.089-.34-.133c-.03-.015-.059-.015-.089-.03-.1-.03-.192-.059-.3-.089-.074-.015-.148-.03-.207-.044s-.118-.015-.177-.03a1074.342,1074.342,0,0,0-.177-.03c-.074,0-.163-.015-.237-.015h-.118a2.765,2.765,0,0,0-.5.044h-.03a4.3,4.3,0,0,0-.857.222c-.089.03-.177.074-.281.118-.03.015-.044.03-.074.03l-.089.044a4.184,4.184,0,0,0-.754.5h-.015a3.826,3.826,0,0,0-.547.547l-.133.177a1.927,1.927,0,0,0-.148.222,4.072,4.072,0,0,0-.251.429.792.792,0,0,0-.074.163c0,.015-.015.015-.015.03a4.08,4.08,0,0,0-.31,1.123c-.015.074-.015.148-.03.237v.03c0,.059-.015.118-.015.192V76.2a.72.72,0,0,0,.015.177v.074c0,.044.015.089.015.133V76.6a.133.133,0,0,0,.015.074c0,.044.015.089.015.118s.015.059.015.089.015.074.03.118a.21.21,0,0,0,.03.089v.015l.015.03v.03l.015.03c.015.03.015.059.03.089s.015.074.03.1a.214.214,0,0,1,.03.1l.015.03c.015.03.015.044.03.074a.721.721,0,0,1,.044.1l.044.089c.015.015.015.03.03.044s.015.03.03.044l.044.089a.37.37,0,0,0,.059.1.323.323,0,0,0,.044.074c.015.03.044.074.059.1s.03.044.044.074a.449.449,0,0,0,.074.1.2.2,0,0,0,.044.059c.03.03.044.074.074.1s.03.044.044.059.059.074.089.1a.2.2,0,0,1,.044.059c.03.03.059.074.089.1l.044.044a.683.683,0,0,0,.1.1l.044.044.1.1c.015.015.03.03.044.03.03.03.074.059.118.1.015.015.03.015.044.03.044.03.074.059.118.089.015.015.03.015.03.03l.133.089.03.015.133.089.03.015c.044.03.1.059.148.089l.03.015a.691.691,0,0,0,.148.074l.03.015c.059.03.1.044.163.074l.015.015a1.734,1.734,0,0,1,.163.074h.015c.059.015.118.044.177.059h.015c.03.015.059.015.089.03a.94.94,0,0,0,.1.03h.015c.059.015.133.03.192.044a.865.865,0,0,0,.192.03c.207.03.414.044.621.059h.148a.976.976,0,0,0,.207-.015c.089-.015.192-.015.3-.03s.177-.03.251-.044a2.916,2.916,0,0,0,.384-.1,2.653,2.653,0,0,0,.917-.414s-.133-.591-.237-1.183a.343.343,0,0,1-.059-.148" transform="translate(-15.6 -63.3)" fill="#90694c"/>
  </g>
  <path id="Path_45493" data-name="Path 45493" d="M23.445,8,23.4,7.41l.3-.65.118-.03a2.775,2.775,0,0,0-.695-.192,5.449,5.449,0,0,0-1.981.192,12.858,12.858,0,0,0-2.557.99,26.43,26.43,0,0,0-5.869,4.124c-.695.621-1.33,1.271-1.922,1.907S9.7,15.008,9.224,15.614a17.345,17.345,0,0,0-2.158,3.563,7.54,7.54,0,0,0-.577,1.966,2.859,2.859,0,0,0,.03,1.079c.03.1.059.177.089.266a1.59,1.59,0,0,0,.281.458l1.2,1.256.133.133.015-.015a.45.45,0,0,1,.118-.118l.015-.015.044-.044c.03-.044.074-.074.1-.118a.26.26,0,0,1,.074-.059c.03-.015.044-.044.074-.059l.03-.03c.03-.015.044-.044.074-.059s.074-.059.1-.089.044-.03.059-.044h.015c.044-.03.074-.059.118-.089a.259.259,0,0,0,.074-.059c.044-.03.074-.059.118-.089s.044-.03.074-.044a.6.6,0,0,1,.133-.074c.03-.015.044-.03.074-.044s.089-.044.133-.074.044-.03.074-.044l.03-.015a13.139,13.139,0,0,1,1.271-2.543,24.672,24.672,0,0,1,2.587-3.4,29.053,29.053,0,0,1,2.129-2.143,31.4,31.4,0,0,1,3.016-2.424c.68-.473,1.345-.9,2-1.271.059-.03.118-.074.192-.1.177-.1.34-.192.517-.281.37-.192.739-.37,1.094-.517l-.177-.207-.03-.03-.222-.251L20.917,8.5l.015-1.064-.015-.015.872-.266L23.445,8" transform="translate(-5.489 -5.557)" fill="#2f83c1"/>
  <g id="Group_48770" data-name="Group 48770" transform="translate(4.882 12.333)">
    <path id="Path_45494" data-name="Path 45494" d="M60.324,98.445a.753.753,0,0,0-.089-.429.052.052,0,0,0-.015-.03l-.015-.015-.044-.044a.643.643,0,0,0-.1-.089.323.323,0,0,0-.074-.044,1.015,1.015,0,0,0-.251-.074,1.2,1.2,0,0,0-.237-.015h-.118v.03c0,.015.015.03.015.059s0,.03.015.03c.015.044.03.118.044.177a.114.114,0,0,1-.015.044v.015a2.385,2.385,0,0,1-.429.636,1.472,1.472,0,0,1-.148.163c-.739.769-2.336,1.848-5.706,2.454a11.539,11.539,0,0,1-3.089.059,4.325,4.325,0,0,1-2.794-1.168c-.044-.044-.074-.1-.118-.148s-.044-.074-.074-.118c-.015-.015-.015-.03-.03-.044a2.33,2.33,0,0,1-.281-1.109,2.077,2.077,0,0,1,.384-1.212,1.424,1.424,0,0,1,.754-.562,1.263,1.263,0,0,1,.473-.059.509.509,0,0,1,.133.015c.1.015.266.03.458.059a.089.089,0,0,1,.059.015,15.782,15.782,0,0,0,2.853.1,12.481,12.481,0,0,0,7.775-3.223v-.015a1.151,1.151,0,0,0-.266-.843,1.332,1.332,0,0,0-.148-.133c-.03-.03-.074-.044-.1-.074a.643.643,0,0,1-.1-.059l-.133-.089v-.015a.309.309,0,0,0-.059-.089,7.34,7.34,0,0,0-2.01-1.922,2.174,2.174,0,0,0-.3-.192c-.813-.5-.931-.665-.857-2.01.03-.488.074-1.123.133-2,0-.118.015-.222.015-.325v-.429c0-.074-.015-.148-.015-.207a.187.187,0,0,0-.015-.089c-.015-.074-.015-.148-.03-.222,0-.03-.015-.074-.015-.1a.348.348,0,0,0-.03-.118c-.015-.03-.015-.074-.03-.1a.432.432,0,0,1-.03-.133c0-.015-.015-.03-.015-.044s-.015-.03-.015-.044v-.015l-.015-.044a.21.21,0,0,1-.03-.089v-.015l-.015-.03-.015-.03a1.735,1.735,0,0,0-.074-.163l-.015-.044c-.03-.044-.059-.1-.089-.148l-.015-.015-.015-.015c-.03-.03-.044-.059-.074-.089l-.03-.044a.643.643,0,0,0-.089-.1l-.118-.118a.6.6,0,0,0-.133-.074.054.054,0,0,0-.044-.015l-.089-.044c-.015,0-.03-.015-.044-.015s-.059-.015-.074-.03-.03-.015-.059-.015-.044-.015-.074-.015H54.2a226.419,226.419,0,0,0-.089.03.376.376,0,0,0-.1.03h-.03c-.089.03-.163.059-.251.089l-.03.015a.721.721,0,0,1-.1.044l-.044.015-.089.044-.044.03-.089.044-.044.03c-.03.015-.059.044-.089.059l-.03.015c-.03.03-.074.044-.1.074l-.015.015a.519.519,0,0,1-.118.074c-.074.044-.148.1-.222.148a2.162,2.162,0,0,1-.192.133l-.03.015a1.35,1.35,0,0,1-.192.118l-.03.015c-.059.044-.133.074-.192.118l-.03.015a.9.9,0,0,1-.207.1l-.03.015c-.074.03-.133.059-.207.089l-.03.015c-.074.03-.148.044-.222.074h-.015l-.237.044a3.9,3.9,0,0,1-.414.03,5.427,5.427,0,0,1-.68-.044l-.222-.044a.64.64,0,0,1-.074-.015c-.192-.044-.4-.089-.591-.133-.089-.015-.163-.044-.251-.059-.133-.03-.266-.059-.414-.089a.64.64,0,0,1-.074-.015c-.015,0-.044-.015-.059-.015s-.059-.015-.089-.015-.059-.015-.089-.015h-.03a.64.64,0,0,1-.074-.015.749.749,0,0,0-.192-.03.089.089,0,0,1-.059-.015c-.044,0-.089-.015-.133-.015a.133.133,0,0,1-.074-.015c-.044,0-.074-.015-.118-.015h-.68c-.074,0-.133.015-.207.015h-.059c-.044,0-.089.015-.133.015H46.37c-.03,0-.044.015-.074.015s-.089.015-.133.03a.64.64,0,0,0-.074.015.432.432,0,0,1-.133.03c-.03,0-.044.015-.074.03s-.1.03-.148.044-.044.015-.059.03c-.074.03-.148.059-.207.089a4.7,4.7,0,0,0-1.419,1.271,5.545,5.545,0,0,0-.355.532,4.592,4.592,0,0,0-.3.606c-.03.059-.044.118-.074.177-.03.1-.074.207-.1.31,0,.015,0,.03-.015.03-.03.118-.059.237-.089.37a3.453,3.453,0,0,0-.059.384.976.976,0,0,0-.015.207,3.563,3.563,0,0,0,0,.562v.044a.555.555,0,0,0,.015.148,3.713,3.713,0,0,0,.059.4.437.437,0,0,1,.03.148c.015.044.015.089.03.133a3.418,3.418,0,0,0,.384.917,5.218,5.218,0,0,0,2.35,2.025c.281.118.577.237.887.34l-.03.03c-.059.015-.118.03-.192.044-.1.03-.237.074-.37.118s-.325.118-.5.192a5.877,5.877,0,0,0-1.478.857c-.059.044-.118.1-.177.148a2.519,2.519,0,0,0-.281.281l-.03.03-.044.044c-.03.044-.074.074-.1.118l-.044.044a1.233,1.233,0,0,0-.118.177c-.044.059-.074.118-.118.177a3.12,3.12,0,0,0-.4,1.789v-.03a.054.054,0,0,1,.015-.044v-.015c0-.015.015-.03.015-.059v-.015a.64.64,0,0,0,.015-.074c0-.03.015-.044.03-.074v-.015c.015-.03.015-.059.03-.089v-.015c.015-.03.015-.059.03-.089v-.015a.721.721,0,0,0,.044-.1L43.1,96.8a.371.371,0,0,1,.059-.1c.03-.059.059-.1.089-.163.015-.015.03-.044.044-.059l.015-.015.089-.133c.03-.03.059-.074.089-.1l.03-.03c.03-.03.044-.059.074-.074l.03-.03a.683.683,0,0,0,.1-.1,4.834,4.834,0,0,0-.355,2.587v-.222a591178982383.253,591178982383.253,0,0,0,.03-.177v-.015c0-.03.015-.074.015-.1v-.03c.015-.044.015-.074.03-.118V97.9a.457.457,0,0,0,.03-.118c0-.015.015-.03.015-.044l.015-.03c.015-.03.03-.074.044-.1a.6.6,0,0,1,.074-.133.052.052,0,0,1,.015-.03l.089-.133s-.03.355-.03.783a.976.976,0,0,0,.015.207.409.409,0,0,0,.015.133,5.835,5.835,0,0,1,.237-1.286,5.835,5.835,0,0,0-.237,1.286,5.931,5.931,0,0,0,.414,2.557,2.077,2.077,0,0,1,.089-1.33l.089.177c.03.192.059.473.118.783a5.519,5.519,0,0,0,1.36,3.149,1.855,1.855,0,0,1-.34-1.183c.044.089.089.163.118.237a7.377,7.377,0,0,0,.931,1.4s-.31-.606-.237-.739a8.326,8.326,0,0,0,1.36,1.4l-.429-.71-.015-.015a6.872,6.872,0,0,0,6.105.783,11.5,11.5,0,0,0,1.36-.473c.281-.118.562-.266.843-.414l.044-.03c.192-.1.384-.222.577-.34.148-.089.3-.192.429-.281q.355-.244.71-.532c.015-.015.03-.03.044-.03a8.272,8.272,0,0,0,.636-.606,8.947,8.947,0,0,0,.71-.843l.015-.015a1.8,1.8,0,0,0,.148-.207l.015-.015c.015-.03.03-.044.044-.074.074-.1.133-.192.207-.3.015-.03.03-.044.044-.074a.994.994,0,0,1,.1-.163c.03-.044.044-.074.074-.118a.6.6,0,0,0,.074-.133c.044-.074.089-.163.133-.237l.044-.089.089-.177.044-.089.015-.03c.03-.074.074-.148.1-.222V99.45a3.092,3.092,0,0,0,.31-.34c.015-.015.03-.03.03-.044a1.1,1.1,0,0,0,.192-.621m-23.9-3.769c-.044.015-.089.074-.148.148a.642.642,0,0,0-.059.1,4.827,4.827,0,0,0-.251.606,2.871,2.871,0,0,0,.03-.355v-.044c.015-.118.03-.251.044-.37V94.72a3.437,3.437,0,0,1,.074-.414.112.112,0,0,1,.015-.059v-.015a.054.054,0,0,1,.015-.044c0-.03.015-.044.015-.074.015-.1.044-.207.059-.31s.03-.177.044-.251v-.03c0-.015,0-.03.015-.03v-.03c0-.015.015-.044.015-.059a.054.054,0,0,1,.015-.044.64.64,0,0,1,.015-.074c0-.015.015-.044.015-.059a.64.64,0,0,1,.015-.074.054.054,0,0,1,.015-.044c0-.015,0-.03.015-.03,0-.03.015-.044.015-.059v-.044l-.03.03c-.03.015-.044.044-.074.059l-.03.03a.392.392,0,0,0-.074.089l-.015.015-.089.133-.015.015c0,.015-.015.015-.015.03l-.044.089v.03c-.015.044-.044.089-.059.133-.044.118-.089.237-.118.34-.015.03-.015.074-.03.089a1.2,1.2,0,0,0-.03.133v0a.326.326,0,0,1,.015-.118c0-.074.015-.163.015-.237a.865.865,0,0,1,.03-.192.089.089,0,0,1,.015-.059c0-.03.015-.059.015-.089s.015-.059.015-.089V93.36c0-.03.015-.074.015-.1v-.1a.054.054,0,0,1,.015-.044.525.525,0,0,0,.03-.148v-.015c.015-.03.015-.074.03-.1v-.015c.015-.074.044-.148.059-.222v-.03a.054.054,0,0,1,.015-.044c.03-.118.074-.237.1-.34v-.015c.03-.089.074-.192.1-.281v-.015c.015-.044.03-.074.044-.118s.044-.118.074-.177a.385.385,0,0,1,.044-.1c.015-.015.015-.044.03-.059a.72.72,0,0,0,.044-.1l.015-.03c-.015-.015-.044-.015-.059-.03h-.015l-.03-.015a3.679,3.679,0,0,0-.429-.163h-.03a2.093,2.093,0,0,0-.3-.059c-.059,0-.118-.015-.177-.015h-.148c-.074,0-.148.015-.222.015a.133.133,0,0,0-.074.015c-.03,0-.074.015-.1.015a.054.054,0,0,0-.044.015c-.03,0-.044.015-.074.015s-.1.03-.148.044c-.015,0-.044.015-.059.015-.059.03-.133.044-.192.074-.03.015-.044.03-.074.03l-.089.044-.03.015a5369.921,5369.921,0,0,0-.177.118c-.03.015-.059.044-.089.059s-.044.03-.059.044c-.044.044-.1.089-.148.133l-.074.074c-.044.044-.074.089-.118.133l-.015.015c-.015.03-.044.044-.059.074L33.42,92a2.6,2.6,0,0,0-.207.34c-.015.015-.015.03-.03.044-.03.059-.044.118-.074.177-.015.03-.015.044-.03.074-.015.059-.044.118-.059.192v.059c-.015.044-.015.089-.03.133a788049299182.456,788049299182.456,0,0,1-.03.148v.059a1.111,1.111,0,0,0,0,.222.72.72,0,0,0,.015.177v.03c0,.03.015.059.015.089a2.8,2.8,0,0,0,.074.34c.03.089.059.163.089.237a2.231,2.231,0,0,0,.222.414,2.346,2.346,0,0,0,.695.68,1.961,1.961,0,0,0,.5.237,2,2,0,0,0,.532.118c.044,0,.089.015.118.015h.192c.059,0,.118-.015.177-.015a.252.252,0,0,0,.1-.015l.251-.044h.015a.94.94,0,0,1,.1-.03,1.762,1.762,0,0,0,.3-.118l.015-.015a.25.25,0,0,1,.074-.03,6.668,6.668,0,0,1-.1-.783c.074-.03.074-.044.074-.059" transform="translate(-32.956 -83.5)" fill="#fce9cd"/>
  </g>
  <path id="Path_45495" data-name="Path 45495" d="M123.9,17.8l.044.03Z" transform="translate(-105.574 -15.179)" fill="#4d9ed7"/>
  <path id="Path_45496" data-name="Path 45496" d="M145.36,165.672c0-.015,0-.03-.015-.03a.112.112,0,0,1-.015-.059,2.118,2.118,0,0,0-.251-.547,1.6,1.6,0,0,0-.192-.251l.044-.177a1.141,1.141,0,0,0,.03-.222,2.136,2.136,0,0,0-.192-1.183.72.72,0,0,0-.044-.1c-.089.059-.163.118-.251.177a12.894,12.894,0,0,1-5.322,2.07,15.3,15.3,0,0,1-4.2.044l.03.015a1.411,1.411,0,0,0-1.123.961l.015.015-.074.562a1.744,1.744,0,0,0,.769,1.493,6.379,6.379,0,0,0,1.478.355,11.83,11.83,0,0,0,3.208-.089,13.54,13.54,0,0,0,5.159-2.04,8.2,8.2,0,0,0,.931-.739l.015-.015.015-.015c0-.1-.015-.163-.015-.222" transform="translate(-114.011 -139.001)" fill="#fff"/>
  <g id="Group_48771" data-name="Group 48771" transform="translate(5.022 12.865)">
    <path id="Path_45497" data-name="Path 45497" d="M113.547,93.6c-.813-.5-.931-.665-.857-2.01.03-.488.074-1.123.133-2,0-.118.015-.222.015-.325v-.429c0-.074-.015-.148-.015-.207a.187.187,0,0,0-.015-.089c-.015-.074-.015-.148-.03-.222,0-.03-.015-.074-.015-.1a.348.348,0,0,0-.03-.118c-.015-.03-.015-.074-.03-.1a2.041,2.041,0,0,0-.414-.458l-.03-.03-.03-.015h-.015c-.03-.015-.044-.03-.074-.044a.323.323,0,0,1-.074-.044,2.146,2.146,0,0,0-.8-.281,2.7,2.7,0,0,0-.488-.03c-.074,0-.163.015-.237.015a5.428,5.428,0,0,0-.636.133c-.074.044-.148.1-.222.148a2.162,2.162,0,0,1-.192.133l-.03.015a1.35,1.35,0,0,1-.192.118l-.03.015c-.059.044-.133.074-.192.118l-.03.015a.9.9,0,0,1-.207.1l-.03.015c-.074.03-.133.059-.207.089l-.03.015c-.074.03-.148.044-.222.074h-.015l-.237.044a3.9,3.9,0,0,1-.414.03,5.427,5.427,0,0,1-.68-.044l-.222-.044a.64.64,0,0,1-.074-.015c-.192-.044-.4-.089-.591-.133-.089-.015-.163-.044-.251-.059-.133-.03-.266-.059-.414-.089a.64.64,0,0,1-.074-.015,2.427,2.427,0,0,0-.34.03h-.03a4.953,4.953,0,0,0-1.005.237c-.015,0-.03.015-.059.015-.059.015-.1.044-.163.059s-.133.059-.207.089a5.589,5.589,0,0,0-1.39.872c-.177.148-.34.31-.5.473a6.546,6.546,0,0,0-.636.8c-.015.015-.015.03-.03.044a3.663,3.663,0,0,0-.266.458,1.61,1.61,0,0,1-.089.163v.015a4.426,4.426,0,0,0-.222.562c0,.015,0,.03-.015.03-.015.03-.015.059-.03.089a1.788,1.788,0,0,0-.074.266,1.57,1.57,0,0,0-.059.281c0,.015-.015.044-.015.059-.015.059-.015.118-.03.163-.03.207-.044.414-.059.621v.148a3.418,3.418,0,0,0,.384.916,5.218,5.218,0,0,0,2.35,2.025c.281.118.577.237.887.34l.015.015.015-.015c.044-.03.074-.059.118-.089.015-.015.03-.015.044-.03l.133-.089c.015-.015.03-.015.044-.03l.133-.089c.015-.015.03-.015.044-.03a1.3,1.3,0,0,1,.148-.089c.015-.015.03-.015.044-.03.044-.03.1-.059.148-.089.015-.015.03-.015.044-.03.044-.03.1-.059.148-.089.015-.015.044-.015.059-.03.044-.03.1-.059.148-.089a.112.112,0,0,1,.059-.03,1.611,1.611,0,0,1,.163-.089c.03-.015.044-.03.074-.03a.793.793,0,0,1,.163-.074c.03-.015.044-.03.074-.03.059-.03.1-.044.163-.074l.089-.044c.059-.03.1-.044.163-.074a.721.721,0,0,1,.1-.044c.059-.015.1-.044.163-.059.03-.015.074-.03.1-.044.059-.015.1-.044.163-.059s.074-.03.118-.044.1-.044.163-.059l.133-.044a.618.618,0,0,0,.148-.059c.044-.015.1-.03.148-.044s.1-.03.148-.044.118-.03.163-.044.089-.03.148-.044a1.373,1.373,0,0,0,.192-.059c.03-.015.059-.015.089-.03.237-.606.961-2.114,2.188-2.276a3.38,3.38,0,0,1,.37-.03h.089a1.637,1.637,0,0,1-.03-.281c-.044-.65.163-1.2.443-1.212.222-.015.4.31.429.414a2.014,2.014,0,0,1,.163.724,2.593,2.593,0,0,1-.059.695c.03.03.044.059.074.074a1.793,1.793,0,0,1,.31,1.183c.1-.015.222-.015.34-.03a.187.187,0,0,0,.089-.015h.059a3.9,3.9,0,0,1,.429-.03c.325-.03.65-.044.99-.059-.192-.1-.31-.163-.31-.163m3.089,9.106a9.149,9.149,0,0,1-1.656,1.168c-.281.148-.562.281-.828.4a11,11,0,0,1-1.7.577,8.875,8.875,0,0,1-1.922.281,3.548,3.548,0,0,0,1.936.3,3.378,3.378,0,0,0,.621-.1c-.015.222-.044.429-.074.636a3.1,3.1,0,0,1-.177.591v.015a3.217,3.217,0,0,1-.325.591c-.015.015-.03.044-.044.059l.044-.03c.192-.1.384-.222.577-.34.148-.089.3-.192.429-.281q.355-.244.71-.532c.015-.015.03-.03.044-.03a8.273,8.273,0,0,0,.636-.606,8.947,8.947,0,0,0,.71-.843l.015-.015a1.8,1.8,0,0,0,.148-.207l.015-.015c.015-.03.03-.044.044-.074.074-.1.133-.192.207-.3.015-.03.03-.044.044-.074a1,1,0,0,1,.1-.163c.03-.044.044-.074.074-.118a.6.6,0,0,0,.074-.133c.044-.074.089-.163.133-.237l.044-.089.089-.177.044-.089.015-.03c.03-.074.074-.148.1-.222a.266.266,0,0,0-.133.089m-13.481-5.957c-.148.044-.325.118-.5.192a5.877,5.877,0,0,0-1.478.857c-.059.044-.118.1-.177.148a2.52,2.52,0,0,0-.281.281l-.03.03-.044.044c-.03.044-.074.074-.1.118l-.044.044a1.233,1.233,0,0,0-.118.177c-.044.059-.074.118-.118.177a3.12,3.12,0,0,0-.4,1.789v-.03a.054.054,0,0,1,.015-.044v-.015c0-.015.015-.03.015-.059v-.015a.64.64,0,0,0,.015-.074c0-.03.015-.044.03-.074v-.015c.015-.03.015-.059.03-.089v-.015c.015-.03.015-.059.03-.089v-.015a.721.721,0,0,0,.044-.1l.015-.015a.37.37,0,0,1,.059-.1c.03-.059.059-.1.089-.163.015-.015.03-.044.044-.059l.015-.015.089-.133c.03-.03.059-.074.089-.1l.03-.03c.03-.03.044-.059.074-.074l.03-.03a.683.683,0,0,0,.1-.1,4.834,4.834,0,0,0-.355,2.587v-.222a1074.3,1074.3,0,0,1,.03-.177v-.015c0-.03.015-.074.015-.1v-.03c.015-.044.015-.074.03-.118v-.015a.457.457,0,0,0,.03-.118c0-.015.015-.03.015-.044l.015-.03c.015-.03.03-.074.044-.1a.6.6,0,0,1,.074-.133.052.052,0,0,1,.015-.03l.089-.133s-.03.355-.03.783a.976.976,0,0,0,.015.207.409.409,0,0,0,.015.133,5.835,5.835,0,0,1,.237-1.286c.03-.1.074-.222.1-.325,0-.015.015-.03.015-.044.044-.1.074-.192.118-.3.015-.015.015-.03.03-.059.044-.089.089-.192.133-.281a.054.054,0,0,0,.015-.044q.155-.288.31-.532c.015-.015.015-.03.03-.044a2.16,2.16,0,0,0,.133-.192c.015-.015.015-.03.03-.044s.015-.03.03-.044c.059-.074.1-.148.163-.222.015-.015.015-.03.03-.03a2.574,2.574,0,0,1,.177-.207c.074-.089.148-.163.222-.251a1.685,1.685,0,0,1,.163-.163l.059-.059c.118-.118.237-.237.355-.34a6.475,6.475,0,0,1,.68-.547c-.059.015-.118.03-.192.044a2.281,2.281,0,0,1-.355.133" transform="translate(-90.102 -87.1)" fill="#f2d2ac"/>
    <path id="Path_45498" data-name="Path 45498" d="M55.467,126.482a.414.414,0,0,0-.015-.089.9.9,0,0,0-1.079-.636,1.43,1.43,0,0,0-1.227,1.02.259.259,0,0,0-.015.074l.03.015a.43.43,0,0,1,.5.044.864.864,0,0,1,.207.192.336.336,0,0,1,.044.325l-.044.044a.476.476,0,0,0,.089.03,1.176,1.176,0,0,0,1.256-.251c.015-.03.03-.044.044-.074-.074-.03-.1-.133-.1-.266a1.018,1.018,0,0,1,.03-.192c.044-.177.177-.281.281-.237M51.2,132.809c-.562.118-1.05.207-1.419.266a.089.089,0,0,1,.059.015,15.783,15.783,0,0,0,2.853.1,12.481,12.481,0,0,0,7.775-3.223v-.015a1.151,1.151,0,0,0-.266-.843,1.334,1.334,0,0,0-.148-.133c-.015,0-.015-.015-.03-.015a2.185,2.185,0,0,1-.192-.118l-.133-.089v-.015a4.782,4.782,0,0,1-.562.665c-.074.074-.148.148-.237.222a10.094,10.094,0,0,1-2.69,1.656,26.024,26.024,0,0,1-5.011,1.523m-14.014-3.858c-.03.015-.044.044-.074.059l-.03.03a.392.392,0,0,0-.074.089l-.015.015-.089.133-.015.015c0,.015-.015.015-.015.03l-.044.089v.03c-.015.044-.044.089-.059.133-.044.118-.089.237-.118.34-.015.03-.015.074-.03.089a1.206,1.206,0,0,0-.03.133v0a.326.326,0,0,1,.015-.118c0-.074.015-.163.015-.237a.865.865,0,0,1,.03-.192.089.089,0,0,1,.015-.059c0-.03.015-.059.015-.089s.015-.059.015-.089v-.044c0-.03.015-.074.015-.1v-.1a.054.054,0,0,1,.015-.044.525.525,0,0,0,.03-.148v-.015c.015-.03.015-.074.03-.1v-.015c.015-.074.044-.148.059-.222v-.03a.054.054,0,0,1,.015-.044c.03-.118.074-.237.1-.34v-.015c.03-.089.074-.192.1-.281v-.015c.015-.044.03-.074.044-.118s.044-.118.074-.177a.385.385,0,0,1,.044-.1c.015-.015.015-.044.03-.059a.72.72,0,0,0,.044-.1l.015-.03c-.015-.015-.044-.015-.059-.03h-.015l-.03-.015a3.679,3.679,0,0,0-.429-.163h-.03a2.093,2.093,0,0,0-.3-.059c-.059,0-.118-.015-.177-.015h-.148c-.074,0-.148.015-.222.015a.133.133,0,0,0-.074.015c-.03,0-.074.015-.1.015a.054.054,0,0,0-.044.015c-.03,0-.044.015-.074.015s-.1.03-.148.044c-.015,0-.044.015-.059.015-.059.03-.133.044-.192.074-.03.015-.044.03-.074.03l-.089.044-.03.015a5369.921,5369.921,0,0,1-.177.118c-.03.015-.059.044-.089.059s-.044.03-.059.044c-.044.044-.1.089-.148.133l-.074.074c-.044.044-.074.089-.118.133l-.015.015c-.015.03-.044.044-.059.074l-.044.044a2.6,2.6,0,0,0-.207.34c-.015.015-.015.03-.03.044-.03.059-.044.118-.074.177-.015.03-.015.044-.03.074s.015.03.015.044c.015.059.03.1.044.163v.03c.015.044.044.1.059.148a2.5,2.5,0,0,0,.192.4c.015.015.015.03.03.044v.015l.015.015a1.46,1.46,0,0,0,.133.222c.074.1.133.177.177.237l.03.03a.014.014,0,0,0,.015.015l.03.03a.64.64,0,0,0-.015-.074,2.42,2.42,0,0,1-.059-.562v-.03a2.506,2.506,0,0,1,.015-.34l.044.133c.015.059.044.118.059.177v.03a3.052,3.052,0,0,0,.3.621,2.864,2.864,0,0,0,.3.429c.015.015.03.03.03.044l.03.03a2.813,2.813,0,0,1-.074-.591v-.192a1.2,1.2,0,0,1,.015-.237,2.92,2.92,0,0,0,.118.384v.015a4.314,4.314,0,0,0,.488.931l.015.015a.309.309,0,0,1,.059.089c.015.015.03.03.03.044l.03.03.015.015v-.03c0-.03-.015-.059-.015-.089-.015-.1-.03-.207-.044-.3,0-.059-.015-.133-.015-.192V130c0-.074.015-.163.015-.237.015.044.03.1.044.148s.03.074.044.1v.015l.015.015a1.018,1.018,0,0,0,.044.118.9.9,0,0,0,.1.207,1.507,1.507,0,0,0,.118.222.848.848,0,0,1,.059.1,1.362,1.362,0,0,1,.074.118.309.309,0,0,1,.059.089l.015.015c.015.03.044.044.059.074s.03.03.03.044c.03.03.044.059.059.059l.015.015v-.044c.015-.118.03-.251.044-.37v-.044a3.438,3.438,0,0,1,.074-.414.112.112,0,0,1,.015-.059v-.015a.054.054,0,0,1,.015-.044c0-.03.015-.044.015-.074.015-.1.044-.207.059-.31s.03-.177.044-.251v-.03c0-.015,0-.03.015-.03v-.03c0-.015.015-.044.015-.059a.054.054,0,0,1,.015-.044.639.639,0,0,1,.015-.074c0-.015.015-.044.015-.059a.64.64,0,0,1,.015-.074.054.054,0,0,1,.015-.044c0-.015,0-.03.015-.03,0-.03.015-.044.015-.059v-.044l.074.044M55.1,135.13c.207-.074.384-.133.532-.192.281-.118.429-.207.429-.237s-.177-.015-.473.059c-.148.03-.325.059-.547.118a2.323,2.323,0,0,1-.34.059c-.118.015-.251.044-.384.059-.266.044-.562.074-.887.1l-.488.044c-.163.015-.34.015-.517.03a11.3,11.3,0,0,1-2.291-.163,5.033,5.033,0,0,1-1.39-.488l-.015-.015a1.411,1.411,0,0,1,1.123-.961l-.03-.015h-.044c-.133-.015-.237-.03-.34-.044-.074-.015-.133-.015-.177-.03a.833.833,0,0,1-.1-.015,1,1,0,0,0-.917.606l-.044.089a1.828,1.828,0,0,0-.148.591,1.644,1.644,0,0,0,.384,1.2,2.48,2.48,0,0,0,1.02.65,1.73,1.73,0,0,1-.769-1.493,6.936,6.936,0,0,0,1.375.384,9.606,9.606,0,0,0,2.395.133c.177-.015.37-.03.532-.044s.34-.044.5-.059c.325-.059.606-.1.887-.163a2.919,2.919,0,0,0,.384-.1,1.85,1.85,0,0,0,.34-.1" transform="translate(-33.9 -120.037)" fill="#f2d2ac"/>
  </g>
  <g id="Group_48772" data-name="Group 48772" transform="translate(18.695 16.604)">
    <path id="Path_45499" data-name="Path 45499" d="M133.229,113.875a1.328,1.328,0,0,1,.946.355,2.485,2.485,0,0,0,.059-.695,2.014,2.014,0,0,0-.163-.724c-.03-.118-.207-.429-.429-.414-.281.015-.488.562-.443,1.212a1.63,1.63,0,0,0,.03.266m.739,1.67a.342.342,0,0,0,.1.266c.1.059.237-.059.3-.251,0-.015.015-.03.015-.044.044-.177,0-.355-.1-.4s-.237.059-.3.251c0,.059-.015.118-.015.177m-2.01.325a.689.689,0,0,0,.207.207.448.448,0,0,0,.517.03l.044-.044a.336.336,0,0,0-.044-.325.522.522,0,0,0-.207-.192.456.456,0,0,0-.5-.044.2.2,0,0,0-.044.059.342.342,0,0,0,.03.31m7.347,2.705h0m-.237,4.095a7.06,7.06,0,0,1-.946.754,13.306,13.306,0,0,1-5.159,2.04,11.843,11.843,0,0,1-3.208.089,6.571,6.571,0,0,1-1.478-.355,2.48,2.48,0,0,1-1.02-.65,1.733,1.733,0,0,1-.384-1.2,1.584,1.584,0,0,1,.148-.591l.044-.089a.991.991,0,0,1,.916-.606.333.333,0,0,1,.1.015.885.885,0,0,1,.177.03c.1.015.207.03.34.044h.044a15.3,15.3,0,0,0,4.2-.044,12.894,12.894,0,0,0,5.322-2.07c.089-.059.163-.118.251-.177l.872-1.3a12.425,12.425,0,0,1-7.775,3.237,14.518,14.518,0,0,1-2.853-.1c-.03,0-.044,0-.059-.015-.192-.03-.34-.044-.458-.059-.059,0-.1-.015-.133-.015a1.263,1.263,0,0,0-.473.059,1.482,1.482,0,0,0-.754.562,2.111,2.111,0,0,0-.384,1.212,2.33,2.33,0,0,0,.281,1.109c.015.015.015.03.03.044.03.044.044.074.074.118a1.036,1.036,0,0,0,.118.148,4.364,4.364,0,0,0,2.794,1.168,11.533,11.533,0,0,0,3.089-.059c3.37-.606,4.967-1.7,5.706-2.454a1.47,1.47,0,0,0,.148-.163,2.99,2.99,0,0,0,.429-.636V122.7a.114.114,0,0,0,.015-.044l-.015.015" transform="translate(-126.4 -112.397)" fill="#664f44"/>
  </g>
  <g id="Group_48773" data-name="Group 48773" transform="translate(17.291 14.048)">
    <path id="Path_45500" data-name="Path 45500" d="M120.256,96.255a1.356,1.356,0,0,0-.34-.133c-.074-.015-.148-.03-.237-.044a.188.188,0,0,1-.089-.015,3.369,3.369,0,0,0-.739.03.847.847,0,0,0-.207.059,2.309,2.309,0,0,0-1.6,1.6.133.133,0,0,0-.015.074c-.015.074-.044.148-.059.207a3.5,3.5,0,0,0-.074.621c0,.237.015.384.015.384a5,5,0,0,1,.3-.562,5.256,5.256,0,0,1,.8-1.064,3.985,3.985,0,0,1,1.493-.99,3.108,3.108,0,0,1,.754-.163m6.4-.754-.015-.03a1,1,0,0,0-.222-.207,1.149,1.149,0,0,0-.872-.133,1.518,1.518,0,0,0-.724.414,1.789,1.789,0,0,1,1.656.266,2.7,2.7,0,0,1,.237.192,1.958,1.958,0,0,1,.237.251,1.6,1.6,0,0,0-.251-.695.2.2,0,0,0-.044-.059" transform="translate(-116.9 -95.102)" fill="#e9b784"/>
  </g>
  <path id="Path_45501" data-name="Path 45501" d="M138.194,121.823c.31-.089.636-.177,1.005-.266a3.092,3.092,0,0,0,.03-.99c-.1-.857-.488-1.523-.872-1.478s-.606.783-.5,1.641a2.893,2.893,0,0,0,.34,1.094" transform="translate(-117.444 -101.493)" fill="#664f44"/>
  <path id="Path_45502" data-name="Path 45502" d="M107.522,6.9l-.8.177.163,1.449-2.114-1.079-.872.266.015.015,2.572,2.927.03-.015.03-.015c.074-.044.163-.1.237-.148a.309.309,0,0,0,.089-.059c.118-.074.237-.148.355-.207l-1.094-1.256,1.759.857c.059-.03.1-.059.163-.089l-.163-1.256.8.931h.015c.074-.03.133-.074.207-.1l.03-.015.03-.015A.052.052,0,0,0,109,9.25l.089-.044a.014.014,0,0,0,.015-.015c.089-.044.192-.089.281-.133L107.522,6.9" transform="translate(-88.531 -5.89)" fill="#ffd250"/>
  <g id="Group_48774" data-name="Group 48774" transform="translate(5.302 0.937)">
    <path id="Path_45503" data-name="Path 45503" d="M48.7,6.7v0m0-.044.118-.03a2.775,2.775,0,0,0-.695-.192,5.449,5.449,0,0,0-1.981.192,12.858,12.858,0,0,0-2.557.99,26.43,26.43,0,0,0-5.869,4.124c-.695.621-1.33,1.271-1.922,1.907l2.395,2.956c.65-.71,1.345-1.419,2.114-2.114a29.987,29.987,0,0,1,3.075-2.469A24.23,24.23,0,0,1,46.3,10.266l-.414-1.892L45.9,7.31l-.015-.015.872-.266,1.7.872-.044-.591.3-.65" transform="translate(-35.8 -6.409)" fill="#4d9ed7"/>
  </g>
  <g id="Group_48775" data-name="Group 48775" transform="translate(17.601 1.187)">
    <path id="Path_45504" data-name="Path 45504" d="M119.606,8.1l-.3.65.044.606.414.207ZM119,9.977l1.774.872-.68.384Zm1.774-.488.163,1.256.636-.325Z" transform="translate(-119 -8.1)" fill="#132134"/>
  </g>
  <path id="Path_45505" data-name="Path 45505" d="M75.984,13.217h.325a3.867,3.867,0,0,1,.843.1.054.054,0,0,1,.044.015h.015l.03.015h.03c-.03-.015-.059-.044-.089-.059a3.914,3.914,0,0,0-.931-.237,9.738,9.738,0,0,0-4.464.8c-.059.03-.118.044-.177.074-.089.044-.177.074-.266.118-.148.059-.3.133-.458.207-.03.015-.044.015-.074.03-.089.044-.192.089-.281.133a.014.014,0,0,0-.015.015l-.089.044a.052.052,0,0,0-.03.015h-.059l-.015.015a1.352,1.352,0,0,0-.207.1H70.1c-.015.015-.03.015-.044.03h-.015a.052.052,0,0,0-.03.015c-.1.059-.207.1-.31.163-.074.044-.148.074-.222.118h-.015c-.059.03-.1.059-.163.089-.177.089-.34.192-.517.3-.015.015-.03.015-.059.03s-.03.015-.044.03-.03.015-.044.03l-.015.015c-.118.074-.237.133-.355.207a.309.309,0,0,0-.089.059c-.074.044-.163.1-.237.148l-.03.015-.03.015-.665.443c-.37.251-.724.5-1.079.769-.044.03-.089.074-.133.1-.931.695-1.818,1.449-2.676,2.217-.9.828-1.774,1.67-2.587,2.528-.443.443-.828.843-1.123,1.168a9.83,9.83,0,0,0-.946,1.094,1.74,1.74,0,0,0,.163-.148l-.237.281A59.207,59.207,0,0,1,63.064,20c.976-.843,2-1.656,3.045-2.41.458-.325.931-.65,1.4-.961.148-.1.31-.192.458-.3.074-.044.148-.089.237-.133a.6.6,0,0,1,.133-.074c.089-.044.163-.1.251-.148a2.071,2.071,0,0,0,.237-.148c.044-.03.089-.044.133-.074l.31-.177c.059-.03.118-.074.177-.1.192-.1.384-.207.591-.31.015-.015.03-.015.044-.03l.089-.044c.044-.015.074-.044.118-.059.015-.015.03-.015.044-.03l.089-.044a.014.014,0,0,0,.015-.015h.015c.089-.044.177-.089.251-.118.015,0,.03-.015.044-.03l.089-.044c.1-.044.192-.089.3-.133a.323.323,0,0,0,.074-.044c.015,0,.03-.015.044-.015a.21.21,0,0,1,.089-.03c.118-.044.222-.1.34-.148s.192-.089.3-.133c.562-.237,1.079-.429,1.567-.591a11.283,11.283,0,0,1,2.439-.443" transform="translate(-49.927 -11.098)" fill="#fff"/>
</svg>
