<svg xmlns="http://www.w3.org/2000/svg" width="14.42" height="14.42" viewBox="0 0 14.42 14.42">
  <path id="Path_45892" data-name="Path 45892" d="M14.765,11.488H1.655a.655.655,0,0,0,0,1.311H14.765a.655.655,0,1,0,0-1.311Zm0,2.622H1.655a.655.655,0,1,0,0,1.311H14.765a.655.655,0,1,0,0-1.311ZM4.277,4.933a.655.655,0,1,0,.655.655A.655.655,0,0,0,4.277,4.933ZM13.454,1H2.966A1.966,1.966,0,0,0,1,2.966V8.21a1.966,1.966,0,0,0,1.966,1.966H13.454A1.966,1.966,0,0,0,15.42,8.21V2.966A1.966,1.966,0,0,0,13.454,1Zm.655,7.21a.655.655,0,0,1-.655.655H2.966a.655.655,0,0,1-.655-.655V2.966a.655.655,0,0,1,.655-.655H13.454a.655.655,0,0,1,.655.655ZM8.21,3.622a1.966,1.966,0,1,0,1.966,1.966A1.966,1.966,0,0,0,8.21,3.622Zm0,2.622a.655.655,0,1,1,.655-.655A.655.655,0,0,1,8.21,6.244Zm3.933-1.311a.655.655,0,1,0,.655.655A.655.655,0,0,0,12.143,4.933Z" transform="translate(-1 -1)" fill="#fff"/>
</svg>
