<svg xmlns="http://www.w3.org/2000/svg" width="22.5" height="22.5" viewBox="0 0 22.5 22.5">
  <path id="Path_45585" data-name="Path 45585" d="M22,17H2a1,1,0,0,0,0,2H22a1,1,0,0,0,0-2Zm0,4H2a1,1,0,0,0,0,2H22a1,1,0,0,0,0-2ZM6,7A1,1,0,1,0,7,8,1,1,0,0,0,6,7ZM20,1H4A3,3,0,0,0,1,4v8a3,3,0,0,0,3,3H20a3,3,0,0,0,3-3V4A3,3,0,0,0,20,1Zm1,11a1,1,0,0,1-1,1H4a1,1,0,0,1-1-1V4A1,1,0,0,1,4,3H20a1,1,0,0,1,1,1ZM12,5a3,3,0,1,0,3,3A3,3,0,0,0,12,5Zm0,4a1,1,0,1,1,1-1A1,1,0,0,1,12,9Zm6-2a1,1,0,1,0,1,1A1,1,0,0,0,18,7Z" transform="translate(-0.75 -0.75)" stroke="#fff" strokeWidth="0.5"/>
</svg>
