<svg id="Group_49140" data-name="Group 49140" xmlns="http://www.w3.org/2000/svg" width="29.502" height="34.8" viewBox="0 0 29.502 34.8">
  <path id="Path_45479" data-name="Path 45479" d="M31.095,3.907C29.508,2.093,26.561,1.3,22.877,1.3H12.051a1.577,1.577,0,0,0-1.53,1.3L5.987,31.169a.912.912,0,0,0,.907,1.077h6.688l1.7-10.655-.057.34a1.532,1.532,0,0,1,1.53-1.3h3.174c6.235,0,11.109-2.551,12.526-9.862.057-.227.057-.453.113-.623h0c.4-2.721,0-4.534-1.474-6.235" transform="translate(-5.969 -1.3)" fill="#263b80"/>
  <path id="Path_45480" data-name="Path 45480" d="M38.036,16.9c-.057.227-.057.4-.113.623-1.417,7.311-6.291,9.862-12.526,9.862H22.223a1.577,1.577,0,0,0-1.53,1.3L18.6,41.895a.824.824,0,0,0,.793.964H25a1.4,1.4,0,0,0,1.36-1.134l.057-.283,1.077-6.688.057-.4a1.346,1.346,0,0,1,1.36-1.134h.85c5.441,0,9.692-2.21,10.939-8.615.51-2.664.227-4.931-1.134-6.461a6.423,6.423,0,0,0-1.53-1.247" transform="translate(-11.436 -8.058)" fill="#139ad6"/>
  <path id="Path_45481" data-name="Path 45481" d="M38.113,15.51l-.68-.17a2.872,2.872,0,0,0-.737-.113A14.507,14.507,0,0,0,33.919,15H25.474a1.677,1.677,0,0,0-.567.113,1.278,1.278,0,0,0-.737,1.02L22.357,27.526l-.057.34a1.532,1.532,0,0,1,1.53-1.3H27c6.235,0,11.109-2.551,12.526-9.862.057-.227.057-.453.113-.623a12.48,12.48,0,0,0-1.19-.51c-.113,0-.227-.057-.34-.057" transform="translate(-13.044 -7.235)" fill="#232c65"/>
  <path id="Path_45482" data-name="Path 45482" d="M24.306,1.3H13.537a1.577,1.577,0,0,0-1.53,1.3L9.4,18.927,26.857,1.47A18.058,18.058,0,0,0,24.306,1.3Z" transform="translate(-7.455 -1.3)" fill="#2a4dad"/>
  <path id="Path_45483" data-name="Path 45483" d="M40.3,18.94a6.748,6.748,0,0,0-.51-.85,6.5,6.5,0,0,0-1.53-1.19c-.057.227-.057.4-.113.623-1.417,7.311-6.291,9.862-12.526,9.862H22.444a1.577,1.577,0,0,0-1.53,1.3L19.1,40.138Z" transform="translate(-11.658 -8.058)" fill="#0d7dbc"/>
  <path id="Path_45484" data-name="Path 45484" d="M6.9,47.712h6.688L15.234,37.4a.819.819,0,0,1,.113-.4l-9.3,9.3L6,46.635A.942.942,0,0,0,6.9,47.712Z" transform="translate(-5.978 -16.766)" fill="#232c65"/>
  <path id="Path_45485" data-name="Path 45485" d="M22.959,1.3H14.231a1.677,1.677,0,0,0-.567.113l-.85.85a.806.806,0,0,0-.113.34L11,13.259Z" transform="translate(-8.149 -1.3)" fill="#436bc4"/>
  <g id="Group_48753" data-name="Group 48753" transform="translate(8.803 14.056)">
    <path id="Path_45486" data-name="Path 45486" d="M41.961,28.537a12.2,12.2,0,0,0,.227-2.437L31.135,37.152C36.52,37.1,40.714,34.885,41.961,28.537ZM27.678,45.427l.907-5.668L21.5,46.844h4.818a1.4,1.4,0,0,0,1.36-1.134Z" transform="translate(-21.5 -26.1)" fill="#0cb2ed"/>
  </g>
  <g id="Group_48754" data-name="Group 48754" transform="translate(7.272 9.579)" opacity="0.6">
    <path id="Path_45487" data-name="Path 45487" d="M37.787,18.993l3.231,3.231a8.6,8.6,0,0,0-.17-1.19L38.014,18.2a4.175,4.175,0,0,0-.227.793Zm-.793,2.38-.34.68,3.911,3.911.17-.85-3.741-3.741Zm2.437,7.595.34-.68-4.308-4.308c-.17.17-.283.4-.453.567Zm-6.8-2.607,4.931,4.931.51-.51-4.818-4.818a3.812,3.812,0,0,0-.623.4Zm-3,1.134L35.01,32.88l.68-.34-5.271-5.271c-.283.057-.51.17-.793.227Zm1.984,6.178c.283-.057.623-.057.907-.113l-5.668-5.668c-.34,0-.623.057-.964.057Zm-8.842-5.724h-.453c-.17,0-.34.057-.453.057l6.121,6.178a1.467,1.467,0,0,1,.623-.4ZM20.5,30.9l6.688,6.688.17-.907L20.67,29.989Zm-.567,3.571,6.688,6.688.17-.85L20.1,33.616Zm-.4,2.721-.113.907,5.328,5.328h.4a1.655,1.655,0,0,0,.51-.113ZM18.8,41.665l1.757,1.757h1.02L18.97,40.814Z" transform="translate(-18.8 -18.2)" fill="#33e2ff"/>
  </g>
</svg>
