<svg xmlns="http://www.w3.org/2000/svg" width="24.65" height="34.8" viewBox="0 0 24.65 34.8">
  <path id="Path_45586" data-name="Path 45586" d="M14.529,26.959a24.5,24.5,0,0,1-10.62-3.093V32.6a26.966,26.966,0,0,0,10.614,2.2c8.068,0,13.627-3.466,13.627-10.437,0-11.565-14.832-9.493-14.832-13.856h0c0-1.515,1.266-2.1,3.293-2.1A21.794,21.794,0,0,1,26.264,10.9V1.773A25.6,25.6,0,0,0,16.618,0C8.746,0,3.5,4.1,3.5,10.968c0,10.732,14.751,8.992,14.751,13.618,0,1.8-1.557,2.372-3.722,2.372Z" transform="translate(-3.5)" fill="#646fde"/>
</svg>
