<svg xmlns="http://www.w3.org/2000/svg" width="20" height="20" viewBox="0 0 20 20">
  <g id="Group_49140" data-name="Group 49140" transform="translate(-0.274 -0.994)">
    <rect id="Rectangle_19367" data-name="Rectangle 19367" width="20" height="20" transform="translate(0.274 0.994)" fill="none"/>
    <path id="Path_45475" data-name="Path 45475" d="M21.568,53.185a.655.655,0,0,0,.815.479,22.384,22.384,0,0,1,11.911,0,.655.655,0,0,0,.815-.479l2.083-8.852a.654.654,0,0,0-.9-.747l-4.134,1.837a.654.654,0,0,1-.837-.28L28.912,40.81a.654.654,0,0,0-1.143,0l-2.407,4.333a.654.654,0,0,1-.837.28L20.39,43.585a.654.654,0,0,0-.9.747Z" transform="translate(-18.104 -36.64)" fill="none" stroke="#fff" stroke-linecap="round" stroke-linejoin="round" strokeWidth="1.5"/>
  </g>
</svg>
