<svg xmlns="http://www.w3.org/2000/svg" width="27" height="27" viewBox="0 0 27 27">
  <g id="Group_49140" data-name="Group 49140" transform="translate(-0.09 0.041)">
    <rect id="Rectangle_19367" data-name="Rectangle 19367" width="27" height="27" transform="translate(0.09 -0.041)" fill="none"/>
    <path id="Path_45475" data-name="Path 45475" d="M22.184,56.92a.847.847,0,0,0,1.055.62,28.961,28.961,0,0,1,15.41,0,.847.847,0,0,0,1.054-.62l2.7-11.453a.846.846,0,0,0-1.167-.967l-5.348,2.377a.846.846,0,0,1-1.083-.362l-3.114-5.605a.846.846,0,0,0-1.479,0l-3.114,5.605a.846.846,0,0,1-1.083.362L20.661,44.5a.846.846,0,0,0-1.167.966Z" transform="translate(-17.376 -36.249)" fill="none" stroke="#000" stroke-linecap="round" stroke-linejoin="round" strokeWidth="2"/>
  </g>
</svg>
