<svg id="Group_49140" data-name="Group 49140" xmlns="http://www.w3.org/2000/svg" width="19.27" height="19.269" viewBox="0 0 19.27 19.269">
  <path id="Path_45468" data-name="Path 45468" d="M22.959,4.468,21.846,3.355a4.623,4.623,0,0,0-6.54,0L13.079,5.581a.688.688,0,1,0,.973.973l2.227-2.226a3.248,3.248,0,0,1,4.594,0l1.113,1.113a3.248,3.248,0,0,1,0,4.594l-3.339,3.34a3.248,3.248,0,0,1-4.594,0l-1.114-1.113a.688.688,0,1,0-.973.973l1.114,1.113a4.624,4.624,0,0,0,6.541,0l3.339-3.34a4.623,4.623,0,0,0,0-6.54Z" transform="translate(-5.044 -2)" fill="#fff"/>
  <path id="Path_45469" data-name="Path 45469" d="M12.262,19.237l-2.227,2.226a3.248,3.248,0,0,1-4.594,0L4.328,20.351a3.248,3.248,0,0,1,0-4.594l3.341-3.34a3.248,3.248,0,0,1,4.594,0l1.113,1.113a.688.688,0,1,0,.973-.973l-1.113-1.113a4.624,4.624,0,0,0-6.54,0L3.354,14.783a4.625,4.625,0,0,0,0,6.54l1.114,1.113a4.624,4.624,0,0,0,6.54,0l2.227-2.226a.688.688,0,1,0-.973-.973Z" transform="translate(-2 -4.522)" fill="#fff"/>
</svg>
