<svg xmlns="http://www.w3.org/2000/svg" width="23.322" height="23.32" viewBox="0 0 23.322 23.32">
  <g id="Group_49140" data-name="Group 49140" transform="translate(-2 -2)">
    <path id="Path_45468" data-name="Path 45468" d="M25.313,4.987,23.966,3.64a5.6,5.6,0,0,0-7.915,0l-2.7,2.694a.833.833,0,1,0,1.178,1.178l2.7-2.695a3.931,3.931,0,0,1,5.56,0l1.347,1.347a3.931,3.931,0,0,1,0,5.56l-4.041,4.042a3.931,3.931,0,0,1-5.561,0L13.186,14.42A.833.833,0,1,0,12.008,15.6l1.348,1.347a5.6,5.6,0,0,0,7.916,0L25.313,12.9a5.6,5.6,0,0,0,0-7.915Z" transform="translate(-1.631)"/>
    <path id="Path_45469" data-name="Path 45469" d="M14.42,21.161l-2.7,2.694a3.931,3.931,0,0,1-5.56,0L4.817,22.509a3.931,3.931,0,0,1,0-5.56L8.86,12.907a3.931,3.931,0,0,1,5.56,0l1.347,1.347a.833.833,0,1,0,1.178-1.178L15.6,11.729a5.6,5.6,0,0,0-7.915,0L3.639,15.77a5.6,5.6,0,0,0,0,7.915l1.348,1.347a5.6,5.6,0,0,0,7.915,0l2.7-2.694A.833.833,0,1,0,14.42,21.16Z" transform="translate(0 -1.352)"/>
  </g>
</svg>
