<svg id="Layer_2" xmlns="http://www.w3.org/2000/svg" width="35.387" height="22.64" viewBox="0 0 35.387 22.64">
  <path id="Path_45507" data-name="Path 45507" d="M55.458,54.317c-.031,1.732-1.251,2.317-2.434,1.358-2.206-1.756-4.4-3.536-6.595-5.3.005.817,0,2.742,0,3.579,0,1.553-.679,2.308-2.072,2.309H32.483q-3.018,0-6.034,0c-3.8,0-6.358-2.839-6.36-7.052V35.933c0-1.575.657-2.309,2.066-2.309,4.832.1,13.275.012,18.013,0,3.358,0,5.787,2.379,6.193,5.89,2.222-1.784,4.435-3.582,6.663-5.356,1.028-.848,2.381-.576,2.434,1.359C55.473,41.593,55.49,48.231,55.458,54.317Z" transform="translate(-20.089 -33.624)" fill="#2d8cff"/>
</svg>
