<svg xmlns="http://www.w3.org/2000/svg" width="18.469" height="10.838" viewBox="0 0 18.469 10.838">
  <g id="money-svgrepo-com_3_" data-name="money-svgrepo-com (3)" transform="translate(0 -24.055)">
    <path id="Path_39881" data-name="Path 39881" d="M16.921,24.055H1.548A1.549,1.549,0,0,0,0,25.6v7.741a1.549,1.549,0,0,0,1.548,1.548H16.921a1.549,1.549,0,0,0,1.548-1.548V25.6A1.549,1.549,0,0,0,16.921,24.055ZM1.2,33.949V25.132H17.141v8.817H1.2Z"/>
    <path id="Path_39882" data-name="Path 39882" d="M17.32,46.328H30.166v-5.72H17.32Zm6.487-4.967A2.108,2.108,0,1,1,21.7,43.468,2.108,2.108,0,0,1,23.807,41.36Z" transform="translate(-14.573 -13.927)"/>
  </g>
</svg>
