<svg xmlns="http://www.w3.org/2000/svg" width="15.461" height="15.46" viewBox="0 0 15.461 15.46">
  <path id="Path_45726" data-name="Path 45726" d="M14.613,6.2h-.82a6.092,6.092,0,0,0-.7-1.659l.589-.591a.845.845,0,0,0,0-1.193L12.7,1.779a.863.863,0,0,0-1.192,0l-.614.61a6.1,6.1,0,0,0-1.637-.665V.847A.842.842,0,0,0,8.421,0H7.033A.837.837,0,0,0,6.2.847v.877a6.117,6.117,0,0,0-1.64.665l-.614-.61a.866.866,0,0,0-1.194,0l-.981.981a.848.848,0,0,0-.247.6.836.836,0,0,0,.247.6l.589.592a6.091,6.091,0,0,0-.7,1.659H.841A.838.838,0,0,0,0,7.04V8.428a.831.831,0,0,0,.841.831h.82a6.121,6.121,0,0,0,.7,1.662l-.589.593a.846.846,0,0,0,0,1.195l.982.982a.844.844,0,0,0,1.192,0l.616-.611a6.14,6.14,0,0,0,1.64.665v.876a.831.831,0,0,0,.831.84H8.421a.836.836,0,0,0,.837-.84v-.876a6.1,6.1,0,0,0,1.637-.665l.611.609a.845.845,0,0,0,1.194,0l.982-.981a.843.843,0,0,0,0-1.192l-.589-.6a6.146,6.146,0,0,0,.7-1.662h.82a.837.837,0,0,0,.847-.831V7.04A.843.843,0,0,0,14.613,6.2ZM7.727,10.375a2.64,2.64,0,1,1,2.667-2.641A2.654,2.654,0,0,1,7.727,10.375Z"/>
</svg>
