<svg xmlns="http://www.w3.org/2000/svg" width="17.367" height="15.713" viewBox="0 0 17.367 15.713">
  <g id="statistics-svgrepo-com" transform="translate(0 -14)">
    <path id="Path_39877" data-name="Path 39877" d="M16.481,250H.886a.886.886,0,0,0,0,1.772H16.481a.886.886,0,0,0,0-1.772Z" transform="translate(0 -222.059)"/>
    <path id="Path_39878" data-name="Path 39878" d="M21.561,87.8h2.776a.561.561,0,0,0,.561-.561V79.561A.561.561,0,0,0,24.338,79H21.561a.561.561,0,0,0-.561.561V87.24A.561.561,0,0,0,21.561,87.8Z" transform="translate(-19.76 -61.16)"/>
    <path id="Path_39879" data-name="Path 39879" d="M114.561,26.641h2.776a.561.561,0,0,0,.561-.561V14.561a.561.561,0,0,0-.561-.561h-2.776a.561.561,0,0,0-.561.561V26.08A.561.561,0,0,0,114.561,26.641Z" transform="translate(-107.266 0)"/>
    <path id="Path_39880" data-name="Path 39880" d="M207.561,111.325h2.776a.561.561,0,0,0,.561-.561v-6.2a.561.561,0,0,0-.561-.561h-2.776a.561.561,0,0,0-.561.561v6.2A.561.561,0,0,0,207.561,111.325Z" transform="translate(-194.772 -84.684)"/>
  </g>
</svg>
