<svg xmlns="http://www.w3.org/2000/svg" width="18.098" height="17.983" viewBox="0 0 18.098 17.983">
  <g id="Group_49140" data-name="Group 49140" transform="translate(4.105 -1.554)">
    <g id="calendar_22_" data-name="calendar (22)" transform="translate(-4.105 1.554)">
      <g id="Group_39176" data-name="Group 39176" transform="translate(0 0)">
        <g id="Group_39175" data-name="Group 39175">
          <path id="Path_34138" data-name="Path 34138" d="M16.221,22.43H15.085v-1a.474.474,0,1,0-.943,0v1H9.523v-1a.474.474,0,1,0-.943,0v1H3.913v-1a.5.5,0,0,0-.471-.526.5.5,0,0,0-.471.526v1H1.881A2.03,2.03,0,0,0,0,24.559V36.78a2,2,0,0,0,1.881,2.1H16.217a2,2,0,0,0,1.881-2.1V24.559A2.023,2.023,0,0,0,16.221,22.43Zm.938,14.35a1,1,0,0,1-.933,1.051H1.881a1,1,0,0,1-.938-1.046V24.559a1.022,1.022,0,0,1,.938-1.078H2.97v.762a.5.5,0,0,0,.471.526.5.5,0,0,0,.471-.526v-.762H8.58v.762a.474.474,0,1,0,.943,0v-.762h4.62v.762a.474.474,0,1,0,.943,0v-.762h1.136a1.022,1.022,0,0,1,.938,1.078Z" transform="translate(0 -20.9)" fill="#bb14e2"/>
        </g>
      </g>
      <g id="Group_39178" data-name="Group 39178" transform="translate(6.434 5.998)">
        <g id="Group_39177" data-name="Group 39177" transform="translate(0 0)">
          <path id="Path_34139" data-name="Path 34139" d="M139.646,135h-.92a.526.526,0,1,0,0,1.051h.92a.526.526,0,1,0,0-1.051Z" transform="translate(-138.2 -135)" fill="#bb14e2"/>
        </g>
      </g>
      <g id="Group_39180" data-name="Group 39180" transform="translate(9.674 5.998)">
        <g id="Group_39179" data-name="Group 39179" transform="translate(0 0)">
          <path id="Path_34140" data-name="Path 34140" d="M209.246,135h-.92a.526.526,0,1,0,0,1.051h.92a.526.526,0,1,0,0-1.051Z" transform="translate(-207.8 -135)" fill="#bb14e2"/>
        </g>
      </g>
      <g id="Group_39182" data-name="Group 39182" transform="translate(12.942 5.998)">
        <g id="Group_39181" data-name="Group 39181" transform="translate(0 0)">
          <path id="Path_34141" data-name="Path 34141" d="M279.446,135h-.92a.526.526,0,0,0,0,1.051h.92a.526.526,0,0,0,0-1.051Z" transform="translate(-278 -135)" fill="#bb14e2"/>
        </g>
      </g>
      <g id="Group_39184" data-name="Group 39184" transform="translate(6.434 9.625)">
        <g id="Group_39183" data-name="Group 39183" transform="translate(0 0)">
          <path id="Path_34142" data-name="Path 34142" d="M139.646,204h-.92a.526.526,0,1,0,0,1.051h.92a.526.526,0,1,0,0-1.051Z" transform="translate(-138.2 -204)" fill="#bb14e2"/>
        </g>
      </g>
      <g id="Group_39186" data-name="Group 39186" transform="translate(3.166 9.625)">
        <g id="Group_39185" data-name="Group 39185" transform="translate(0 0)">
          <path id="Path_34143" data-name="Path 34143" d="M69.451,204h-.925a.526.526,0,1,0,0,1.051h.92A.526.526,0,0,0,69.451,204Z" transform="translate(-68 -204)" fill="#bb14e2"/>
        </g>
      </g>
      <g id="Group_39188" data-name="Group 39188" transform="translate(9.674 9.625)">
        <g id="Group_39187" data-name="Group 39187" transform="translate(0 0)">
          <path id="Path_34144" data-name="Path 34144" d="M209.246,204h-.92a.526.526,0,1,0,0,1.051h.92a.526.526,0,1,0,0-1.051Z" transform="translate(-207.8 -204)" fill="#bb14e2"/>
        </g>
      </g>
      <g id="Group_39190" data-name="Group 39190" transform="translate(12.942 9.625)">
        <g id="Group_39189" data-name="Group 39189" transform="translate(0 0)">
          <path id="Path_34145" data-name="Path 34145" d="M279.446,204h-.92a.526.526,0,0,0,0,1.051h.92a.526.526,0,0,0,0-1.051Z" transform="translate(-278 -204)" fill="#bb14e2"/>
        </g>
      </g>
      <g id="Group_39192" data-name="Group 39192" transform="translate(6.434 13.199)">
        <g id="Group_39191" data-name="Group 39191">
          <path id="Path_34146" data-name="Path 34146" d="M139.646,272h-.92a.526.526,0,1,0,0,1.051h.92a.526.526,0,0,0,0-1.051Z" transform="translate(-138.2 -272)" fill="#bb14e2"/>
        </g>
      </g>
      <g id="Group_39194" data-name="Group 39194" transform="translate(3.166 13.199)">
        <g id="Group_39193" data-name="Group 39193">
          <path id="Path_34147" data-name="Path 34147" d="M69.451,272h-.925a.526.526,0,0,0,0,1.051h.92A.526.526,0,0,0,69.451,272Z" transform="translate(-68 -272)" fill="#bb14e2"/>
        </g>
      </g>
      <g id="Group_39196" data-name="Group 39196" transform="translate(9.674 13.199)">
        <g id="Group_39195" data-name="Group 39195">
          <path id="Path_34148" data-name="Path 34148" d="M209.246,272h-.92a.526.526,0,0,0,0,1.051h.92a.526.526,0,0,0,0-1.051Z" transform="translate(-207.8 -272)" fill="#bb14e2"/>
        </g>
      </g>
    </g>
  </g>
</svg>
