<svg id="Group_49139" data-name="Group 49139" xmlns="http://www.w3.org/2000/svg" width="130" height="54" viewBox="0 0 130 54">
  <rect id="Rectangle_19100" data-name="Rectangle 19100" width="130" height="54" rx="10" fill="#fff"/>
  <path id="Path_45581" data-name="Path 45581" d="M3,0H93a3,3,0,0,1,3,3V19a3,3,0,0,1-3,3H3a3,3,0,0,1-3-3V3A3,3,0,0,1,3,0Z" transform="translate(17 10)" fill="#f6e8f9"/>
  <path id="Path_45582" data-name="Path 45582" d="M1.5,0h70a1.5,1.5,0,0,1,0,3H1.5a1.5,1.5,0,0,1,0-3Z" transform="translate(17 36)" fill="#f6e8f9"/>
  <path id="Path_45583" data-name="Path 45583" d="M1.5,0h25a1.5,1.5,0,0,1,0,3H1.5a1.5,1.5,0,0,1,0-3Z" transform="translate(17 42)" fill="#f6e8f9"/>
</svg>
