<svg xmlns="http://www.w3.org/2000/svg" width="15.355" height="18.07" viewBox="0 0 15.355 18.07">
  <path id="add-user_5_" data-name="add-user (5)" d="M30.178,18.069a.692.692,0,0,1-.678-.706,6.307,6.307,0,0,1,6.169-6.423h1.017a5.937,5.937,0,0,1,2.032.357.713.713,0,0,1,.417.9.672.672,0,0,1-.863.434,4.633,4.633,0,0,0-1.585-.278H35.669a4.921,4.921,0,0,0-4.813,5.011A.692.692,0,0,1,30.178,18.069Zm10.508-13.3a4.58,4.58,0,1,0-9.152,0,4.58,4.58,0,1,0,9.152,0Zm-1.356,0a3.223,3.223,0,1,1-6.44,0,3.223,3.223,0,1,1,6.44,0Zm4.847,9.07H42.144V11.717a.678.678,0,1,0-1.356,0v2.118H38.754a.706.706,0,0,0,0,1.412h2.034v2.118a.678.678,0,1,0,1.356,0V15.246h2.034a.706.706,0,0,0,0-1.412Z" transform="translate(-29.5)"/>
</svg>
