<svg id="apple_5_" data-name="apple (5)" xmlns="http://www.w3.org/2000/svg" width="22.505" height="28.842" viewBox="0 0 22.505 28.842">
  <path id="Path_29193" data-name="Path 29193" d="M47.5,4.384A5.6,5.6,0,0,0,49.114,0a7.315,7.315,0,0,0-4.581,2.08,5.365,5.365,0,0,0-1.652,4.249A6.1,6.1,0,0,0,47.5,4.384Zm3.33,11.109a6.462,6.462,0,0,1,2.983-5.422,6.387,6.387,0,0,0-5.053-2.822c-2.153-.226-4.2,1.3-5.292,1.3S40.69,7.278,38.9,7.312a6.737,6.737,0,0,0-5.717,3.573c-2.439,4.359-.625,10.817,1.752,14.353,1.162,1.731,2.545,3.673,4.362,3.6,1.754-.07,2.415-1.166,4.53-1.166s2.709,1.166,4.561,1.131c1.884-.035,3.076-1.764,4.228-3.5a15.918,15.918,0,0,0,1.914-4.049A6.275,6.275,0,0,1,50.825,15.492Z" transform="translate(-32.029)"/>
</svg>
