<svg xmlns="http://www.w3.org/2000/svg" width="29.285" height="29.283" viewBox="0 0 29.285 29.283">
  <g id="link-svgrepo-com_1_" data-name="link-svgrepo-com (1)" transform="translate(0 -0.01)">
    <path id="Path_39872" data-name="Path 39872" d="M85.629,2.328l-.023-.022a8,8,0,0,0-11.21.02l-.02.02-5.019,5.02a1.126,1.126,0,1,0,1.592,1.592l5.038-5.039L76,3.9a5.752,5.752,0,0,1,8.032.016l.02.02a5.7,5.7,0,0,1-.019,8.029L79,17.006A1.126,1.126,0,0,0,80.591,18.6l5.038-5.038A7.952,7.952,0,0,0,85.629,2.328Z" transform="translate(-58.666)"/>
    <path id="Path_39873" data-name="Path 39873" d="M17,78.989l-5.035,5.035-.029.031a5.692,5.692,0,0,1-8.02-8.078L8.95,70.941a1.127,1.127,0,0,0,.33-.8v0a1.126,1.126,0,0,0-1.941-.776L2.32,74.385A7.943,7.943,0,0,0,13.552,85.62l.033-.035,5-5A1.126,1.126,0,0,0,17,78.989Z" transform="translate(0 -58.649)"/>
    <path id="Path_39874" data-name="Path 39874" d="M57.283,68.8a1.126,1.126,0,0,0,1.592,0l9.932-9.932a1.126,1.126,0,1,0-1.592-1.592l-9.932,9.932A1.125,1.125,0,0,0,57.283,68.8Z" transform="translate(-48.404 -48.388)"/>
  </g>
</svg>
