<svg id="clock-svgrepo-com" xmlns="http://www.w3.org/2000/svg" width="17.973" height="17.973" viewBox="0 0 17.973 17.973">
  <g id="Group_47815" data-name="Group 47815">
    <path id="Path_39884" data-name="Path 39884" d="M8.987,0a8.987,8.987,0,1,0,8.987,8.987A8.978,8.978,0,0,0,8.987,0Zm0,16.48A7.494,7.494,0,1,1,16.48,8.987,7.5,7.5,0,0,1,8.987,16.48Z"/>
    <path id="Path_39885" data-name="Path 39885" d="M226.55,111.584h-.917v-3.518a.767.767,0,1,0-1.533,0v4.284a.769.769,0,0,0,.767.767h1.684a.767.767,0,1,0,0-1.533Z" transform="translate(-215.88 -103.364)"/>
  </g>
</svg>
