<svg xmlns="http://www.w3.org/2000/svg" width="17.252" height="17.252" viewBox="0 0 17.252 17.252">
  <g id="Group_49138" data-name="Group 49138" transform="translate(-7.334 -7.334)">
    <circle id="Ellipse_1609" data-name="Ellipse 1609" cx="8.626" cy="8.626" r="8.626" transform="translate(7.334 7.334)" fill="#fed947"/>
    <circle id="Ellipse_1610" data-name="Ellipse 1610" cx="6.935" cy="6.935" r="6.935" transform="translate(9.025 9.025)" fill="#f69531"/>
    <path id="Path_45538" data-name="Path 45538" d="M234.276,57.5a6.886,6.886,0,0,0-.776.044,6.845,6.845,0,0,1,0,13.6,6.845,6.845,0,1,0,.776-13.647Z" transform="translate(-218.316 -48.386)" fill="#f48a31"/>
    <path id="Path_45539" data-name="Path 45539" d="M164.918,101.962a2.586,2.586,0,0,0-.706-4.321V96.72a.26.26,0,0,0-.26-.26h-.491a.26.26,0,0,0-.26.26v.717h-.866V96.72a.26.26,0,0,0-.26-.26h-.491a.26.26,0,0,0-.26.26v.717H159.4a.289.289,0,0,0-.289.289v.723a.289.289,0,0,0,.289.289h.338a.289.289,0,0,1,.289.289v6.016a.144.144,0,0,1-.144.144H159.4a.289.289,0,0,0-.289.289v.723a.289.289,0,0,0,.289.289h1.926v.977h1.011v-.977h.866v.977h1.011v-1.181a2.586,2.586,0,0,0,.706-4.321Zm-1.713,3.226h-1.881v-2.576h1.881a1.288,1.288,0,1,1,0,2.576Zm0-3.876h-1.881V98.736h1.881a1.288,1.288,0,0,1,0,2.576Z" transform="translate(-146.491 -86.002)" fill="#fed947"/>
  </g>
</svg>
