<svg xmlns="http://www.w3.org/2000/svg" width="19.807" height="14.137" viewBox="0 0 19.807 14.137">
  <path id="Layer_2" d="M20.6,18.388a8.373,8.373,0,0,0-4.752-1.765l-.238.272a11.145,11.145,0,0,1,4.226,2.138,14.62,14.62,0,0,0-13.679,0,11.135,11.135,0,0,1,4.447-2.206l-.17-.2a8.411,8.411,0,0,0-4.752,1.765A22.407,22.407,0,0,0,3.241,28.2,6.163,6.163,0,0,0,8.417,30.76s.628-.747,1.137-1.392a5.3,5.3,0,0,1-2.97-1.986,12.567,12.567,0,0,0,4.43,1.714,12.269,12.269,0,0,0,8.808-1.714,5.381,5.381,0,0,1-3.072,2c.509.628,1.12,1.358,1.12,1.358A6.22,6.22,0,0,0,23.047,28.2,22.41,22.41,0,0,0,20.6,18.388ZM9.979,26.619a1.8,1.8,0,0,1-1.731-1.867,1.735,1.735,0,1,1,3.462,0A1.793,1.793,0,0,1,9.979,26.619Zm6.194,0a1.8,1.8,0,0,1-1.731-1.867,1.735,1.735,0,1,1,3.462,0A1.793,1.793,0,0,1,16.173,26.619Z" transform="translate(-3.24 -16.623)" fill="#6665d2"/>
</svg>
