<svg xmlns="http://www.w3.org/2000/svg" width="24.746" height="20.353" viewBox="0 0 24.746 20.353">
  <path id="fansly-seeklogo.com" d="M6.209.3a6.365,6.365,0,0,1,.858.053c.138.024.364.072.5.107s.375.106.528.158a7.037,7.037,0,0,1,1.346.668c.153.1.39.279.528.4s.616.577,1.873,1.838v.237L9.93,5.668H9.693L8.822,4.8a12.236,12.236,0,0,0-1.056-.987,4.063,4.063,0,0,0-.409-.227,3.421,3.421,0,0,0-.475-.173,3.555,3.555,0,0,0-.515-.089,3.759,3.759,0,0,0-.515,0,3.58,3.58,0,0,0-.475.077,3.656,3.656,0,0,0-.449.153,3.764,3.764,0,0,0-.462.251,3.081,3.081,0,0,0-.847.847,3.742,3.742,0,0,0-.251.462,3.637,3.637,0,0,0-.153.448,3.575,3.575,0,0,0-.078.475,3.755,3.755,0,0,0,0,.514,3.5,3.5,0,0,0,.089.514A3.4,3.4,0,0,0,3.4,7.54a4.091,4.091,0,0,0,.227.409c.085.13.472.536,2.475,2.545l4.355-4.347c2.4-2.391,4.456-4.428,4.579-4.525s.337-.253.475-.345.364-.227.5-.3.381-.186.541-.251.433-.16.607-.21.471-.119.66-.153A4.678,4.678,0,0,1,18.837.3a4.682,4.682,0,0,1,1.016.061c.189.034.486.1.66.153s.447.145.607.21.4.179.541.253.352.2.475.281.337.238.475.348a7.236,7.236,0,0,1,.542.5c.16.165.364.4.451.512s.222.306.3.422.226.389.333.607a6.963,6.963,0,0,1,.3.712c.058.174.135.453.171.62s.079.4.094.528.035.373.044.554a6.1,6.1,0,0,1-.015.7c-.017.2-.055.494-.084.646s-.083.384-.119.514-.109.35-.16.488-.145.357-.207.488-.181.35-.264.488-.23.357-.327.488-.29.362-.429.514-.559.582-1.617,1.634h-.264l-.92-.916c-.524-.522-.936-.953-.957-1a.3.3,0,0,1-.02-.158,8.435,8.435,0,0,1,.852-.917,12.6,12.6,0,0,0,.97-1.042,4.213,4.213,0,0,0,.227-.382,3.323,3.323,0,0,0,.162-.4,4.1,4.1,0,0,0,.109-.448,3.18,3.18,0,0,0,.04-.448,3.678,3.678,0,0,0-.029-.422,3.709,3.709,0,0,0-.094-.429,3.584,3.584,0,0,0-.158-.422,3.757,3.757,0,0,0-.232-.409,3.313,3.313,0,0,0-.322-.4,3.9,3.9,0,0,0-.366-.325,3.591,3.591,0,0,0-.435-.267,3.46,3.46,0,0,0-.475-.195c-.123-.037-.3-.08-.4-.1a3.628,3.628,0,0,0-.488-.029,3.56,3.56,0,0,0-.528.041,3.829,3.829,0,0,0-.409.107,3.362,3.362,0,0,0-.369.152c-.094.047-.261.145-.369.216-.146.1-.5.432-2.535,2.454l3.128,3.125a33.747,33.747,0,0,1,3.128,3.211.408.408,0,0,1-.038.158c-.021.04-1.746,1.777-3.833,3.859-2.867,2.86-3.828,3.8-3.927,3.856a1.65,1.65,0,0,1-.29.11,1.5,1.5,0,0,1-.317.041,1.526,1.526,0,0,1-.277-.028,1.664,1.664,0,0,1-.264-.1c-.127-.058-.793-.714-5.182-5.1-2.77-2.765-5.132-5.14-5.248-5.278s-.287-.363-.378-.5S.9,9.3.833,9.189.672,8.877.616,8.754.473,8.411.424,8.266.305,7.889.27,7.751s-.083-.363-.106-.5a7.057,7.057,0,0,1-.057-.8,5.138,5.138,0,0,1,.03-.883c.024-.181.074-.466.111-.633s.115-.44.172-.607S.6,3.871.683,3.69s.213-.419.28-.528.223-.334.348-.5a6.9,6.9,0,0,1,.543-.62A6.891,6.891,0,0,1,2.474,1.5c.167-.124.393-.28.5-.347S3.322.958,3.5.87,3.97.665,4.137.608s.44-.135.607-.172S5.172.35,5.325.328A5.789,5.789,0,0,1,6.209.3Zm5.279,9.538a4.327,4.327,0,0,0-.409.187,3.49,3.49,0,0,0-.486.32,3.546,3.546,0,0,0-.429.428,3,3,0,0,0-.352.554,3.261,3.261,0,0,0-.227.58,2.577,2.577,0,0,0-.082.646,2.6,2.6,0,0,0,.029.607,3.984,3.984,0,0,0,.1.4,4.014,4.014,0,0,0,.169.409,3.315,3.315,0,0,0,.271.448,3.747,3.747,0,0,0,.359.4,3.522,3.522,0,0,0,.407.325,3.755,3.755,0,0,0,.363.209c.087.041.233.1.323.13s.251.073.356.1a3.675,3.675,0,0,0,.455.056,2.961,2.961,0,0,0,.5-.017,3.848,3.848,0,0,0,.462-.1,3.664,3.664,0,0,0,.435-.164,3.706,3.706,0,0,0,.422-.242,3.205,3.205,0,0,0,.778-.777,3.635,3.635,0,0,0,.242-.422,3.678,3.678,0,0,0,.163-.435,3.821,3.821,0,0,0,.1-.488,3.035,3.035,0,0,0,.017-.5,3.619,3.619,0,0,0-.055-.422c-.022-.1-.065-.262-.1-.356a3.765,3.765,0,0,0-.186-.422,3.6,3.6,0,0,0-.258-.422,3.541,3.541,0,0,0-.324-.357,3.671,3.671,0,0,0-.392-.319,3.857,3.857,0,0,0-.33-.2,3.98,3.98,0,0,0-.369-.15,3.443,3.443,0,0,0-.462-.122,3.81,3.81,0,0,0-.541-.037,2.954,2.954,0,0,0-.554.052,3.735,3.735,0,0,0-.4.106Zm1.043.907a2.372,2.372,0,0,1,.364.045c.107.027.135.044.122.074s-.033.081-.052.132a.714.714,0,0,0-.036.2.844.844,0,0,0,.051.251.984.984,0,0,0,.128.231.913.913,0,0,0,.218.171.538.538,0,0,0,.34.079c.175,0,.216-.01.5-.171l.055.125a2.689,2.689,0,0,1,.109.336,1.471,1.471,0,0,1,.04.528,1.734,1.734,0,0,1-.072.488,2.616,2.616,0,0,1-.134.317,2.349,2.349,0,0,1-.2.3,1.807,1.807,0,0,1-.652.514,2.472,2.472,0,0,1-.4.146,1.751,1.751,0,0,1-.515.033,1.563,1.563,0,0,1-.541-.084,2.349,2.349,0,0,1-.4-.186,2.366,2.366,0,0,1-.383-.322,1.643,1.643,0,0,1-.309-.432,2.458,2.458,0,0,1-.154-.395,2.531,2.531,0,0,1-.056-.382,1.917,1.917,0,0,1,.025-.422,2.336,2.336,0,0,1,.108-.382,2.8,2.8,0,0,1,.155-.316,2.2,2.2,0,0,1,.6-.6,2.857,2.857,0,0,1,.316-.155,2.255,2.255,0,0,1,.356-.1,2.03,2.03,0,0,1,.409-.024Z" transform="translate(-0.104 -0.296)" fill="#2699f7"/>
</svg>
