<svg xmlns="http://www.w3.org/2000/svg" width="23.473" height="21.082" viewBox="0 0 23.473 21.082">
  <path id="fansly" d="M5.9.3a5.536,5.536,0,0,1,.814.055c.131.025.345.074.475.111s.356.11.5.164a6.567,6.567,0,0,1,.638.3,6.72,6.72,0,0,1,.638.392c.145.105.37.289.5.41s.584.6,1.777,1.9V3.88L9.424,5.861H9.2l-.826-.9a12.069,12.069,0,0,0-1-1.022,3.773,3.773,0,0,0-.388-.236,3.073,3.073,0,0,0-.451-.179,3.114,3.114,0,0,0-.488-.092,3.266,3.266,0,0,0-.488,0,3.134,3.134,0,0,0-.451.08,3.272,3.272,0,0,0-.426.158,3.486,3.486,0,0,0-.438.26,3.386,3.386,0,0,0-.441.4,3.568,3.568,0,0,0-.362.481,4,4,0,0,0-.238.478,4.01,4.01,0,0,0-.145.464,4.019,4.019,0,0,0-.074.492,4.248,4.248,0,0,0,0,.533,3.934,3.934,0,0,0,.085.533,3.74,3.74,0,0,0,.164.492,4.365,4.365,0,0,0,.215.423c.081.134.447.555,2.347,2.637l4.13-4.5C12.2,3.88,14.151,1.77,14.268,1.669s.32-.262.451-.357.345-.235.475-.31.362-.193.513-.26.411-.166.576-.218S16.73.4,16.909.365A4.071,4.071,0,0,1,17.873.3a4.074,4.074,0,0,1,.964.063c.179.035.461.106.626.158s.424.15.576.218.382.186.513.262.333.207.451.291.32.246.451.361a7.139,7.139,0,0,1,.514.52c.152.171.345.41.428.53s.211.317.283.437.214.4.316.628a7.593,7.593,0,0,1,.284.738c.055.18.128.469.162.642s.075.419.09.547.033.386.042.574a6.9,6.9,0,0,1-.014.724c-.016.21-.052.512-.08.669s-.079.4-.113.533-.1.363-.152.506-.137.37-.2.506-.172.363-.251.506-.218.37-.31.506-.275.375-.407.533-.531.6-1.534,1.693h-.25l-.873-.949c-.5-.541-.888-.987-.908-1.038a.332.332,0,0,1-.019-.164,8.515,8.515,0,0,1,.808-.95,12.7,12.7,0,0,0,.92-1.079,4.469,4.469,0,0,0,.215-.4,3.633,3.633,0,0,0,.154-.417,4.578,4.578,0,0,0,.1-.464,3.59,3.59,0,0,0,.038-.464,4.156,4.156,0,0,0-.028-.437,4.148,4.148,0,0,0-.09-.444,3.935,3.935,0,0,0-.149-.437,4,4,0,0,0-.22-.423,3.393,3.393,0,0,0-.305-.411,3.828,3.828,0,0,0-.347-.336,3.369,3.369,0,0,0-.413-.276,3.131,3.131,0,0,0-.451-.2,3.768,3.768,0,0,0-.375-.1,3.155,3.155,0,0,0-.463-.03,3.1,3.1,0,0,0-.5.043,3.388,3.388,0,0,0-.388.111,3.044,3.044,0,0,0-.35.158c-.09.049-.247.15-.35.223-.139.1-.476.448-2.4,2.542l2.967,3.238A33.9,33.9,0,0,1,19.8,13.067a.455.455,0,0,1-.036.164c-.02.041-1.656,1.84-3.636,4-2.719,2.962-3.631,3.94-3.725,3.994a1.486,1.486,0,0,1-.275.114,1.309,1.309,0,0,1-.3.042,1.33,1.33,0,0,1-.263-.029,1.493,1.493,0,0,1-.25-.1c-.12-.061-.752-.74-4.915-5.278-2.627-2.865-4.867-5.325-4.978-5.468s-.272-.376-.358-.519S.856,9.628.8,9.508.643,9.185.589,9.057.454,8.7.407,8.552s-.112-.39-.145-.533S.183,7.643.161,7.5a7.973,7.973,0,0,1-.054-.833,5.809,5.809,0,0,1,.028-.915c.023-.188.07-.483.106-.656S.35,4.64.4,4.467.571,4,.653,3.811s.2-.434.266-.547.212-.346.33-.519A7,7,0,0,1,1.763,2.1a6.749,6.749,0,0,1,.589-.562c.158-.129.372-.29.475-.36s.328-.2.5-.29a6.45,6.45,0,0,1,.6-.272C4.088.56,4.347.48,4.505.441s.406-.089.551-.111A5.031,5.031,0,0,1,5.894.3Zm5.007,9.88a3.946,3.946,0,0,0-.388.193,3.3,3.3,0,0,0-.461.332,3.533,3.533,0,0,0-.407.443,3.162,3.162,0,0,0-.334.574,3.572,3.572,0,0,0-.215.6,2.9,2.9,0,0,0-.078.669,2.939,2.939,0,0,0,.028.628c.022.128.063.312.092.41a4.382,4.382,0,0,0,.161.423,3.509,3.509,0,0,0,.257.464,3.791,3.791,0,0,0,.341.417,3.409,3.409,0,0,0,.386.337,3.5,3.5,0,0,0,.344.216,3.2,3.2,0,0,0,.307.135c.086.031.238.076.338.1a3.207,3.207,0,0,0,.432.058,2.574,2.574,0,0,0,.475-.018,3.383,3.383,0,0,0,.438-.1,3.3,3.3,0,0,0,.413-.17,3.452,3.452,0,0,0,.4-.251,3.533,3.533,0,0,0,.4-.368,3.674,3.674,0,0,0,.337-.437,3.867,3.867,0,0,0,.23-.437,4.037,4.037,0,0,0,.155-.451,4.281,4.281,0,0,0,.093-.506,3.432,3.432,0,0,0,.016-.519,4.076,4.076,0,0,0-.053-.437c-.021-.105-.062-.271-.091-.369a4.094,4.094,0,0,0-.176-.437,3.807,3.807,0,0,0-.245-.437,3.243,3.243,0,0,0-.679-.7,3.613,3.613,0,0,0-.313-.208,3.6,3.6,0,0,0-.35-.155,3.047,3.047,0,0,0-.438-.126,3.315,3.315,0,0,0-.513-.038,2.573,2.573,0,0,0-.526.054,3.309,3.309,0,0,0-.375.11Zm.989.94a2.07,2.07,0,0,1,.345.047c.1.028.128.045.116.077s-.031.084-.05.137a.8.8,0,0,0-.034.212.945.945,0,0,0,.048.26,1.049,1.049,0,0,0,.122.239.883.883,0,0,0,.207.178.477.477,0,0,0,.323.082c.166,0,.2-.011.475-.178l.052.13a2.971,2.971,0,0,1,.1.348,1.659,1.659,0,0,1,.038.547,1.95,1.95,0,0,1-.068.506,2.85,2.85,0,0,1-.127.328,2.46,2.46,0,0,1-.193.314,2.285,2.285,0,0,1-.269.3,2.143,2.143,0,0,1-.349.237,2.222,2.222,0,0,1-.375.151,1.525,1.525,0,0,1-.488.034,1.369,1.369,0,0,1-.513-.087,2.149,2.149,0,0,1-.375-.193,2.305,2.305,0,0,1-.363-.334A1.709,1.709,0,0,1,10.221,14a2.693,2.693,0,0,1-.146-.409,2.848,2.848,0,0,1-.053-.4,2.166,2.166,0,0,1,.024-.437,2.6,2.6,0,0,1,.1-.4,3.018,3.018,0,0,1,.147-.327,2.194,2.194,0,0,1,.257-.341,2.093,2.093,0,0,1,.313-.281,2.623,2.623,0,0,1,.3-.161,2,2,0,0,1,.338-.109,1.766,1.766,0,0,1,.388-.025Z" transform="translate(-0.104 -0.297)"/>
</svg>
