<svg id="google" xmlns="http://www.w3.org/2000/svg" width="23.678" height="23.678" viewBox="0 0 23.678 23.678">
  <path id="Path_25" data-name="Path 25" d="M75.492,6.6a7.435,7.435,0,0,1,10.242-.322.5.5,0,0,0,.67-.021l2.413-2.413a.49.49,0,0,0-.013-.706,11.821,11.821,0,0,0-16.415.36,13.431,13.431,0,0,0,.04,3.095S74.17,7.933,75.492,6.6Z" transform="translate(-68.937 0)"/>
  <path id="Path_26" data-name="Path 26" d="M100.538,47.449a7.435,7.435,0,0,1,10.243-.322.5.5,0,0,0,.67-.021l1.385-1.385c-.121-.093-.24-.191-.356-.294a10.015,10.015,0,0,0-6.762-2.589,9.813,9.813,0,0,0-6.89,2.9,6.193,6.193,0,0,0-.268,1.706S98.784,47.424,100.538,47.449Z" transform="translate(-93.983 -40.849)"/>
  <path id="Path_27" data-name="Path 27" d="M4.39,83.614a7.428,7.428,0,0,0,2.2,5.358L5.538,91.251l-2.047.824A11.821,11.821,0,0,1,3.451,75.34l3.1,3.1A7.422,7.422,0,0,0,4.39,83.614Z" transform="translate(0 -71.842)"/>
  <path id="Path_28" data-name="Path 28" d="M45.243,112.211a7.428,7.428,0,0,0,2.2,5.358l-1.7,1.7A9.866,9.866,0,0,1,45.7,105.33l1.711,1.711A7.422,7.422,0,0,0,45.243,112.211Z" transform="translate(-40.853 -100.44)"/>
  <path id="Path_29" data-name="Path 29" d="M88.794,368.956a7.464,7.464,0,0,1-10.494-.007l-3.1,3.1a11.763,11.763,0,0,0,16.664-.031l-.887-1.9Z" transform="translate(-71.705 -351.82)"/>
  <path id="Path_30" data-name="Path 30" d="M117.681,368.955a7.463,7.463,0,0,1-10.494-.006l-1.7,1.7a9.848,9.848,0,0,0,13.882,0Z" transform="translate(-100.593 -351.82)"/>
  <path id="Path_31" data-name="Path 31" d="M267.2,220.132a.423.423,0,0,0-.423-.423h-11.02a.379.379,0,0,0-.379.379v3.644a.379.379,0,0,0,.379.379h5.382a.714.714,0,0,1,.613,1.08,7.418,7.418,0,0,1-1.137,1.449l0,0,3.067,3.067q.217-.217.44-.435a11.951,11.951,0,0,0,3.082-8.02Z" transform="translate(-243.527 -209.509)"/>
  <path id="Path_32" data-name="Path 32" d="M264.718,267.159A2.021,2.021,0,0,0,262.8,264.5h-7.418v1.943a.379.379,0,0,0,.379.379h5.382a.714.714,0,0,1,.614,1.08,7.425,7.425,0,0,1-1.133,1.445l-.009.009,1.691,1.691a9.855,9.855,0,0,0,2.129-3.139Q264.591,267.54,264.718,267.159Z" transform="translate(-243.527 -252.22)"/>
</svg>
