<svg id="Group_49139" data-name="Group 49139" xmlns="http://www.w3.org/2000/svg" width="130" height="53" viewBox="0 0 130 53">
  <rect id="Rectangle_19100" data-name="Rectangle 19100" width="130" height="53" rx="10" fill="#fff"/>
  <path id="Path_45581" data-name="Path 45581" d="M4,0H26.767a4,4,0,0,1,4,4V15.324a4,4,0,0,1-4,4H4a4,4,0,0,1-4-4V4A4,4,0,0,1,4,0Z" transform="translate(32.447 5.961)" fill="#bfbfbf"/>
  <path id="Path_45584" data-name="Path 45584" d="M4,0H26.767a4,4,0,0,1,4,4V15.324a4,4,0,0,1-4,4H4a4,4,0,0,1-4-4V4A4,4,0,0,1,4,0Z" transform="translate(32.447 28.046)" fill="#bfbfbf"/>
  <path id="Path_45582" data-name="Path 45582" d="M4,0H26.767a4,4,0,0,1,4,4V15.324a4,4,0,0,1-4,4H4a4,4,0,0,1-4-4V4A4,4,0,0,1,4,0Z" transform="translate(66.191 5.961)" fill="#bfbfbf"/>
  <path id="Path_45583" data-name="Path 45583" d="M4,0H26.767a4,4,0,0,1,4,4V15.324a4,4,0,0,1-4,4H4a4,4,0,0,1-4-4V4A4,4,0,0,1,4,0Z" transform="translate(66.191 28.046)" fill="#bfbfbf"/>
</svg>
