<svg xmlns="http://www.w3.org/2000/svg" width="20.305" height="22.082" viewBox="0 0 20.305 22.082">
  <g id="XMLID_13_" transform="translate(0.5 0.5)">
    <path id="XMLID_17_" d="M13.553,0h-7.8A6.04,6.04,0,0,0,0,6.281V14.8a6.04,6.04,0,0,0,5.751,6.281h7.8A6.04,6.04,0,0,0,19.3,14.8V6.281A6.04,6.04,0,0,0,13.553,0Zm3.809,14.8a4,4,0,0,1-3.809,4.16h-7.8A4,4,0,0,1,1.942,14.8V6.281a4,4,0,0,1,3.809-4.16h7.8a4,4,0,0,1,3.809,4.16V14.8Z" transform="translate(0 0)" stroke="#fff" strokeWidth="1"/>
    <path id="XMLID_81_" d="M137.993,133a5.474,5.474,0,1,0,4.993,5.453A5.244,5.244,0,0,0,137.993,133Zm0,8.785a3.345,3.345,0,1,1,3.051-3.332A3.2,3.2,0,0,1,137.993,141.785Z" transform="translate(-128.341 -127.911)" stroke="#fff" strokeWidth="1"/>
    <ellipse id="XMLID_83_" cx="1.196" cy="1.307" rx="1.196" ry="1.307" transform="translate(13.458 3.823)" stroke="#fff" strokeWidth="1"/>
  </g>
</svg>
