<svg xmlns="http://www.w3.org/2000/svg" width="16.18" height="18.226" viewBox="0 0 16.18 18.226">
  <g id="Group_49140" data-name="Group 49140" transform="translate(-2.75 -1.25)">
    <path id="Path_45396" data-name="Path 45396" d="M16.181,9h-7.5A.682.682,0,0,1,8,8.317V5.931a4.431,4.431,0,1,1,8.863,0V8.317A.682.682,0,0,1,16.181,9ZM9.363,7.636H15.5v-1.7a3.068,3.068,0,1,0-6.136,0Z" transform="translate(-1.591)" stroke="#fff" strokeWidth="0.5"/>
    <path id="Path_45397" data-name="Path 45397" d="M16.635,22.089H5.045A2.048,2.048,0,0,1,3,20.044v-7.5A2.048,2.048,0,0,1,5.045,10.5H16.635a2.048,2.048,0,0,1,2.045,2.045v7.5A2.048,2.048,0,0,1,16.635,22.089ZM5.045,11.863a.682.682,0,0,0-.682.682v7.5a.682.682,0,0,0,.682.682H16.635a.682.682,0,0,0,.682-.682v-7.5a.682.682,0,0,0-.682-.682Z" transform="translate(0 -2.864)" stroke="#fff" strokeWidth="0.5"/>
  </g>
</svg>
