<svg id="spotify-svgrepo-com_1_" data-name="spotify-svgrepo-com (1)" xmlns="http://www.w3.org/2000/svg" width="30.422" height="30.422" viewBox="0 0 30.422 30.422">
  <g id="Group_47840" data-name="Group 47840" transform="translate(5.261 8.388)">
    <path id="Path_39900" data-name="Path 39900" d="M131.527,338.588a18.1,18.1,0,0,0-8.737-2.243,18.441,18.441,0,0,0-5.372.809c-.365.119-.645,1.107-.51,1.552a.772.772,0,0,0,.743.545.8.8,0,0,0,.234-.035,16.6,16.6,0,0,1,12.885,1.31.779.779,0,0,0,1.057-.3,1.553,1.553,0,0,0,.065-.908A1.081,1.081,0,0,0,131.527,338.588Z" transform="translate(-115.191 -324.748)" fill="#fff"/>
    <path id="Path_39901" data-name="Path 39901" d="M120.383,244.689a22.94,22.94,0,0,0-16.568-1.762c-.482.131-.807,1.066-.665,1.6a.949.949,0,0,0,.914.7.966.966,0,0,0,.251-.034,21.019,21.019,0,0,1,15.191,1.608.974.974,0,0,0,.442.109c.213,0,.549-.378.837-.941a.948.948,0,0,0,.067-.733A.929.929,0,0,0,120.383,244.689Z" transform="translate(-102.25 -236.124)" fill="#fff"/>
    <path id="Path_39902" data-name="Path 39902" d="M108.6,144.094a27.65,27.65,0,0,0-12.453-2.924,28.349,28.349,0,0,0-6.755.823,1.283,1.283,0,0,0-.811,1.507,1.117,1.117,0,0,0,1.086.846,1.145,1.145,0,0,0,.274-.033,26.041,26.041,0,0,1,6.205-.757,25.385,25.385,0,0,1,11.461,2.694,1.169,1.169,0,0,0,.491.111,1.282,1.282,0,0,0,1.01-.757,1.126,1.126,0,0,0,.059-.862A1.113,1.113,0,0,0,108.6,144.094Z" transform="translate(-88.549 -141.17)" fill="#fff"/>
  </g>
  <path id="Path_39903" data-name="Path 39903" d="M15.205,0A15.211,15.211,0,1,0,30.422,15.206,15.223,15.223,0,0,0,15.205,0ZM21.9,23.862a.779.779,0,0,1-1.057.3,16.6,16.6,0,0,0-12.885-1.31.807.807,0,0,1-.234.035.772.772,0,0,1-.743-.545c-.135-.445.145-1.432.51-1.552a18.44,18.44,0,0,1,5.372-.809A18.1,18.1,0,0,1,21.6,22.228a1.081,1.081,0,0,1,.366.725A1.552,1.552,0,0,1,21.9,23.862Zm1.9-5.627c-.288.563-.624.941-.837.941a.974.974,0,0,1-.442-.109A21.019,21.019,0,0,0,7.326,17.459a.962.962,0,0,1-.251.034.949.949,0,0,1-.914-.7c-.143-.535.183-1.47.665-1.6a22.94,22.94,0,0,1,16.569,1.762.929.929,0,0,1,.469.548A.947.947,0,0,1,23.8,18.234Zm2.026-5.413a1.282,1.282,0,0,1-1.01.757,1.171,1.171,0,0,1-.491-.111,25.385,25.385,0,0,0-11.461-2.694,26.044,26.044,0,0,0-6.205.757,1.144,1.144,0,0,1-.274.034A1.117,1.117,0,0,1,5.3,10.718a1.283,1.283,0,0,1,.811-1.507,28.351,28.351,0,0,1,6.755-.823,27.65,27.65,0,0,1,12.453,2.924,1.114,1.114,0,0,1,.567.648A1.126,1.126,0,0,1,25.822,12.821Z" fill="#9bd44e"/>
</svg>
