<svg xmlns="http://www.w3.org/2000/svg" width="15.584" height="18.03" viewBox="0 0 15.584 18.03">
  <g id="notification-svgrepo-com" transform="translate(-22.504)">
    <path id="Path_39719" data-name="Path 39719" d="M38.088,11.69H36.464V7.3a5.081,5.081,0,0,0-3.541-4.836A2.537,2.537,0,0,0,30.391,0h-.043a2.537,2.537,0,0,0-2.531,2.416A5.081,5.081,0,0,0,24.126,7.3V11.69H22.5v4.166h5.244a2.581,2.581,0,0,0,5.1,0h5.244V11.69ZM30.348.815h.043a1.721,1.721,0,0,1,1.7,1.458,5.093,5.093,0,0,0-.7-.048H29.2a5.1,5.1,0,0,0-.546.029A1.721,1.721,0,0,1,30.348.815Zm-.053,16.4a1.769,1.769,0,0,1-1.718-1.359h3.436A1.769,1.769,0,0,1,30.3,17.216Zm6.977-2.174H23.318V12.506h1.623V7.3A4.261,4.261,0,0,1,29.2,3.04h2.195A4.261,4.261,0,0,1,35.649,7.3v5.209h1.623Z"/>
  </g>
</svg>
