<svg id="onlyfans-svgrepo-com" xmlns="http://www.w3.org/2000/svg" width="30.91" height="31.436" viewBox="0 0 30.91 31.436">
  <path id="Path_37090" data-name="Path 37090" d="M271.315,251.5a15.72,15.72,0,1,0,15.455,15.718A15.588,15.588,0,0,0,271.315,251.5Zm0,29.8a14.08,14.08,0,1,1,13.842-14.078A13.962,13.962,0,0,1,271.315,281.3Zm6.41-15.092v-1.285a5.782,5.782,0,0,0-5.76-5.765h-1.032a5.781,5.781,0,0,0-5.759,5.765V266.2l-.712,1.312v1.892a6.426,6.426,0,0,0,6.412,6.421h1.151a6.435,6.435,0,0,0,6.411-6.421v-1.893Zm-5.6,5.8v1.514a.669.669,0,0,1-.3.559l0,0,0,0h0l0,0h0l0,0,0,0h0l-.008,0,0,0,0,0h-.008l0,0h0l0,0,0,0h-.009l-.008,0h-.005l0,0,0,0h-.008l0,0h-.008l0,0h0l0,0h0l0,0h0l0,0h-.013l0,0h-.008l0,0h-.018l0,0H271.6v0h-.013l-.013,0h-.018a.383.383,0,0,1-.1.008h0a.327.327,0,0,1-.066,0,.269.269,0,0,1-.084-.013h0l-.008,0h-.005l-.013,0-.018,0h-.008l0,0h0l-.009,0h0l-.03-.013-.013,0v0h-.009l0,0h0l0,0-.009,0h0l-.009,0,0,0-.009,0,0,0-.009,0h-.008l-.008,0a.675.675,0,0,1-.308-.567v-1.516a1.81,1.81,0,0,1,.658-3.486h.035a1.81,1.81,0,0,1,.655,3.486Zm3.033-5.765h-7.411v-1.327a3.2,3.2,0,0,1,3.186-3.189h1.034a3.2,3.2,0,0,1,3.191,3.191Z" transform="translate(-255.86 -251.5)" fill="#2181e2"/>
</svg>
