<svg xmlns="http://www.w3.org/2000/svg" width="19.193" height="19.188" viewBox="0 0 19.193 19.188">
  <path id="Path_45581" data-name="Path 45581" d="M20.284,3.827a2.009,2.009,0,0,0-2.172-.445A21.072,21.072,0,0,0,7.53,12.8a1.974,1.974,0,0,0-.21.545,5.361,5.361,0,0,0-3.463,2.005,5.594,5.594,0,0,0-1.073,4.28L3,21.109l1.482.218a6.117,6.117,0,0,0,.885.064,5.383,5.383,0,0,0,5.4-4.592,2.012,2.012,0,0,0,.547-.219A21.066,21.066,0,0,0,20.729,6a2.015,2.015,0,0,0-.445-2.172ZM5.369,19.38a4.312,4.312,0,0,1-.594-.044A3.426,3.426,0,0,1,7.794,15.29l1.027,1.027A3.391,3.391,0,0,1,5.369,19.38Zm4.92-4.53L9.262,13.823c.382-.645.779-1.241,1.185-1.815.027.041,1.649,1.663,1.649,1.663C11.525,14.074,10.931,14.47,10.289,14.85Zm2.624-1.784s-1.832-1.812-1.891-1.835a18.078,18.078,0,0,1,7.839-5.98A18.1,18.1,0,0,1,12.913,13.066Z" transform="translate(-2.212 -2.704)" stroke="#fff" strokeWidth="1"/>
</svg>
