<svg xmlns="http://www.w3.org/2000/svg" width="16.058" height="16.058" viewBox="0 0 16.058 16.058">
  <g id="Layer_2" data-name="Layer 2" transform="translate(-3 -3)">
    <g id="image" transform="translate(3 3)">
      <path id="Path_45534" data-name="Path 45534" d="M16.381,3H5.676A2.676,2.676,0,0,0,3,5.676V16.381a2.676,2.676,0,0,0,2.676,2.676H16.381a2.676,2.676,0,0,0,2.676-2.676V5.676A2.676,2.676,0,0,0,16.381,3ZM5.676,4.784H16.381a.892.892,0,0,1,.892.892v7.458L14.419,10.7a2.471,2.471,0,0,0-3.14,0L4.784,16.114V5.676A.892.892,0,0,1,5.676,4.784Z" transform="translate(-3 -3)"/>
      <circle id="Ellipse_1608" data-name="Ellipse 1608" cx="1.338" cy="1.338" r="1.338" transform="translate(3.122 3.568)"/>
    </g>
  </g>
</svg>
