<svg xmlns="http://www.w3.org/2000/svg" width="20.63" height="16.42" viewBox="0 0 20.63 16.42">
  <g id="Group_49140" data-name="Group 49140" transform="translate(4.593 -3.29)">
    <g id="image-svgrepo-com" transform="translate(-4.493 3.39)">
      <path id="Path_39713" data-name="Path 39713" d="M19.77,23.935H.66a.659.659,0,0,0-.66.66V39.5a.659.659,0,0,0,.66.66H19.77a.659.659,0,0,0,.66-.66v-14.9A.66.66,0,0,0,19.77,23.935Zm-.66,1.319V37.837l-5.276-5.61a.659.659,0,0,0-.48-.208h0a.66.66,0,0,0-.48.208l-2.253,2.394L7.6,30.638a.659.659,0,0,0-.526-.261h0a.659.659,0,0,0-.526.262l-5.23,6.92v-12.3Zm-.871,13.582H2.007l5.069-6.707,2.965,3.91a.66.66,0,0,0,1.006.053l2.307-2.452Z" transform="translate(0 -23.935)" stroke="#f0f0fe" strokeWidth="0.2"/>
      <path id="Path_39714" data-name="Path 39714" d="M132.749,56.7a2.168,2.168,0,1,0-2.168-2.168A2.171,2.171,0,0,0,132.749,56.7Zm0-3.018a.849.849,0,1,1-.849.849A.85.85,0,0,1,132.749,53.687Z" transform="translate(-119.098 -49.868)" stroke="#f0f0fe" strokeWidth="0.2"/>
    </g>
  </g>
</svg>
