<svg xmlns="http://www.w3.org/2000/svg" width="15.244" height="15.243" viewBox="0 0 15.244 15.243">
  <g id="Group_49140" data-name="Group 49140" transform="translate(-2 -2)">
    <path id="Path_45403" data-name="Path 45403" d="M20.62,3.952l-.88-.88a3.658,3.658,0,0,0-5.174,0L12.8,4.833a.544.544,0,1,0,.77.77l1.762-1.761a2.569,2.569,0,0,1,3.634,0l.88.88a2.569,2.569,0,0,1,0,3.634L17.209,11a2.57,2.57,0,0,1-3.635,0l-.881-.88a.544.544,0,1,0-.77.77l.881.88a3.658,3.658,0,0,0,5.174,0L20.62,9.126a3.658,3.658,0,0,0,0-5.174Z" transform="translate(-4.448)"/>
    <path id="Path_45404" data-name="Path 45404" d="M10.118,17.326,8.356,19.088a2.57,2.57,0,0,1-3.634,0l-.881-.88a2.57,2.57,0,0,1,0-3.634l2.643-2.642a2.57,2.57,0,0,1,3.634,0l.88.88a.544.544,0,1,0,.77-.77l-.88-.88a3.658,3.658,0,0,0-5.174,0L3.071,13.8a3.659,3.659,0,0,0,0,5.174l.881.88a3.658,3.658,0,0,0,5.174,0L10.888,18.1a.544.544,0,1,0-.77-.77Z" transform="translate(0 -3.685)"/>
  </g>
</svg>
