<svg xmlns="http://www.w3.org/2000/svg" width="20.443" height="34.072" viewBox="0 0 20.443 34.072">
  <path id="Path_45581" data-name="Path 45581" d="M19.629,17.332H12.814a3.407,3.407,0,0,1,0-6.814h8.518a1.7,1.7,0,0,1,1.7,1.7,1.7,1.7,0,1,0,3.407,0,5.111,5.111,0,0,0-5.111-5.111H17.925V3.7a1.7,1.7,0,1,0-3.407,0V7.111h-1.7a6.814,6.814,0,0,0,0,13.629h6.814a3.407,3.407,0,1,1,0,6.814H11.111a1.7,1.7,0,0,1-1.7-1.7A1.7,1.7,0,1,0,6,25.85a5.111,5.111,0,0,0,5.111,5.111h3.407v3.407a1.7,1.7,0,0,0,3.407,0V30.961h1.7a6.814,6.814,0,1,0,0-13.629Z" transform="translate(-6 -2)"/>
</svg>
