<svg id="Group_49139" data-name="Group 49139" xmlns="http://www.w3.org/2000/svg" width="13.154" height="18.068" viewBox="0 0 13.154 18.068">
  <path id="Path_37091" data-name="Path 37091" d="M57.544,12.392a2.43,2.43,0,0,0-1.393.443l-4.065-3.1a3.087,3.087,0,0,0,0-1.566l3.955-3.016a2.441,2.441,0,0,0,1.5.523,2.727,2.727,0,0,0,2.6-2.839,2.609,2.609,0,1,0-5.2,0,3.1,3.1,0,0,0,.059.6L50.949,6.534a2.427,2.427,0,0,0-1.361-.42,2.727,2.727,0,0,0-2.6,2.839,2.727,2.727,0,0,0,2.6,2.839,2.427,2.427,0,0,0,1.361-.42l4.087,3.116a3.088,3.088,0,0,0-.091.744,2.609,2.609,0,1,0,5.2,0A2.727,2.727,0,0,0,57.544,12.392Z" transform="translate(-46.989)"/>
</svg>
