<svg xmlns="http://www.w3.org/2000/svg" width="16.644" height="18.928" viewBox="0 0 16.644 18.928">
  <g id="Group_49138" data-name="Group 49138" transform="translate(-0.038 -0.779)">
    <path id="Path_45540" data-name="Path 45540" d="M14.616,4.464a.183.183,0,0,0-.165-.154L12.927,4.2,11.805,3.083a.46.46,0,0,0-.412-.052l-.565.175c-.338-.971-.933-1.864-1.981-1.864l-.088,0A1.273,1.273,0,0,0,7.773.779c-2.441,0-3.607,3.052-3.973,4.6l-1.708.53c-.529.166-.546.183-.616.682C1.423,6.97.038,17.684.038,17.684l10.795,2.023,5.849-1.265S14.629,4.559,14.616,4.464ZM10.232,3.39l-.913.283c0-.064,0-.128,0-.2A4.48,4.48,0,0,0,9.1,2C9.641,2.068,10,2.683,10.232,3.39ZM8.431,2.12a4.528,4.528,0,0,1,.248,1.644c0,.037,0,.071,0,.106l-1.886.584A3.226,3.226,0,0,1,8.431,2.12Zm-.725-.687a.551.551,0,0,1,.313.106A4.058,4.058,0,0,0,6.044,4.686l-1.491.462c.415-1.412,1.4-3.714,3.153-3.714Z" fill="#95bf46"/>
    <path id="Path_45541" data-name="Path 45541" d="M169.341,36.341l-1.524-.114L166.7,35.114a.277.277,0,0,0-.156-.072l-.816,16.695,5.848-1.265s-2.053-13.882-2.066-13.977a.183.183,0,0,0-.165-.154" transform="translate(-154.891 -32.031)" fill="#5e8e3e"/>
    <path id="Path_45542" data-name="Path 45542" d="M45.477,100.53l-.721,2.145a3.318,3.318,0,0,0-1.406-.337c-1.136,0-1.193.713-1.193.892,0,.98,2.554,1.355,2.554,3.65a2.706,2.706,0,0,1-2.689,2.968,3.742,3.742,0,0,1-2.8-1.153l.5-1.639a3.547,3.547,0,0,0,1.8.836.725.725,0,0,0,.756-.732c0-1.278-2.1-1.335-2.1-3.435A3.491,3.491,0,0,1,44,100.247a3.151,3.151,0,0,1,1.474.283" transform="translate(-36.63 -92.987)" fill="#fff"/>
  </g>
</svg>
