<svg xmlns="http://www.w3.org/2000/svg" width="20.668" height="21.082" viewBox="0 0 20.668 21.082">
  <path id="snapchat-svgrepo-com_1_" data-name="snapchat-svgrepo-com (1)" d="M10.512.793a5.449,5.449,0,0,1,5.107,3.594,12.31,12.31,0,0,1,.257,4.559l0,.056c-.01.169-.019.324-.026.48a.624.624,0,0,0,.345.085,2.267,2.267,0,0,0,.89-.283.8.8,0,0,1,.4-.1,1.09,1.09,0,0,1,.438.085.876.876,0,0,1,.632.788q.019.633-1.045,1.1c-.077.027-.18.071-.3.112-.388.127-.981.339-1.148.762a1.063,1.063,0,0,0,.1.816l.013.014c.052.128,1.314,3.268,4.126,3.775a.461.461,0,0,1,.362.479.616.616,0,0,1-.039.212c-.207.535-1.1.929-2.709,1.2a2.7,2.7,0,0,0-.141.536,4.077,4.077,0,0,1-.115.52.458.458,0,0,1-.478.381h-.026a2.53,2.53,0,0,1-.463-.07,4.776,4.776,0,0,0-1.1-.127,3.84,3.84,0,0,0-.786.07,3.753,3.753,0,0,0-1.484.831,4.487,4.487,0,0,1-2.837,1.211c-.052,0-.1-.014-.155-.014h-.128a4.381,4.381,0,0,1-2.824-1.211,3.714,3.714,0,0,0-1.47-.831,5.233,5.233,0,0,0-.8-.07,4.974,4.974,0,0,0-1.1.14,2.283,2.283,0,0,1-.465.07.49.49,0,0,1-.5-.4c-.053-.181-.078-.366-.116-.533a2.671,2.671,0,0,0-.143-.536c-1.652-.209-2.54-.6-2.746-1.153A.608.608,0,0,1,0,17.129a.458.458,0,0,1,.362-.479C3.173,16.142,4.436,13,4.488,12.869l.014-.027a1.014,1.014,0,0,0,.1-.817c-.168-.408-.761-.619-1.147-.761a1.816,1.816,0,0,1-.3-.112c-.953-.409-1.083-.875-1.031-1.2a1.025,1.025,0,0,1,1.006-.746.809.809,0,0,1,.33.07,2.2,2.2,0,0,0,.951.282.76.76,0,0,0,.4-.1l-.04-.535A12.3,12.3,0,0,1,5.04,4.377,5.365,5.365,0,0,1,10.1.806L10.46.792h.052Z" transform="translate(0 -0.793)"/>
</svg>
