<svg xmlns="http://www.w3.org/2000/svg" width="21.857" height="20.352" viewBox="0 0 21.857 20.352">
  <g id="snapchat-svgrepo-com_2_" data-name="snapchat-svgrepo-com (2)" transform="translate(0 -17.636)">
    <path id="Path_39905" data-name="Path 39905" d="M21.833,32.953a.377.377,0,0,0-.278-.235,5.813,5.813,0,0,1-3.632-2.3,4.826,4.826,0,0,1-.964-2.226,2.78,2.78,0,0,1,1.019-.309,2.988,2.988,0,0,0,1.509-.557,1.243,1.243,0,0,0,.342-1.077,1.417,1.417,0,0,0-.817-1.034c-.631-.316-1.7.094-2.388.435a6.03,6.03,0,1,0-11.391,0c-.692-.341-1.757-.751-2.388-.435a1.417,1.417,0,0,0-.817,1.034,1.243,1.243,0,0,0,.342,1.077,2.987,2.987,0,0,0,1.509.557,2.78,2.78,0,0,1,1.019.309,4.826,4.826,0,0,1-.964,2.226A5.812,5.812,0,0,1,.3,32.718a.381.381,0,0,0-.228.6,4.47,4.47,0,0,0,3.042,1.649l.294.883a.381.381,0,0,0,.525.218A2.575,2.575,0,0,1,6.2,36.04l.281.189a8.058,8.058,0,0,0,4.451,1.759,8.057,8.057,0,0,0,4.451-1.759l.281-.189a2.573,2.573,0,0,1,2.261.024.381.381,0,0,0,.526-.218l.294-.883a4.469,4.469,0,0,0,3.042-1.649A.377.377,0,0,0,21.833,32.953Z" transform="translate(0)" fill="#facf23"/>
    <path id="Path_39906" data-name="Path 39906" d="M4.9,24.827a6.059,6.059,0,0,0,.335,1.983c-.692-.341-1.757-.751-2.388-.435a1.417,1.417,0,0,0-.817,1.034,1.243,1.243,0,0,0,.342,1.077,2.987,2.987,0,0,0,1.509.557,2.78,2.78,0,0,1,1.019.309,4.826,4.826,0,0,1-.964,2.226A5.812,5.812,0,0,1,.3,33.88a.381.381,0,0,0-.228.6,4.59,4.59,0,0,0,1.2,1.046c3.137-1.436,5.509-3,5.509-6.926,0-2.261-.754-3.015,0-5.653.48-1.679,2.181-3.206,3.355-4.094A6.039,6.039,0,0,0,4.9,24.827Z" transform="translate(-0.001 -1.161)" fill="#ffa929"/>
  </g>
</svg>
