<svg xmlns="http://www.w3.org/2000/svg" width="30.318" height="30.318" viewBox="0 0 30.318 30.318">
  <path id="support-svgrepo-com" d="M26.95,12.1a11.792,11.792,0,1,0-23.581-.31A5.8,5.8,0,0,0,0,16.844v3.369a5.053,5.053,0,0,0,5.053,5.053H6.737a1.684,1.684,0,0,0,1.684-1.684V13.475A1.684,1.684,0,0,0,6.737,11.79a8.422,8.422,0,1,1,16.844,0A1.684,1.684,0,0,0,21.9,13.475V23.581a1.684,1.684,0,0,0,1.684,1.684V26.95H19.215a2.519,2.519,0,0,0-2.372-1.684H13.475a2.527,2.527,0,0,0,0,5.053H23.581A3.369,3.369,0,0,0,26.95,26.95V24.957a5.04,5.04,0,0,0,3.369-4.745V16.844A5.036,5.036,0,0,0,26.95,12.1" fill="#fff" fillRule="evenodd"/>
</svg>
