<svg xmlns="http://www.w3.org/2000/svg" width="27.813" height="31.438" viewBox="0 0 27.813 31.438">
  <g id="tiktok-icon-white-1-logo-svgrepo-com" transform="translate(-178.871 -70.49)">
    <g id="Group_47839" data-name="Group 47839" transform="translate(179.949 71.755)">
      <path id="Path_39895" data-name="Path 39895" d="M196,116.247l.1.291C196.09,116.5,196.052,116.4,196,116.247Zm4.081-6.6a4.387,4.387,0,0,1,5.684-3.866V101.7a8.541,8.541,0,0,1,1.505.093v5.252a4.388,4.388,0,0,0-5.684,3.867,4.84,4.84,0,0,0,.851,2.92q-.261-.14-.532-.318A4.469,4.469,0,0,1,200.081,109.649Zm15.742-15.493a7.2,7.2,0,0,1-1.728-3.546h1.435a6.7,6.7,0,0,0,1.8,4.81l.029.032A8.348,8.348,0,0,1,215.823,94.156Zm6.912,3.7V103a17.836,17.836,0,0,1-3.186-.435,12.171,12.171,0,0,1-3.108-1.275s-.84-.55-.908-.589v10.627a10.7,10.7,0,0,1-.629,3.3,10,10,0,0,1-1.747,2.887,9.884,9.884,0,0,1-3.207,2.394,9.507,9.507,0,0,1-3.949.869,9.749,9.749,0,0,1-5.32-1.593,10.667,10.667,0,0,1-1.519-1.274l.013.009a9.75,9.75,0,0,0,5.32,1.593,9.5,9.5,0,0,0,3.949-.869,9.633,9.633,0,0,0,4.954-5.281,10.73,10.73,0,0,0,.629-3.3V99.438c.068.039.907.589.907.589a12.155,12.155,0,0,0,3.109,1.275,17.844,17.844,0,0,0,3.186.434V97.7a4.871,4.871,0,0,0,1.507.15Z" transform="translate(-196 -90.61)" fill="#ee1d52"/>
    </g>
    <path id="Path_39896" data-name="Path 39896" d="M227.569,97.7v4.031a17.844,17.844,0,0,1-3.186-.435,12.182,12.182,0,0,1-3.109-1.275s-.839-.55-.907-.589v10.628a10.692,10.692,0,0,1-.629,3.3,10,10,0,0,1-1.747,2.887,9.893,9.893,0,0,1-3.207,2.394,9.5,9.5,0,0,1-3.949.869,9.75,9.75,0,0,1-5.32-1.593l-.013-.009a9.9,9.9,0,0,1-.75-.85,10.216,10.216,0,0,1-1.421-2.578.015.015,0,0,1,0,0,10.4,10.4,0,0,1-.561-3.436,9.448,9.448,0,0,1,1.151-4.351,10.239,10.239,0,0,1,2.234-2.73,9.33,9.33,0,0,1,2.655-1.572,8.9,8.9,0,0,1,3.295-.692v4.081a4.375,4.375,0,0,0-3.86,7.734q.271.179.532.318a4.141,4.141,0,0,0,.975.946,4.257,4.257,0,0,0,4.4.42,4.143,4.143,0,0,0,2.272-2.5,6.058,6.058,0,0,0,.234-2.062V90.61h3.773a7.2,7.2,0,0,0,1.728,3.546,8.348,8.348,0,0,0,1.535,1.3,8.05,8.05,0,0,0,2.1,1.609A8.213,8.213,0,0,0,227.569,97.7Z" transform="translate(-22.391 -18.855)"/>
    <path id="Path_39898" data-name="Path 39898" d="M186.419,248.936a9.329,9.329,0,0,0-2.655,1.572,10.239,10.239,0,0,0-2.233,2.735,9.443,9.443,0,0,0-1.151,4.351,10.4,10.4,0,0,0,.561,3.436.015.015,0,0,0,0,0,10.389,10.389,0,0,0,1.421,2.578,9.9,9.9,0,0,0,.75.85,10.478,10.478,0,0,1-2.256-2.115,10.244,10.244,0,0,1-1.417-2.565.062.062,0,0,1,0-.008v0a10.344,10.344,0,0,1-.562-3.438,9.449,9.449,0,0,1,1.151-4.351,10.229,10.229,0,0,1,2.233-2.735,9.314,9.314,0,0,1,2.655-1.572,9.094,9.094,0,0,1,1.873-.55,9.307,9.307,0,0,1,2.928-.043v1.163A8.9,8.9,0,0,0,186.419,248.936Z" transform="translate(0 -165.397)" fill="#69c9d0"/>
    <path id="Path_39899" data-name="Path 39899" d="M310.037,71.755h-3.773V91.789a6.143,6.143,0,0,1-.234,2.062,4.157,4.157,0,0,1-2.272,2.494,4.251,4.251,0,0,1-4.4-.42,4.141,4.141,0,0,1-.977-.943,4.354,4.354,0,0,0,6.141-2.393,6.042,6.042,0,0,0,.235-2.061V70.49h5.21A4.912,4.912,0,0,0,310.037,71.755Zm7.134,5.979v1.115a8.214,8.214,0,0,1-1.767-.642,8.051,8.051,0,0,1-2.1-1.609,5.89,5.89,0,0,0,.6.345,6.768,6.768,0,0,0,3.273.792Z" transform="translate(-111.993)" fill="#69c9d0"/>
  </g>
</svg>
