<svg id="XMLID_826_" xmlns="http://www.w3.org/2000/svg" width="21.17" height="18.93" viewBox="0 0 21.17 18.93">
  <path id="XMLID_827_" d="M20.688,30.282a7.6,7.6,0,0,1-1.024.407,5.077,5.077,0,0,0,.922-1.77.394.394,0,0,0-.113-.405.318.318,0,0,0-.387-.029A7.674,7.674,0,0,1,17.7,29.513,4.375,4.375,0,0,0,14.524,28.1,4.773,4.773,0,0,0,9.979,33.06a5.524,5.524,0,0,0,.037.641A11.378,11.378,0,0,1,2.03,29.075a.329.329,0,0,0-.291-.136.34.34,0,0,0-.268.184,5.316,5.316,0,0,0-.616,2.5,5.239,5.239,0,0,0,1.082,3.217,3.7,3.7,0,0,1-.608-.3.316.316,0,0,0-.336,0,.379.379,0,0,0-.172.315c0,.022,0,.044,0,.066a5.087,5.087,0,0,0,2.225,4.268c-.116-.013-.231-.031-.346-.055a.325.325,0,0,0-.32.119.4.4,0,0,0-.07.361A4.719,4.719,0,0,0,5.64,42.943a7.562,7.562,0,0,1-5.26,1.278.341.341,0,0,0-.362.245.391.391,0,0,0,.137.44,11.516,11.516,0,0,0,6.627,2.122,11.413,11.413,0,0,0,9.135-4.382,14.645,14.645,0,0,0,3.166-9.052c0-.136,0-.274-.006-.411a9.356,9.356,0,0,0,2.033-2.352.4.4,0,0,0-.023-.447A.322.322,0,0,0,20.688,30.282Z" transform="translate(0.002 -28.097)"/>
</svg>
