<svg xmlns="http://www.w3.org/2000/svg" width="28.92" height="23.678" viewBox="0 0 28.92 23.678">
  <path id="XMLID_827_" d="M28.262,30.83a10.963,10.963,0,0,1-1.4.51,6.183,6.183,0,0,0,1.259-2.214.467.467,0,0,0-.682-.543,11.008,11.008,0,0,1-3.254,1.286,6.211,6.211,0,0,0-10.554,4.437,6.333,6.333,0,0,0,.051.8A15.894,15.894,0,0,1,2.774,29.32a.467.467,0,0,0-.765.06,6.217,6.217,0,0,0,.637,7.146,5.259,5.259,0,0,1-.831-.371.466.466,0,0,0-.693.4c0,.028,0,.055,0,.083a6.23,6.23,0,0,0,3.039,5.339c-.158-.016-.316-.039-.472-.069a.466.466,0,0,0-.532.6A6.206,6.206,0,0,0,7.7,46.666a10.983,10.983,0,0,1-5.871,1.676,11.23,11.23,0,0,1-1.315-.077.466.466,0,0,0-.307.856,16.742,16.742,0,0,0,9.053,2.654,16.106,16.106,0,0,0,12.479-5.481,17.372,17.372,0,0,0,4.325-11.322c0-.17,0-.342-.008-.514a12.069,12.069,0,0,0,2.778-2.942.466.466,0,0,0-.577-.686Z" transform="translate(0.002 -28.098)"/>
</svg>
