<svg xmlns="http://www.w3.org/2000/svg" width="31.42" height="25.725" viewBox="0 0 31.42 25.725">
  <path id="twitter-svgrepo-com_1_" data-name="twitter-svgrepo-com (1)" d="M30.709,49.375a11.92,11.92,0,0,1-1.52.554,6.718,6.718,0,0,0,1.368-2.405.507.507,0,0,0-.741-.59,11.959,11.959,0,0,1-3.535,1.4,6.748,6.748,0,0,0-11.467,4.821,6.88,6.88,0,0,0,.055.872A17.269,17.269,0,0,1,3.016,47.735a.507.507,0,0,0-.831.065,6.755,6.755,0,0,0,.692,7.764,5.714,5.714,0,0,1-.9-.4.507.507,0,0,0-.753.431c0,.03,0,.06,0,.09a6.769,6.769,0,0,0,3.3,5.8q-.257-.026-.513-.075a.507.507,0,0,0-.578.652,6.743,6.743,0,0,0,4.941,4.521A11.933,11.933,0,0,1,1.995,68.4a12.2,12.2,0,0,1-1.429-.084.507.507,0,0,0-.333.93,18.19,18.19,0,0,0,9.837,2.883,17.5,17.5,0,0,0,13.558-5.955,18.875,18.875,0,0,0,4.7-12.3c0-.185,0-.372-.009-.558a13.112,13.112,0,0,0,3.018-3.2.507.507,0,0,0-.626-.745Z" transform="translate(0 -46.406)" fill="#73a1fb"/>
</svg>
