<svg id="XMLID_518_" xmlns="http://www.w3.org/2000/svg" width="20.078" height="18.912" viewBox="0 0 20.078 18.912">
  <path id="XMLID_3_" d="M19.993,24.153a3.394,3.394,0,0,0-.373-2.576c-.724-1-2.266-1.038-3.323-.861a7.2,7.2,0,0,0-4.755,4.9c1.752-.145,2.671.138,2.5,2.245a8.2,8.2,0,0,1-.933,2.773c-.526,1.067-1.511,3.163-2.8,1.653-1.164-1.36-1.077-3.96-1.343-5.692a25.772,25.772,0,0,0-.6-3.182c-.251-.859-.827-1.9-1.532-2.12a2.915,2.915,0,0,0-2.241.49A41.282,41.282,0,0,0,0,25.817H0c.246.576.381.95.822,1.02,1.041.168,2.034-1.06,2.726.217a13.944,13.944,0,0,1,.822,2.477c.361,1.12.639,2.34.933,3.629C5.8,35.342,6.416,38.6,8.144,39.4a3.466,3.466,0,0,0,2.876-.572,16.758,16.758,0,0,0,4.443-4.608A32.7,32.7,0,0,0,19.993,24.153Z" transform="translate(0 -20.634)" fillRule="evenodd"/>
</svg>
