<svg id="link-svgrepo-com_2_" data-name="link-svgrepo-com (2)" xmlns="http://www.w3.org/2000/svg" width="20.559" height="21" viewBox="0 0 20.559 21">
  <path id="Path_39889" data-name="Path 39889" d="M75.621,1.407a4.644,4.644,0,0,0-6.658,0h0l-2.9,2.967L67.4,5.743l2.9-2.968h0a2.774,2.774,0,0,1,3.976,0,2.92,2.92,0,0,1,0,4.062L69.922,11.29a2.77,2.77,0,0,1-3.976,0L64.605,12.66a4.637,4.637,0,0,0,6.657,0l4.359-4.452A4.889,4.889,0,0,0,75.621,1.407Z" transform="translate(-56.44 0)" fill="#fff"/>
  <path id="Path_39890" data-name="Path 39890" d="M6.694,65h0a2.774,2.774,0,0,1-3.976,0,2.92,2.92,0,0,1,0-4.062l4.358-4.452a2.773,2.773,0,0,1,3.976,0l1.341-1.369a4.643,4.643,0,0,0-6.658,0L1.377,59.57a4.889,4.889,0,0,0,0,6.8,4.644,4.644,0,0,0,6.657,0h0l2.9-2.968L9.6,62.034Z" transform="translate(-0.001 -46.777)" fill="#fff"/>
</svg>
