<svg id="XMLID_13_" xmlns="http://www.w3.org/2000/svg" width="21.477" height="21.477" viewBox="0 0 21.477 21.477">
  <path id="XMLID_17_" d="M15.079,0H6.4A6.405,6.405,0,0,0,0,6.4v8.681a6.405,6.405,0,0,0,6.4,6.4h8.681a6.405,6.405,0,0,0,6.4-6.4V6.4A6.405,6.405,0,0,0,15.079,0Zm4.238,15.079a4.238,4.238,0,0,1-4.238,4.238H6.4a4.238,4.238,0,0,1-4.238-4.238V6.4A4.238,4.238,0,0,1,6.4,2.161h8.681A4.238,4.238,0,0,1,19.316,6.4v8.681Z" transform="translate(0 0)" fill="#fff"/>
  <path id="XMLID_81_" d="M138.555,133a5.555,5.555,0,1,0,5.555,5.555A5.561,5.561,0,0,0,138.555,133Zm0,8.949a3.394,3.394,0,1,1,3.394-3.394A3.394,3.394,0,0,1,138.555,141.949Z" transform="translate(-127.816 -127.816)" fill="#fff"/>
  <ellipse id="XMLID_83_" cx="1.331" cy="1.331" rx="1.331" ry="1.331" transform="translate(14.973 3.895)" fill="#fff"/>
</svg>
