<svg xmlns="http://www.w3.org/2000/svg" width="25.698" height="25.695" viewBox="0 0 25.698 25.695">
  <g id="link-svgrepo-com_1_" data-name="link-svgrepo-com (1)" transform="translate(0.001 -0.01)">
    <path id="Path_39872" data-name="Path 39872" d="M83.595,2.044l-.02-.02a7.023,7.023,0,0,0-9.836.018l-.017.018-4.4,4.405a.988.988,0,1,0,1.4,1.4L75.135,3.44l.014-.014a5.047,5.047,0,0,1,7.048.014l.018.017A5,5,0,0,1,82.2,10.5l-4.421,4.421a.988.988,0,0,0,1.4,1.4L83.6,11.9A6.978,6.978,0,0,0,83.595,2.044Z" transform="translate(-59.935 0)" fill="#fff"/>
    <path id="Path_39873" data-name="Path 39873" d="M14.915,77.767,10.5,82.186l-.026.027a4.994,4.994,0,0,1-7.038-7.088l4.42-4.419a.989.989,0,0,0,.289-.7v0a.988.988,0,0,0-1.7-.681l-4.4,4.4a6.97,6.97,0,0,0,9.856,9.859l.029-.031,4.391-4.391a.988.988,0,0,0-1.4-1.4Z" transform="translate(0 -59.918)" fill="#fff"/>
    <path id="Path_39874" data-name="Path 39874" d="M57.243,67.346a.988.988,0,0,0,1.4,0l8.716-8.715a.988.988,0,1,0-1.4-1.4l-8.716,8.715A.988.988,0,0,0,57.243,67.346Z" transform="translate(-49.452 -49.435)" fill="#fff"/>
  </g>
</svg>
