<svg id="gear-svgrepo-com_2_" data-name="gear-svgrepo-com (2)" xmlns="http://www.w3.org/2000/svg" width="25.695" height="25.695" viewBox="0 0 25.695 25.695">
  <g id="Group_47813" data-name="Group 47813">
    <path id="Path_39883" data-name="Path 39883" d="M24.288,10.308H22.926a10.124,10.124,0,0,0-1.164-2.757l.979-.981a1.4,1.4,0,0,0,0-1.983l-1.632-1.63a1.435,1.435,0,0,0-1.981,0L18.107,3.971a10.139,10.139,0,0,0-2.72-1.1V1.408A1.4,1.4,0,0,0,14,0H11.689a1.392,1.392,0,0,0-1.381,1.408V2.866a10.167,10.167,0,0,0-2.726,1.1L6.561,2.956a1.439,1.439,0,0,0-1.985,0L2.946,4.586a1.409,1.409,0,0,0-.411.991,1.389,1.389,0,0,0,.41.99l.979.984a10.123,10.123,0,0,0-1.163,2.757H1.4A1.393,1.393,0,0,0,0,11.7v2.306a1.382,1.382,0,0,0,1.4,1.381H2.761a10.173,10.173,0,0,0,1.162,2.763l-.979.985a1.406,1.406,0,0,0,0,1.985l1.632,1.632a1.4,1.4,0,0,0,1.981,0l1.025-1.015a10.2,10.2,0,0,0,2.726,1.106V24.3a1.381,1.381,0,0,0,1.381,1.4H14a1.389,1.389,0,0,0,1.391-1.4V22.843a10.144,10.144,0,0,0,2.721-1.1l1.016,1.013a1.4,1.4,0,0,0,1.984,0l1.632-1.63a1.4,1.4,0,0,0,0-1.981l-.978-.989a10.214,10.214,0,0,0,1.163-2.763h1.363a1.391,1.391,0,0,0,1.408-1.381V11.7A1.4,1.4,0,0,0,24.288,10.308ZM12.842,17.243a4.388,4.388,0,1,1,4.433-4.389A4.411,4.411,0,0,1,12.842,17.243Z" fill="#fff"/>
  </g>
</svg>
