<svg xmlns="http://www.w3.org/2000/svg" width="29.762" height="26.928" viewBox="0 0 29.762 26.928">
  <g id="statistics-svgrepo-com" transform="translate(0 -14)">
    <path id="Path_39877" data-name="Path 39877" d="M28.243,250H1.518a1.518,1.518,0,0,0,0,3.037H28.243a1.518,1.518,0,0,0,0-3.037Z" transform="translate(0 -212.11)" fill="#fff"/>
    <path id="Path_39878" data-name="Path 39878" d="M21.962,94.083h4.758a.962.962,0,0,0,.962-.962V79.962A.962.962,0,0,0,26.719,79H21.962a.962.962,0,0,0-.962.962v13.16A.962.962,0,0,0,21.962,94.083Z" transform="translate(-18.874 -58.42)" fill="#fff"/>
    <path id="Path_39879" data-name="Path 39879" d="M114.962,35.663h4.758a.962.962,0,0,0,.962-.962V14.962a.962.962,0,0,0-.962-.962h-4.758a.962.962,0,0,0-.962.962V34.7A.962.962,0,0,0,114.962,35.663Z" transform="translate(-102.46 0)" fill="#fff"/>
    <path id="Path_39880" data-name="Path 39880" d="M207.962,116.552h4.758a.962.962,0,0,0,.962-.962V104.962a.962.962,0,0,0-.962-.962h-4.758a.962.962,0,0,0-.962.962v10.629A.962.962,0,0,0,207.962,116.552Z" transform="translate(-186.046 -80.889)" fill="#fff"/>
  </g>
</svg>
