<svg id="calendar_22_" data-name="calendar (22)" xmlns="http://www.w3.org/2000/svg" width="16.5" height="16.395" viewBox="0 0 16.5 16.395">
  <g id="Group_39176" data-name="Group 39176" transform="translate(0 0)">
    <g id="Group_39175" data-name="Group 39175">
      <path id="Path_34138" data-name="Path 34138" d="M14.79,22.295H13.754v-.915a.432.432,0,1,0-.86,0v.915H8.682v-.915a.432.432,0,1,0-.86,0v.915H3.567v-.915a.458.458,0,0,0-.43-.479.458.458,0,0,0-.43.479v.915H1.715A1.851,1.851,0,0,0,0,24.236V35.379A1.822,1.822,0,0,0,1.715,37.3H14.786A1.821,1.821,0,0,0,16.5,35.384V24.236A1.845,1.845,0,0,0,14.79,22.295Zm.855,13.084a.912.912,0,0,1-.851.959H1.715a.908.908,0,0,1-.855-.954V24.236a.932.932,0,0,1,.855-.983h.993v.695a.458.458,0,0,0,.43.479.458.458,0,0,0,.43-.479v-.695H7.823v.695a.432.432,0,1,0,.86,0v-.695h4.212v.695a.432.432,0,1,0,.86,0v-.695H14.79a.932.932,0,0,1,.855.983Z" transform="translate(0 -20.9)" fill="#fff"/>
    </g>
  </g>
  <g id="Group_39178" data-name="Group 39178" transform="translate(5.866 5.468)">
    <g id="Group_39177" data-name="Group 39177" transform="translate(0 0)">
      <path id="Path_34139" data-name="Path 34139" d="M139.518,135h-.839a.479.479,0,0,0,0,.959h.839a.479.479,0,0,0,0-.959Z" transform="translate(-138.2 -135)" fill="#fff"/>
    </g>
  </g>
  <g id="Group_39180" data-name="Group 39180" transform="translate(8.82 5.468)">
    <g id="Group_39179" data-name="Group 39179" transform="translate(0 0)">
      <path id="Path_34140" data-name="Path 34140" d="M209.118,135h-.839a.479.479,0,1,0,0,.959h.839a.479.479,0,0,0,0-.959Z" transform="translate(-207.8 -135)" fill="#fff"/>
    </g>
  </g>
  <g id="Group_39182" data-name="Group 39182" transform="translate(11.8 5.468)">
    <g id="Group_39181" data-name="Group 39181" transform="translate(0 0)">
      <path id="Path_34141" data-name="Path 34141" d="M279.318,135h-.839a.479.479,0,0,0,0,.959h.839a.479.479,0,1,0,0-.959Z" transform="translate(-278 -135)" fill="#fff"/>
    </g>
  </g>
  <g id="Group_39184" data-name="Group 39184" transform="translate(5.866 8.775)">
    <g id="Group_39183" data-name="Group 39183" transform="translate(0 0)">
      <path id="Path_34142" data-name="Path 34142" d="M139.518,204h-.839a.479.479,0,1,0,0,.959h.839a.479.479,0,1,0,0-.959Z" transform="translate(-138.2 -204)" fill="#fff"/>
    </g>
  </g>
  <g id="Group_39186" data-name="Group 39186" transform="translate(2.886 8.775)">
    <g id="Group_39185" data-name="Group 39185" transform="translate(0 0)">
      <path id="Path_34143" data-name="Path 34143" d="M69.323,204h-.844a.479.479,0,1,0,0,.959h.839a.479.479,0,0,0,0-.959Z" transform="translate(-68 -204)" fill="#fff"/>
    </g>
  </g>
  <g id="Group_39188" data-name="Group 39188" transform="translate(8.82 8.775)">
    <g id="Group_39187" data-name="Group 39187" transform="translate(0 0)">
      <path id="Path_34144" data-name="Path 34144" d="M209.118,204h-.839a.479.479,0,1,0,0,.959h.839a.479.479,0,1,0,0-.959Z" transform="translate(-207.8 -204)" fill="#fff"/>
    </g>
  </g>
  <g id="Group_39190" data-name="Group 39190" transform="translate(11.8 8.775)">
    <g id="Group_39189" data-name="Group 39189" transform="translate(0 0)">
      <path id="Path_34145" data-name="Path 34145" d="M279.318,204h-.839a.479.479,0,0,0,0,.959h.839a.479.479,0,1,0,0-.959Z" transform="translate(-278 -204)" fill="#fff"/>
    </g>
  </g>
  <g id="Group_39192" data-name="Group 39192" transform="translate(5.866 12.034)">
    <g id="Group_39191" data-name="Group 39191">
      <path id="Path_34146" data-name="Path 34146" d="M139.518,272h-.839a.479.479,0,0,0,0,.959h.839a.479.479,0,0,0,0-.959Z" transform="translate(-138.2 -272)" fill="#fff"/>
    </g>
  </g>
  <g id="Group_39194" data-name="Group 39194" transform="translate(2.886 12.034)">
    <g id="Group_39193" data-name="Group 39193">
      <path id="Path_34147" data-name="Path 34147" d="M69.323,272h-.844a.479.479,0,0,0,0,.959h.839a.479.479,0,0,0,0-.959Z" transform="translate(-68 -272)" fill="#fff"/>
    </g>
  </g>
  <g id="Group_39196" data-name="Group 39196" transform="translate(8.82 12.034)">
    <g id="Group_39195" data-name="Group 39195">
      <path id="Path_34148" data-name="Path 34148" d="M209.118,272h-.839a.479.479,0,0,0,0,.959h.839a.479.479,0,0,0,0-.959Z" transform="translate(-207.8 -272)" fill="#fff"/>
    </g>
  </g>
</svg>
