<svg xmlns="http://www.w3.org/2000/svg" width="23" height="30" viewBox="0 0 23 30">
  <g id="design-svgrepo-com" transform="translate(-4 -1)">
    <g id="Group_47811" data-name="Group 47811">
      <rect id="Rectangle_19133" data-name="Rectangle 19133" width="13" height="2" transform="translate(9 1)" fill="#fff"/>
      <path id="Path_39875" data-name="Path 39875" d="M24.6,13A10,10,0,0,1,21,5.316V4H10V5.316A10,10,0,0,1,6.4,13L4,15,15,31V19.95a2.5,2.5,0,1,1,1,0V31L27,15Z" fill="#fff"/>
    </g>
    <g id="Group_47812" data-name="Group 47812">
      <rect id="Rectangle_19134" data-name="Rectangle 19134" width="13" height="2" transform="translate(9 1)" fill="#fff"/>
      <path id="Path_39876" data-name="Path 39876" d="M24.6,13A10,10,0,0,1,21,5.316V4H10V5.316A10,10,0,0,1,6.4,13L4,15,15,31V19.95a2.5,2.5,0,1,1,1,0V31L27,15Z" fill="#fff"/>
    </g>
  </g>
</svg>
