<svg xmlns="http://www.w3.org/2000/svg" width="33.205" height="19.484" viewBox="0 0 33.205 19.484">
  <g id="money-svgrepo-com_3_" data-name="money-svgrepo-com (3)" transform="translate(0 -24.055)">
    <path id="Path_39881" data-name="Path 39881" d="M30.421,24.055H2.784A2.784,2.784,0,0,0,0,26.839V40.756A2.784,2.784,0,0,0,2.784,43.54H30.421A2.784,2.784,0,0,0,33.2,40.756V26.839A2.784,2.784,0,0,0,30.421,24.055ZM2.156,41.842V25.992H30.817V41.843H2.156Z" fill="#fff"/>
    <path id="Path_39882" data-name="Path 39882" d="M17.32,50.891H40.415V40.608H17.32Zm11.663-8.93a3.789,3.789,0,1,1-3.789,3.789A3.789,3.789,0,0,1,28.983,41.961Z" transform="translate(-12.381 -11.833)" fill="#fff"/>
  </g>
</svg>
