<svg id="Group_49139" data-name="Group 49139" xmlns="http://www.w3.org/2000/svg" width="21.217" height="21.674" viewBox="0 0 21.217 21.674">
  <g id="Group_47826" data-name="Group 47826">
    <path id="Path_39891" data-name="Path 39891" d="M6.188,0H2.652A2.681,2.681,0,0,0,0,2.709V6.321A2.681,2.681,0,0,0,2.652,9.031H6.188A2.681,2.681,0,0,0,8.84,6.321V2.709A2.681,2.681,0,0,0,6.188,0Zm.884,6.321a.893.893,0,0,1-.884.9H2.652a.893.893,0,0,1-.884-.9V2.709a.893.893,0,0,1,.884-.9H6.188a.893.893,0,0,1,.884.9V6.321Z" fill="#fff"/>
    <path id="Path_39892" data-name="Path 39892" d="M304.855,0h-3.536a2.681,2.681,0,0,0-2.652,2.709V6.321a2.681,2.681,0,0,0,2.652,2.709h3.536a2.681,2.681,0,0,0,2.652-2.709V2.709A2.681,2.681,0,0,0,304.855,0Zm.884,6.321a.893.893,0,0,1-.884.9h-3.536a.893.893,0,0,1-.884-.9V2.709a.893.893,0,0,1,.884-.9h3.536a.893.893,0,0,1,.884.9Z" transform="translate(-286.29)" fill="#fff"/>
    <path id="Path_39893" data-name="Path 39893" d="M6.188,298.667H2.652A2.681,2.681,0,0,0,0,301.376v3.612A2.681,2.681,0,0,0,2.652,307.7H6.188a2.681,2.681,0,0,0,2.652-2.709v-3.612A2.681,2.681,0,0,0,6.188,298.667Zm.884,6.321a.893.893,0,0,1-.884.9H2.652a.893.893,0,0,1-.884-.9v-3.612a.893.893,0,0,1,.884-.9H6.188a.893.893,0,0,1,.884.9v3.612Z" transform="translate(0 -286.024)" fill="#fff"/>
    <path id="Path_39894" data-name="Path 39894" d="M306.623,302.279h-2.652V299.57a.884.884,0,1,0-1.768,0v2.709h-2.652a.9.9,0,0,0,0,1.806H302.2v2.709a.884.884,0,1,0,1.768,0v-2.709h2.652a.9.9,0,0,0,0-1.806Z" transform="translate(-286.29 -286.024)" fill="#fff"/>
  </g>
</svg>
