<svg xmlns="http://www.w3.org/2000/svg" width="25.014" height="19.732" viewBox="0 0 25.014 19.732">
  <g id="youtube-svgrepo-com" transform="translate(0.75 0.75)">
    <path id="Path_37092" data-name="Path 37092" d="M14.615,12.568,10.5,15.136V10Z" transform="translate(-0.507 -3.451)" stroke="#000" stroke-linecap="round" stroke-linejoin="round" strokeWidth="1.5"/>
    <path id="Path_37093" data-name="Path 37093" d="M2,14.925V13.108C2,9.39,2,7.531,3.065,6.335S5.805,5.088,9.157,4.984c1.588-.049,3.211-.084,4.6-.084s3.011.035,4.6.084c3.352.1,5.028.155,6.093,1.351s1.065,3.055,1.065,6.772v1.817c0,3.718,0,5.576-1.065,6.772s-2.74,1.248-6.092,1.351c-1.588.049-3.211.084-4.6.084s-3.011-.035-4.6-.084c-3.352-.1-5.028-.155-6.092-1.351S2,18.642,2,14.925Z" transform="translate(-2 -4.9)" fill="none" stroke="#000" strokeWidth="1.5"/>
  </g>
</svg>
