<svg xmlns="http://www.w3.org/2000/svg" xmlns:xlink="http://www.w3.org/1999/xlink" width="25.543" height="45.594" viewBox="0 0 25.543 45.594">
  <defs>
    <linearGradient id="linear-gradient" x1="0.969" y1="0.138" x2="0.046" y2="0.943" gradientUnits="objectBoundingBox">
      <stop offset="0" stop-color="#6454f5"/>
      <stop offset="1" stop-color="#bb14e2"/>
    </linearGradient>
  </defs>
  <g id="dollar" transform="translate(1 1)">
    <path id="Path_45394" data-name="Path 45394" d="M23.543,28.236c0-4.814-2.569-7.757-8.937-10-4.547-1.712-6.42-2.835-6.42-4.6,0-1.5,1.123-3,4.6-3a16.4,16.4,0,0,1,5.051.773,2.685,2.685,0,0,0,3.409-1.889l.029-.112a3.408,3.408,0,0,0-2.5-4.16,23.29,23.29,0,0,0-4.247-.589v-3.2A1.453,1.453,0,0,0,13.078,0H10.172A1.454,1.454,0,0,0,8.719,1.453V5.1C3.2,6.3,0,9.925,0,14.54c0,5.19,3.906,7.864,9.631,9.791,3.96,1.338,5.67,2.623,5.67,4.654,0,2.142-2.087,3.317-5.135,3.317a18.11,18.11,0,0,1-6.027-1.078A2.824,2.824,0,0,0,.456,33.181l-.013.046a3.566,3.566,0,0,0,2.434,4.3,24.734,24.734,0,0,0,5.841.979V42.14a1.453,1.453,0,0,0,1.453,1.453h2.906a1.452,1.452,0,0,0,1.453-1.453V38.009C20.343,36.8,23.543,32.857,23.543,28.236Z" transform="translate(0)" stroke="#fcfbfe" strokeWidth="2" fill="url(#linear-gradient)"/>
  </g>
</svg>
