<svg xmlns="http://www.w3.org/2000/svg" width="46.998" height="35.421" viewBox="0 0 46.998 35.421">
  <g id="Group_49710" data-name="Group 49710" transform="translate(-2.232 -7.913)">
    <circle id="Ellipse_1635" data-name="Ellipse 1635" cx="3" cy="3" r="3" transform="translate(16.731 24.731)" fill="#6454f5"/>
    <circle id="Ellipse_1636" data-name="Ellipse 1636" cx="3" cy="3" r="3" transform="translate(29.731 24.731)" fill="#6454f5"/>
    <path id="Path_45866" data-name="Path 45866" d="M74.4,73.6a36.847,36.847,0,0,1,21.519,0m0,19.272a36.846,36.846,0,0,1-21.519,0" transform="translate(-59.43 -57.507)" fill="rgba(0,0,0,0)" stroke="#6c4ef3" stroke-linecap="round" stroke-linejoin="round" strokeWidth="2"/>
    <path id="Path_45867" data-name="Path 45867" d="M43.942,72.026l2.414,4.828a1.6,1.6,0,0,0,1.8.845,29.37,29.37,0,0,0,12.266-5.992,1.616,1.616,0,0,0,.5-1.684L54.1,47.288a1.61,1.61,0,0,0-.929-1.026,35.3,35.3,0,0,0-5.955-1.843,1.61,1.61,0,0,0-1.871,1.061l-1.6,4.8M33.084,72.026,30.67,76.854a1.6,1.6,0,0,1-1.8.845A29.37,29.37,0,0,1,16.6,71.706a1.616,1.616,0,0,1-.5-1.684l6.82-22.734a1.61,1.61,0,0,1,.929-1.026,35.3,35.3,0,0,1,5.955-1.843,1.61,1.61,0,0,1,1.871,1.061l1.6,4.8" transform="translate(-12.781 -35.436)" fill="rgba(0,0,0,0)" stroke="#6c4ef3" stroke-linecap="round" stroke-linejoin="round" strokeWidth="2"/>
  </g>
</svg>
