<svg id="eye-svgrepo-com_4_" data-name="eye-svgrepo-com (4)" xmlns="http://www.w3.org/2000/svg" xmlns:xlink="http://www.w3.org/1999/xlink" width="49.341" height="33.471" viewBox="0 0 49.341 33.471">
  <defs>
    <linearGradient id="linear-gradient" x1="0.969" y1="0.138" x2="0.046" y2="0.943" gradientUnits="objectBoundingBox">
      <stop offset="0" stop-color="#6454f5"/>
      <stop offset="1" stop-color="#bb14e2"/>
    </linearGradient>
  </defs>
  <g id="Group_48215" data-name="Group 48215">
    <g id="Group_48214" data-name="Group 48214">
      <path id="Path_45391" data-name="Path 45391" d="M49.242,98.595a26.7,26.7,0,0,0-49.144,0,1.235,1.235,0,0,0,0,.967,26.7,26.7,0,0,0,49.144,0A1.235,1.235,0,0,0,49.242,98.595ZM24.67,113.344A24.194,24.194,0,0,1,2.584,99.078a24.232,24.232,0,0,1,44.174,0A24.194,24.194,0,0,1,24.67,113.344Z" transform="translate(0 -82.344)" fill="url(#linear-gradient)"/>
      <path id="Path_45392" data-name="Path 45392" d="M167.287,157.825a9.461,9.461,0,1,0,9.461,9.461A9.472,9.472,0,0,0,167.287,157.825Zm0,16.452a6.991,6.991,0,1,1,6.991-6.991A7,7,0,0,1,167.287,174.277Z" transform="translate(-142.616 -150.551)" fill="url(#linear-gradient)"/>
      <path id="Path_45393" data-name="Path 45393" d="M208.9,203.878a5.029,5.029,0,0,0-5.023,5.023,1.235,1.235,0,1,0,2.47,0,2.556,2.556,0,0,1,2.553-2.553,1.235,1.235,0,0,0,0-2.47Z" transform="translate(-184.23 -192.166)" fill="url(#linear-gradient)"/>
    </g>
  </g>
</svg>
