<svg id="phone" xmlns="http://www.w3.org/2000/svg" xmlns:xlink="http://www.w3.org/1999/xlink" width="26.608" height="26.608" viewBox="0 0 26.608 26.608">
  <defs>
    <linearGradient id="linear-gradient" x1="0.139" y1="-0.017" x2="0.852" y2="1" gradientUnits="objectBoundingBox">
      <stop offset="0" stop-color="#6454f5"/>
      <stop offset="1" stop-color="#bb14e2"/>
    </linearGradient>
  </defs>
  <g id="Group-3">
    <path id="Fill-1" d="M26.608,13.3A13.3,13.3,0,1,1,13.3,0a13.3,13.3,0,0,1,13.3,13.3" fillRule="evenodd" fill="url(#linear-gradient)"/>
  </g>
  <path id="Fill-4" d="M27.29,31.3a.432.432,0,0,1-.14-.022c-.095-.031-.219-.064-.37-.106-1.956-.541-7.906-2.188-10.769-11.071A.449.449,0,0,1,16,19.86c.015-.058.375-1.455,2.776-1.853a.442.442,0,0,1,.264.035,4.12,4.12,0,0,1,2.34,3.011.452.452,0,0,1-.118.348,4.865,4.865,0,0,0-1.242,1.9,8.555,8.555,0,0,0,4.083,4.149,6.071,6.071,0,0,0,1.926-1.2.449.449,0,0,1,.291-.109.43.43,0,0,1,.11.014,4.3,4.3,0,0,1,2.82,1.964.452.452,0,0,1,.044.278,3.675,3.675,0,0,1-1.819,2.865.452.452,0,0,1-.188.041" transform="translate(-9.342 -10.516)" fill="#638da0" fillRule="evenodd"/>
  <path id="Fill-5" d="M21.383,19.053a4.12,4.12,0,0,0-2.34-3.011.442.442,0,0,0-.264-.035c-2.4.4-2.761,1.8-2.776,1.853a.45.45,0,0,0,.009.245c2.863,8.883,8.814,10.53,10.769,11.071.151.042.275.075.37.106a.452.452,0,0,0,.327-.019A3.675,3.675,0,0,0,29.3,26.4a.452.452,0,0,0-.044-.278,4.3,4.3,0,0,0-2.82-1.964.443.443,0,0,0-.4.1,6.06,6.06,0,0,1-1.926,1.2,8.554,8.554,0,0,1-4.083-4.148,4.865,4.865,0,0,1,1.242-1.9.452.452,0,0,0,.118-.348" transform="translate(-9.342 -9.348)" fill="#fffffe" fillRule="evenodd"/>
</svg>
