<svg xmlns="http://www.w3.org/2000/svg" width="17.316" height="17.316" viewBox="0 0 17.316 17.316">
  <g id="Group_49710" data-name="Group 49710" transform="translate(-7.75 -7.75)">
    <path id="Path_45578" data-name="Path 45578" d="M8,23.669a2.336,2.336,0,0,1,2.336-2.336h7.474a2.336,2.336,0,0,1,2.336,2.336v7.474a2.336,2.336,0,0,1-2.336,2.336H10.336A2.336,2.336,0,0,1,8,31.142Zm2.336-1.4a1.4,1.4,0,0,0-1.4,1.4v7.474a1.4,1.4,0,0,0,1.4,1.4h7.474a1.4,1.4,0,0,0,1.4-1.4V23.669a1.4,1.4,0,0,0-1.4-1.4Z" transform="translate(0 -8.662)" fill="#bbb" stroke="#bbb" strokeWidth="0.5" fillRule="evenodd"/>
    <path id="Path_45579" data-name="Path 45579" d="M21.333,10.336A2.336,2.336,0,0,1,23.669,8h7.474a2.336,2.336,0,0,1,2.336,2.336v7.474a2.336,2.336,0,0,1-2.336,2.336h-.287a.467.467,0,0,1,0-.934h.287a1.4,1.4,0,0,0,1.4-1.4V10.336a1.4,1.4,0,0,0-1.4-1.4H23.669a1.4,1.4,0,0,0-1.4,1.4v.287a.467.467,0,0,1-.934,0Z" transform="translate(-8.662)" fill="#bbb" stroke="#bbb" strokeWidth="0.5" fillRule="evenodd"/>
  </g>
</svg>
