<svg xmlns="http://www.w3.org/2000/svg" width="43.043" height="51.381" viewBox="0 0 43.043 51.381">
  <g id="Group_49710" data-name="Group 49710" transform="translate(-79.535 25.424) rotate(-17)">
    <path id="Path_45430" data-name="Path 45430" d="M120.968,52.831c.061-.082.005-.061-.122.009l-3.629,1.981c-.608.328-1.88,1.016-3.012.4a3.153,3.153,0,0,1-1.19-1.373l-3.991-7.287-3.8-7.471a3.139,3.139,0,0,1-.464-1.756c.135-1.289,1.417-1.944,2.032-2.26l3.681-1.882.089-.048-2.927-6.417a3.184,3.184,0,0,0-1.1-1.551,3.212,3.212,0,0,0-2.2.08,9.277,9.277,0,0,0-3.91,1.718c-1.707,1.531-2.079,4.243-2.293,6.664a25.447,25.447,0,0,0,.94,8.431,33.36,33.36,0,0,0,2.993,7.562.718.718,0,0,1,.105.158q.069.143.14.285t.151.266a.743.743,0,0,1,.071.174,33.367,33.367,0,0,0,4.559,6.738,25.53,25.53,0,0,0,6.435,5.528c2.119,1.186,4.569,2.411,6.8,1.861a9.252,9.252,0,0,0,3.622-2.26,3.2,3.2,0,0,0,1.306-1.771,3.176,3.176,0,0,0-.66-1.785Z" transform="translate(-15.096 -15.107)" fill="none" stroke="#6c4ef3" strokeWidth="1.5"/>
    <path id="Path_45431" data-name="Path 45431" d="M110.711,42.984l-3.618-5.993a1.327,1.327,0,0,0-2.023-.509l-3.627,1.981c-.594.321-1.253.62-1.66.4a1.958,1.958,0,0,1-.616-.8l-4.005-7.314-3.771-7.405a1.988,1.988,0,0,1-.316-.962c.048-.461.667-.836,1.265-1.142l3.681-1.883A1.535,1.535,0,0,0,96.9,18.4a1.527,1.527,0,0,0-.159-1L93.83,11.033a4.391,4.391,0,0,0-1.716-2.209,4.425,4.425,0,0,0-3.244-.045,10.405,10.405,0,0,0-4.494,2.034c-2.093,1.878-2.522,4.906-2.76,7.6a26.841,26.841,0,0,0,.98,8.911,34.838,34.838,0,0,0,3.357,8.313,34.936,34.936,0,0,0,4.97,7.45,26.5,26.5,0,0,0,6.81,5.83c1.926,1.08,4.11,2.181,6.334,2.181a6.232,6.232,0,0,0,1.5-.177,10.4,10.4,0,0,0,4.212-2.566,4.44,4.44,0,0,0,1.792-2.7,4.4,4.4,0,0,0-.858-2.663Zm-1.865,4.292a9.252,9.252,0,0,1-3.622,2.26c-2.229.55-4.679-.675-6.8-1.861a25.529,25.529,0,0,1-6.435-5.528,33.365,33.365,0,0,1-4.559-6.738.744.744,0,0,0-.071-.174q-.077-.132-.151-.266t-.14-.285a.715.715,0,0,0-.105-.158,33.358,33.358,0,0,1-2.993-7.562,25.445,25.445,0,0,1-.94-8.431c.214-2.421.585-5.133,2.293-6.664a9.277,9.277,0,0,1,3.91-1.718,3.212,3.212,0,0,1,2.2-.08,3.184,3.184,0,0,1,1.1,1.551l2.927,6.417-.089.048-3.681,1.882c-.615.315-1.9.97-2.032,2.26a3.139,3.139,0,0,0,.464,1.756l3.8,7.471,3.991,7.287a3.151,3.151,0,0,0,1.19,1.373c1.132.611,2.4-.076,3.012-.4l3.629-1.981c.127-.069.182-.09.122-.009l3.62,6a3.176,3.176,0,0,1,.66,1.785,3.2,3.2,0,0,1-1.306,1.771Z" transform="translate(0)" fill="none" stroke="#6c4ef3" strokeWidth="1.5"/>
  </g>
</svg>
