<svg id="Group_49710" data-name="Group 49710" xmlns="http://www.w3.org/2000/svg" width="25.247" height="26.606" viewBox="0 0 25.247 26.606">
  <path id="Path_45874" data-name="Path 45874" d="M33.518,21.817A10.25,10.25,0,0,1,23.361,32.159a9.988,9.988,0,0,1-6.524-2.418,10.344,10.344,0,0,1-3.443-5.933,10.487,10.487,0,0,1-.194-2A10.25,10.25,0,0,1,23.357,11.47a10.012,10.012,0,0,1,5.592,1.708A10.243,10.243,0,0,1,31.17,15.2a10.41,10.41,0,0,1,2.344,6.6Z" transform="translate(-10.637 -9.242)" fill="#f7931e"/>
  <path id="Path_45877" data-name="Path 45877" d="M25.113,62.5a12.624,12.624,0,0,1-24.979,0A12.833,12.833,0,0,0,0,64.345a12.624,12.624,0,0,0,25.247,0A12.834,12.834,0,0,0,25.113,62.5Z" transform="translate(0 -50.362)" fill="#ed1c24"/>
  <path id="Path_45878" data-name="Path 45878" d="M12.624,3.884a8.739,8.739,0,1,1-8.739,8.739,8.739,8.739,0,0,1,8.739-8.739m0-3.884A12.624,12.624,0,1,0,25.247,12.624,12.624,12.624,0,0,0,12.624,0Z" fill="#f7931e"/>
  <path id="Path_45879" data-name="Path 45879" d="M15.452,90.646A16.493,16.493,0,0,1,3.39,85.74a12.624,12.624,0,0,0,23.812.317A16.571,16.571,0,0,1,15.452,90.646Z" transform="translate(-2.732 -69.088)" fill="#f15a24"/>
  <path id="Path_45881" data-name="Path 45881" d="M52.114,36.2,44.771,31.96a2.222,2.222,0,0,0-3.331,1.923V42.36a2.222,2.222,0,0,0,3.331,1.923l7.343-4.238a2.222,2.222,0,0,0,0-3.849Z" transform="translate(-33.392 -25.206)" fill="#fff"/>
</svg>
