<svg xmlns="http://www.w3.org/2000/svg" width="14.888" height="17.015" viewBox="0 0 14.888 17.015">
  <path id="Path_45726" data-name="Path 45726" d="M14.379,0H2.681A2.678,2.678,0,0,0,0,2.642l0-.005v11.7a2.681,2.681,0,0,0,2.68,2.681h9.04a1.045,1.045,0,0,0,1.041-1.063V4.785a.513.513,0,0,0-.509-.532H2.681A1.582,1.582,0,0,1,1.063,2.681,1.619,1.619,0,0,1,2.681,1.063H13.825v12.23a.551.551,0,0,0,.554.532.513.513,0,0,0,.509-.532V.532A.513.513,0,0,0,14.379,0ZM2.681,5.317H11.7l.021,10.634H2.681a1.619,1.619,0,0,1-1.617-1.617V4.8A2.72,2.72,0,0,0,2.681,5.317Z"/>
</svg>
