<svg xmlns="http://www.w3.org/2000/svg" width="18.964" height="19.334" viewBox="0 0 18.964 19.334">
  <g id="Group_49713" data-name="Group 49713" transform="matrix(0.914, -0.407, 0.407, 0.914, -3.836, 2.284)">
    <path id="Path_45571" data-name="Path 45571" d="M18.148,24.592a3.01,3.01,0,1,1-3.009-2.932A2.971,2.971,0,0,1,18.148,24.592ZM2.07,26.534H1.035A1.033,1.033,0,0,1,0,25.5V23.685A1.035,1.035,0,0,1,1.035,22.65H2.07Z" transform="translate(0 -12.23)" fill="#49bda0"/>
    <path id="Path_45572" data-name="Path 45572" d="M15.988,45.079H15.56V44.39h.428a.114.114,0,0,1,.113.113v.465A.113.113,0,0,1,15.988,45.079Z" transform="translate(-11.148 -28.514)" fill="#e0e2e0"/>
    <path id="Path_45573" data-name="Path 45573" d="M10.1,44.4h0a1,1,0,0,1-1-1V38.91h1.993V43.4A.993.993,0,0,1,10.1,44.4Z" transform="translate(-6.52 -24.588)" fill="#49bda0"/>
    <path id="Path_45574" data-name="Path 45574" d="M5.334,27.518l4.735,0V21.66H5.339a.842.842,0,0,0-.854.828l-.006,4.2A.843.843,0,0,0,5.334,27.518Z" transform="translate(-3.21 -12.23)" fill="#e0e2e0"/>
    <path id="Path_45575" data-name="Path 45575" d="M31.434,21.3,22.99,17.229V11.365L31.434,7.29Z" transform="translate(-16.471 -1.934)" fill="#49bda0"/>
    <path id="Path_45576" data-name="Path 45576" d="M51.405,20.135h0a.776.776,0,0,1-.785-.766V5.356a.776.776,0,0,1,.785-.766h0a.776.776,0,0,1,.785.766V19.372A.775.775,0,0,1,51.405,20.135Z" transform="translate(-36.266)" fill="#e0e2e0"/>
  </g>
</svg>
