<svg xmlns="http://www.w3.org/2000/svg" width="15.102" height="16.779" viewBox="0 0 15.102 16.779">
  <path id="Path_45726" data-name="Path 45726" d="M10.784,0A4,4,0,0,1,15.1,4.371h0v8.038a3.988,3.988,0,0,1-4.311,4.371h-2.4a.616.616,0,0,1,0-1.222h2.389c2.06,0,3.1-1.059,3.1-3.148h0V4.371c0-2.089-1.037-3.149-3.1-3.149H4.311c-2.06,0-3.105,1.059-3.105,3.149h0v8.038c0,2.089,1.045,3.148,3.105,3.148a.616.616,0,0,1,0,1.222A3.992,3.992,0,0,1,0,12.409H0V4.371A3.988,3.988,0,0,1,4.311,0h6.473Zm-.219,11.335a.608.608,0,0,1,0,1.215H4.515a.608.608,0,0,1,0-1.215h6.05Zm0-3.556a.6.6,0,0,1,.58.284.622.622,0,0,1,0,.653.6.6,0,0,1-.58.285H4.515a.616.616,0,0,1,0-1.222h6.05ZM6.824,4.23a.616.616,0,0,1,0,1.222h-2.3a.616.616,0,0,1,0-1.222h2.3Z" fill="#200e32"/>
</svg>
