<svg xmlns="http://www.w3.org/2000/svg" width="21.469" height="14.994" viewBox="0 0 21.469 14.994">
  <path id="Path_45726" data-name="Path 45726" d="M5.925,12.17a1.032,1.032,0,0,1-.687-.261L0,7.253,5.529,2.337A1.035,1.035,0,1,1,6.9,3.885L3.117,7.253l3.5,3.108a1.036,1.036,0,0,1-.687,1.81Zm9.26,0,5.529-4.916L15.477,2.6A1.035,1.035,0,1,0,14.1,4.144l3.5,3.109-3.788,3.367a1.035,1.035,0,1,0,1.374,1.549Zm-4.842,1.467,2.07-12.423A1.035,1.035,0,1,0,10.372.871L8.3,13.294a1.035,1.035,0,0,0,.851,1.192,1.1,1.1,0,0,0,.171.014,1.035,1.035,0,0,0,1.02-.864Z" transform="translate(0.377 0.245)" stroke="#f0edfc" stroke-width="0.5"/>
</svg>
