<svg xmlns="http://www.w3.org/2000/svg" width="14.982" height="14.269" viewBox="0 0 14.982 14.269">
  <path id="Path_45726" data-name="Path 45726" d="M12.735,7.848H10.488A2.2,2.2,0,0,0,8.24,9.988v2.14a2.2,2.2,0,0,0,2.247,2.14h2.247a2.2,2.2,0,0,0,2.247-2.14V9.988a2.2,2.2,0,0,0-2.247-2.14m-8.24,0H2.247A2.2,2.2,0,0,0,0,9.988v2.14a2.2,2.2,0,0,0,2.247,2.14H4.495a2.2,2.2,0,0,0,2.247-2.14V9.988a2.2,2.2,0,0,0-2.247-2.14M12.735,0H10.488A2.2,2.2,0,0,0,8.24,2.14v2.14a2.2,2.2,0,0,0,2.247,2.14h2.247a2.2,2.2,0,0,0,2.247-2.14V2.14A2.2,2.2,0,0,0,12.735,0M6.742,2.14v2.14a2.2,2.2,0,0,1-2.247,2.14H2.247A2.2,2.2,0,0,1,0,4.281V2.14A2.2,2.2,0,0,1,2.247,0H4.495A2.2,2.2,0,0,1,6.742,2.14" fill-rule="evenodd"/>
</svg>
