<svg xmlns="http://www.w3.org/2000/svg" width="15.33" height="10.95" viewBox="0 0 15.33 10.95">
  <g id="Group_49713" data-name="Group 49713" transform="translate(-2 -6)">
    <path id="Path_45563" data-name="Path 45563" d="M15.688,16.95H3.643A1.643,1.643,0,0,1,2,15.308V7.643A1.643,1.643,0,0,1,3.643,6H15.688A1.643,1.643,0,0,1,17.33,7.643v7.665A1.643,1.643,0,0,1,15.688,16.95ZM3.643,7.1a.548.548,0,0,0-.548.548v7.665a.548.548,0,0,0,.548.548H15.688a.548.548,0,0,0,.548-.548V7.643a.548.548,0,0,0-.548-.548Z" transform="translate(0 0)" fill="#231f20"/>
    <path id="Path_45564" data-name="Path 45564" d="M10.152,12.5a.548.548,0,0,1-.3-.093l-6.57-4.38a.548.548,0,0,1,.6-.909l6.57,4.38a.548.548,0,0,1-.3,1Z" transform="translate(-0.487 -0.476)" fill="#231f20"/>
    <path id="Path_45565" data-name="Path 45565" d="M15.546,12.489a.548.548,0,0,1-.307-1l6.57-4.38a.548.548,0,0,1,.608.909l-6.57,4.38A.547.547,0,0,1,15.546,12.489Z" transform="translate(-5.881 -0.466)" fill="#231f20"/>
  </g>
</svg>
