<svg xmlns="http://www.w3.org/2000/svg" width="15.426" height="15.426" viewBox="0 0 15.426 15.426">
  <path id="layout_29" data-name="layout 29" d="M15.112,2H4.314A2.314,2.314,0,0,0,2,4.314v10.8a2.314,2.314,0,0,0,2.314,2.314h10.8a2.314,2.314,0,0,0,2.314-2.314V4.314A2.314,2.314,0,0,0,15.112,2Zm0,1.543a.771.771,0,0,1,.771.771V8.942h-5.4v-5.4ZM4.314,15.883a.771.771,0,0,1-.771-.771V4.314a.771.771,0,0,1,.771-.771H8.942V15.883Zm11.569-.771a.771.771,0,0,1-.771.771H10.484v-5.4h5.4Z" transform="translate(-2 -2)"/>
</svg>
