<svg xmlns="http://www.w3.org/2000/svg" width="14.151" height="17.568" viewBox="0 0 14.151 17.568">
  <path id="Path_45726" data-name="Path 45726" d="M35.324,31.889a4.924,4.924,0,0,1-2.451-1.155,12.261,12.261,0,0,1-1.925,5.328.544.544,0,0,1-.972-.3c-.162-3.241.952-5.814,1.5-8.509-1.033-1.763.122-5.288,2.33-4.416,2.715,1.074-2.35,6.523,1.053,7.212,3.545.689,5-6.159,2.8-8.387-3.181-3.221-9.238-.081-8.489,4.538.142.871.871,1.276.79,2.147a.768.768,0,0,1-1.094.628c-1.4-.648-1.844-2.087-1.783-3.93a6.843,6.843,0,0,1,6.159-6.28c3.829-.425,7.415,1.4,7.9,5,.567,4.032-1.722,8.428-5.814,8.124Z" transform="translate(-27.073 -18.7)" fill="#333033"/>
</svg>
