<svg xmlns="http://www.w3.org/2000/svg" width="16.402" height="13.532" viewBox="0 0 16.402 13.532">
  <g id="Group_49713" data-name="Group 49713" transform="translate(-8 -12.2)">
    <path id="Path_45561" data-name="Path 45561" d="M24.469,16.062h-.957V13.635a.467.467,0,0,0-.478-.478H9.535a.467.467,0,0,0-.478.478v2.426H8.1V13.635A1.444,1.444,0,0,1,9.535,12.2h13.5a1.444,1.444,0,0,1,1.435,1.435v2.426m-2.426,9.671H10.458A1.444,1.444,0,0,1,9.023,24.3V16.1h.957v8.2a.467.467,0,0,0,.478.478H22.042a.467.467,0,0,0,.478-.478V16.1h.957v8.2a1.4,1.4,0,0,1-1.435,1.435" transform="translate(-0.066)"/>
    <path id="Path_45562" data-name="Path 45562" d="M18.115,24.562H14.254a.478.478,0,0,1,0-.957h3.862a.478.478,0,1,1,0,.957M8,20.7H24.4v.957H8Z" transform="translate(0 -5.595)"/>
  </g>
</svg>
