<svg xmlns="http://www.w3.org/2000/svg" width="16.07" height="13" viewBox="0 0 16.07 13">
  <g id="Group_49714" data-name="Group 49714" transform="translate(0 -2)">
    <path id="Path_45580" data-name="Path 45580" d="M6,9.5H6Zm4.5,0h0Z" fill="#fafafa"/>
    <path id="Path_45581" data-name="Path 45581" d="M16.07,8a2,2,0,0,0-2-2,1.975,1.975,0,0,0-1.2.405A8.407,8.407,0,0,0,8.735,5.051l.839-1.968,2.441.57a1.493,1.493,0,1,0,.232-.973L9.394,2.013a.5.5,0,0,0-.575.291l-1.16,2.72A8.575,8.575,0,0,0,3.172,6.379,2,2,0,0,0,0,8,1.98,1.98,0,0,0,1.011,9.731Q1,9.865,1,10c0,2.757,3.14,5,7,5s7-2.243,7-5c0-.078,0-.155-.008-.232A1.98,1.98,0,0,0,16.07,8Z" fill="#ff9800"/>
    <circle id="Ellipse_1648" data-name="Ellipse 1648" cx="0.5" cy="0.5" r="0.5" transform="translate(13 3)" fill="#fafafa"/>
    <circle id="Ellipse_1649" data-name="Ellipse 1649" cx="1" cy="1" r="1" transform="translate(4.5 8.5)" fill="#fafafa"/>
    <path id="Path_45582" data-name="Path 45582" d="M10.309,12.817a3.936,3.936,0,0,1-4.618,0,.5.5,0,1,1,.586-.81,2.933,2.933,0,0,0,3.446,0,.5.5,0,1,1,.586.81Z" fill="#fafafa"/>
    <circle id="Ellipse_1650" data-name="Ellipse 1650" cx="1" cy="1" r="1" transform="translate(9.5 8.5)" fill="#fafafa"/>
  </g>
</svg>
