<svg xmlns="http://www.w3.org/2000/svg" width="15.704" height="13.513" viewBox="0 0 15.704 13.513">
  <g id="_1" data-name="1" transform="translate(-1.25 -2.75)">
    <path id="Path_45566" data-name="Path 45566" d="M16.954,6.95v5.113a3.825,3.825,0,0,1-4.2,4.2H5.45a.548.548,0,0,1,0-1.1h7.3c2.089,0,3.1-1.016,3.1-3.1V6.95c0-2.088-1.015-3.1-3.1-3.1H5.45c-2.089,0-3.1,1.016-3.1,3.1a.548.548,0,1,1-1.1,0,3.825,3.825,0,0,1,4.2-4.2h7.3A3.823,3.823,0,0,1,16.954,6.95ZM7.391,9.57a2.834,2.834,0,0,0,3.422,0L13.1,7.744a.549.549,0,0,0-.685-.856L10.129,8.714a1.746,1.746,0,0,1-2.053,0L5.792,6.888a.549.549,0,0,0-.685.856Z" transform="translate(0 0)"/>
    <path id="Path_45567" data-name="Path 45567" d="M6.18,15.767H1.8a.548.548,0,1,1,0-1.1H6.18a.548.548,0,1,1,0,1.1ZM4.537,12.3a.548.548,0,0,0-.548-.548H1.8a.548.548,0,0,0,0,1.1H3.989a.548.548,0,0,0,.548-.548Z" transform="translate(0 -2.426)" fill="#6222e6"/>
  </g>
</svg>
