<svg xmlns="http://www.w3.org/2000/svg" width="16.412" height="16.399" viewBox="0 0 16.412 16.399">
  <path id="Path_45726" data-name="Path 45726" d="M15.471,12.542a2.928,2.928,0,0,0-2.29,1.13L7.746,10.955a2.621,2.621,0,0,0,0-1.511l5.435-2.718a3.016,3.016,0,1,0-.527-1.043L7.219,8.4a2.929,2.929,0,1,0,0,3.6l5.435,2.718a2.928,2.928,0,1,0,2.817-2.173Zm0-9.371a1.757,1.757,0,1,1-1.757,1.757A1.757,1.757,0,0,1,15.471,3.171ZM4.928,11.957A1.757,1.757,0,1,1,6.686,10.2,1.757,1.757,0,0,1,4.928,11.957Zm10.542,5.271a1.757,1.757,0,1,1,1.757-1.757A1.757,1.757,0,0,1,15.471,17.228Z" transform="translate(-2 -2)"/>
</svg>
