<svg xmlns="http://www.w3.org/2000/svg" width="20.154" height="20.154" viewBox="0 0 20.154 20.154">
  <path id="globe" d="M21.154,11.577a9.577,9.577,0,1,0-9.577,9.577A9.577,9.577,0,0,0,21.154,11.577Zm-1.982-.958H16.366a12.364,12.364,0,0,0-2.231-6.263,7.662,7.662,0,0,1,5.038,6.263ZM8.781,12.535h5.67a10.956,10.956,0,0,1-2.873,6.331,10.535,10.535,0,0,1-2.8-6.331Zm0-1.915a10.918,10.918,0,0,1,2.8-6.321,10.717,10.717,0,0,1,2.873,6.321Zm.345-6.292a12.623,12.623,0,0,0-2.27,6.292H3.982A7.662,7.662,0,0,1,9.125,4.327ZM3.982,12.535H6.856a12.316,12.316,0,0,0,2.251,6.283A7.662,7.662,0,0,1,3.982,12.535Zm10.1,6.273a12.584,12.584,0,0,0,2.279-6.273h2.825A7.662,7.662,0,0,1,14.086,18.808Z" transform="translate(-1.5 -1.5)" stroke="#f6f6f6" stroke-width="1"/>
</svg>
