<svg id="Group_49711" data-name="Group 49711" xmlns="http://www.w3.org/2000/svg" width="23.764" height="23.772" viewBox="0 0 23.764 23.772">
  <path id="Path_39896" data-name="Path 39896" d="M26.358,15.3c-.014-.027-.065-.053-.081-.079a3.964,3.964,0,0,1-1.23-2.783V7.716c0-1.994.235-3.831-1.234-5.195A6.856,6.856,0,0,0,19.325,1h-.63c-2.674.155-5.506,1.311-6.138,4.617a.494.494,0,0,0,.421.63l2.939.367a.748.748,0,0,0,.525-.642,2.325,2.325,0,0,1,2.255-1.905h.211a2.007,2.007,0,0,1,1.618.855,4.156,4.156,0,0,1,.306,2.271v.419c-.383.052-1.409.1-2.2.207a11.457,11.457,0,0,0-3.378.842,5.033,5.033,0,0,0-3.238,4.932,5.813,5.813,0,0,0,.249,1.707,4.187,4.187,0,0,0,4.275,2.964A8.723,8.723,0,0,0,18.693,18a6.552,6.552,0,0,0,2.834-1.944,8.243,8.243,0,0,0,1.732,2A.738.738,0,0,0,23.993,18c.631-.526,1.733-1.472,2.309-2,.237-.189.18-.464.057-.707Zm-7.724-5.067a9.924,9.924,0,0,1,2.2-.21v.631a5.548,5.548,0,0,1-.516,3.2,2.492,2.492,0,0,1-1.649,1.366c-.1,0-.247.052-.4.052-1.153,0-1.858-.892-1.858-2.2A2.744,2.744,0,0,1,18.634,10.235Z" transform="translate(-7.803 -1)" fill="#626a84"/>
  <path id="Path_39897" data-name="Path 39897" d="M12.557,8.064a.494.494,0,0,0,.421.63l2.939.367a.748.748,0,0,0,.525-.642,2.307,2.307,0,0,1,2.255-1.905h.211a2.007,2.007,0,0,1,1.618.855,4.156,4.156,0,0,1,.306,2.271v.419c-.383.052-1.409.1-2.2.207a11.457,11.457,0,0,0-3.378.842,5.033,5.033,0,0,0-3.238,4.932,5.813,5.813,0,0,0,.249,1.707,4.187,4.187,0,0,0,4.275,2.964,8.723,8.723,0,0,0,2.15-.261,6.552,6.552,0,0,0,2.834-1.944,8.243,8.243,0,0,0,1.732,2,.738.738,0,0,0,.734-.051c.631-.526,1.733-1.472,2.309-2,.237-.189.179-.464.056-.707-.014-.027-.065-.053-.081-.079a3.964,3.964,0,0,1-1.23-2.782V10.164c0-1.994.235-3.831-1.234-5.195m-5.18,7.713a9.924,9.924,0,0,1,2.2-.21V13.1a5.548,5.548,0,0,1-.516,3.2,2.492,2.492,0,0,1-1.649,1.366c-.1,0-.247.052-.4.052-1.153,0-1.858-.892-1.858-2.2A2.744,2.744,0,0,1,18.634,12.682Z" transform="translate(-7.803 -3.447)" fill="#4b506d"/>
  <path id="Path_39898" data-name="Path 39898" d="M56.137,46.391a2.926,2.926,0,0,1,.556.041.8.8,0,0,1,.151.045l.027.01a.454.454,0,0,1,.015.132,4.558,4.558,0,0,1-.25,1.174c-.142.455-.316.913-.43,1.217a.624.624,0,0,0-.046.231.606.606,0,0,0,.155.413.585.585,0,0,0,.349.182h.006a.749.749,0,0,0,.434-.209,5.422,5.422,0,0,0,1.582-3.671l0-.172v0a1.033,1.033,0,0,0-.168-.592l-.012-.016-.013-.015a.809.809,0,0,0-.315-.206,4.277,4.277,0,0,0-1.41-.195c-.231,0-.383.015-.767.043v1.592Z" transform="translate(-34.921 -27.98)" fill="#ea7b0c"/>
  <path id="Path_39899" data-name="Path 39899" d="M51.85,50.594a1.412,1.412,0,0,0-.467.1c-.127.05-.248.124-.372.175l-.24.142-.3.126h2.054c-.109-.18-.367-.539-.678-.539Z" transform="translate(-31.514 -31.578)" fill="#fa9826"/>
  <path id="Path_39900" data-name="Path 39900" d="M22.039,47.6H19.985a18.879,18.879,0,0,1-7.5,1.707A13.83,13.83,0,0,1,5.68,47.6,13.8,13.8,0,0,1,2.933,46.29,7.919,7.919,0,0,1,2,45.818a.888.888,0,0,0-.378-.09.642.642,0,0,0-.419.155.557.557,0,0,0-.18.4.625.625,0,0,0,.246.488c3.011,2.617,6.311,5.047,10.752,5.05.086,0,.173,0,.261,0a17.453,17.453,0,0,0,8.5-2.576l.015-.009a8.757,8.757,0,0,0,.955-.661.949.949,0,0,0,.321-.686C22.071,47.818,22.058,47.987,22.039,47.6Zm-.483-2.639a3.891,3.891,0,0,0-1.478.69.671.671,0,0,0-.319.519.471.471,0,0,0,.163.372.543.543,0,0,0,.419.114l.021,0,.016,0c.224-.047.509-.079.891-.133a6.918,6.918,0,0,1,.836-.061V44.869C22.1,44.891,21.753,44.921,21.556,44.964Z" transform="translate(-1.026 -28.049)" fill="#fa9826"/>
  <path id="Path_39901" data-name="Path 39901" d="M26.359,26.85a4.211,4.211,0,0,1-1.311-2.861V19.729a14.128,14.128,0,0,1-5.1,1.872c.286-.017.882-.028.882-.028V22.2a5.548,5.548,0,0,1-.516,3.2,2.492,2.492,0,0,1-1.649,1.366c-.1,0-.247.052-.4.052-1.153,0-1.827-.892-1.827-2.2a2.646,2.646,0,0,1,1.96-2.759,20.355,20.355,0,0,1-2.44.141,11.839,11.839,0,0,0-3.333.543,5.373,5.373,0,0,0-.6,2.6,5.8,5.8,0,0,0,.257,1.707,4.183,4.183,0,0,0,4.271,2.964,8.713,8.713,0,0,0,2.149-.261,6.552,6.552,0,0,0,2.833-1.944,8.24,8.24,0,0,0,1.732,2,.737.737,0,0,0,.733-.051c.631-.526,1.733-1.472,2.309-2,.237-.189.179-.464.056-.707-.014-.027.016.026,0,0Z" transform="translate(-7.804 -12.548)" fill="#2a2b35"/>
  <path id="Path_39902" data-name="Path 39902" d="M23.5,51.569H21.444c-2.487,1.15-5.634,2.869-8.045,2.921-.09,0,.089,0,0,0a13.88,13.88,0,0,1-6.259-1.271L4.71,51.987A5.9,5.9,0,0,1,3.391,51.3c2.835,2.388,5.972,4.481,10.088,4.483l.263,0a17.453,17.453,0,0,0,8.5-2.575l.015-.008a8.756,8.756,0,0,0,.955-.661,1.017,1.017,0,0,0,.322-.716Q23.52,51.694,23.5,51.569Z" transform="translate(-2.484 -32.014)" fill="#ea7b0c"/>
</svg>
