<svg xmlns="http://www.w3.org/2000/svg" width="17.381" height="21.32" viewBox="0 0 17.381 21.32">
  <path id="Path_45725" data-name="Path 45725" d="M9.59,1.855A4.563,4.563,0,0,1,12.938,0a4.553,4.553,0,0,1-1.1,3.408A3.6,3.6,0,0,1,8.661,4.9,3.959,3.959,0,0,1,9.59,1.855ZM8.84,6.117c.721,0,2.058-.991,3.8-.991a4.759,4.759,0,0,1,4.176,2.132A4.63,4.63,0,0,0,14.509,11.3a4.747,4.747,0,0,0,2.872,4.339s-2.008,5.651-4.72,5.651c-1.246,0-2.214-.839-3.527-.839-1.338,0-2.665.871-3.529.871C3.129,21.32,0,15.959,0,11.65,0,7.41,2.648,5.186,5.132,5.186c1.615,0,2.868.931,3.707.931Z" fill="#999"/>
</svg>
