<svg xmlns="http://www.w3.org/2000/svg" width="68.784" height="28.017" viewBox="0 0 68.784 28.017">
  <g id="Group_49711" data-name="Group 49711" transform="translate(-1404.128 -520.205)">
    <path id="apple-14" d="M10.486,5.961a4.833,4.833,0,0,0,3.581-1.594A5.172,5.172,0,0,0,15.608.66q0-.232-.037-.66-.269.037-.4.061a5.442,5.442,0,0,0-3.312,1.844,4.947,4.947,0,0,0-1.43,3.371A6.132,6.132,0,0,0,10.486,5.961Zm4.877,18.677q1.454,0,3.214-1.991a13.767,13.767,0,0,0,2.689-4.678q-3.459-1.783-3.459-5.118a5.742,5.742,0,0,1,2.8-4.764,6.248,6.248,0,0,0-5.133-2.431,7.164,7.164,0,0,0-2.457.4l-.464.171-.623.244a3.164,3.164,0,0,1-1.112.232A2.81,2.81,0,0,1,9.79,6.437l-.477-.2-.452-.183a5.441,5.441,0,0,0-2.127-.415A6.256,6.256,0,0,0,1.846,7.7,7.785,7.785,0,0,0,0,13.107a14.4,14.4,0,0,0,2.958,8.734q2.053,2.8,3.752,2.8a3.853,3.853,0,0,0,1.43-.281l.6-.244.477-.171a5.574,5.574,0,0,1,1.846-.354,5.769,5.769,0,0,1,2.053.452l.379.147A5.66,5.66,0,0,0,15.363,24.638Z" transform="translate(1404.128 520.205)"/>
    <path id="Path_45858" data-name="Path 45858" d="M1024.118,791.09v7.563H1021.7V779.969h6.412a5.822,5.822,0,0,1,4.154,1.616,5.377,5.377,0,0,1,.308,7.6q-.148.16-.308.308a5.806,5.806,0,0,1-4.154,1.591Zm0-8.822v6.523h4.051a3.252,3.252,0,0,0,2.476-5.445l-.025-.025a.785.785,0,0,0-.062-.062,3.161,3.161,0,0,0-2.389-.991Zm15.447,3.183a6.008,6.008,0,0,1,4.232,1.423,5.027,5.027,0,0,1,1.55,3.9v7.88h-2.311v-1.777h-.1a4.628,4.628,0,0,1-4,2.192,5.194,5.194,0,0,1-3.558-1.254,3.992,3.992,0,0,1-1.431-3.13,3.789,3.789,0,0,1,1.509-3.154,6.411,6.411,0,0,1,4.035-1.172,7.207,7.207,0,0,1,3.545.781v-.551a2.717,2.717,0,0,0-1-2.122,3.432,3.432,0,0,0-2.332-.872,3.715,3.715,0,0,0-3.2,1.694l-2.126-1.332A5.905,5.905,0,0,1,1039.565,785.451Zm-3.13,9.286a1.919,1.919,0,0,0,.8,1.567,2.958,2.958,0,0,0,1.88.625,3.85,3.85,0,0,0,2.718-1.123,3.5,3.5,0,0,0,1.2-2.636,4.971,4.971,0,0,0-3.154-.9,4.1,4.1,0,0,0-2.455.7A2.131,2.131,0,0,0,1036.436,794.738Zm22.183-8.867-8.069,18.416h-2.5l2.994-6.444-5.309-11.976h2.628l3.837,9.184h.053l3.73-9.184Z" transform="translate(414.293 -256.066)"/>
  </g>
</svg>
