<svg xmlns="http://www.w3.org/2000/svg" xmlns:xlink="http://www.w3.org/1999/xlink" width="30.441" height="30.441" viewBox="0 0 30.441 30.441">
  <defs>
    <clipPath id="clip-path">
      <path id="Path_45899" data-name="Path 45899" d="M0-47.5H30.441v30.441H0Z"/>
    </clipPath>
  </defs>
  <g id="Group_49711" data-name="Group 49711" transform="translate(0 47.5)" clip-path="url(#clip-path)">
    <path id="Path_45890" data-name="Path 45890" d="M30.089-19.489c0,4.424-6.456,8.011-14.42,8.011S1.25-15.065,1.25-19.489,7.706-27.5,15.67-27.5s14.42,3.587,14.42,8.011" transform="translate(-0.449 -7.183)" fill="#939598"/>
    <path id="Path_45891" data-name="Path 45891" d="M30.089-21.989c0,4.424-6.456,8.011-14.42,8.011S1.25-17.565,1.25-21.989,7.706-30,15.67-30s14.42,3.587,14.42,8.011" transform="translate(-0.449 -6.285)" fill="#f1f2f2"/>
    <path id="Path_45892" data-name="Path 45892" d="M28.962-22.441c0,3.637-5.308,6.587-11.856,6.587S5.25-18.8,5.25-22.441s5.308-6.587,11.856-6.587,11.856,2.949,11.856,6.587" transform="translate(-1.885 -6.634)" fill="#ccd6dd"/>
    <path id="Path_45893" data-name="Path 45893" d="M27.624-21.244c0,2.458-3.946,4.451-8.812,4.451S10-18.786,10-21.244s3.945-4.451,8.812-4.451,8.812,1.993,8.812,4.451" transform="translate(-3.591 -7.831)" fill="#8a4b38"/>
    <path id="Path_45894" data-name="Path 45894" d="M28.47-21.858c0,3.117-4.807,5.643-10.737,5.643S6.995-18.741,6.995-21.858,11.8-27.5,17.733-27.5,28.47-24.973,28.47-21.858" transform="translate(-2.512 -7.183)" fill="#ad5540"/>
    <path id="Path_45895" data-name="Path 45895" d="M28.328-23.591c0,7.21-20.828,7.21-20.828,0V-30H28.328Z" transform="translate(-2.693 -6.285)" fill="#662113"/>
    <path id="Path_45896" data-name="Path 45896" d="M28.47-34.357c0,3.116-4.807,5.642-10.737,5.642S6.995-31.24,6.995-34.357,11.8-40,17.733-40,28.47-37.473,28.47-34.357" transform="translate(-2.512 -2.694)" fill="#ad5540"/>
    <path id="Path_45897" data-name="Path 45897" d="M14.551-34.04a.8.8,0,0,1-.8-.8v-5.608a.8.8,0,0,1,.8-.8.8.8,0,0,1,.8.8v5.608a.8.8,0,0,1-.8.8m5.608,2.4a.8.8,0,0,1-.8-.8v-5.608a.8.8,0,0,1,.8-.8.8.8,0,0,1,.8.8v5.608a.8.8,0,0,1-.8.8m5.608-2.4a.8.8,0,0,1-.8-.8v-5.608a.8.8,0,0,1,.8-.8.8.8,0,0,1,.8.8v5.608a.8.8,0,0,1-.8.8" transform="translate(-4.938 -2.245)" fill="#88c9f9"/>
    <path id="Path_45898" data-name="Path 45898" d="M25.141-40.818a1.825,1.825,0,0,1-1.789-1.041c-.234-.566-.351-1.793,1.505-3.649a.4.4,0,0,1,.567,0c1.856,1.856,1.739,3.083,1.505,3.649a1.825,1.825,0,0,1-1.789,1.041m-5.608,2.4a1.825,1.825,0,0,1-1.789-1.041c-.235-.566-.35-1.793,1.505-3.649a.4.4,0,0,1,.567,0c1.856,1.856,1.739,3.083,1.505,3.649a1.825,1.825,0,0,1-1.789,1.041m-5.608-2.4a1.825,1.825,0,0,1-1.789-1.041c-.235-.566-.35-1.793,1.505-3.649a.4.4,0,0,1,.567,0c1.855,1.856,1.74,3.083,1.505,3.649a1.825,1.825,0,0,1-1.789,1.041" transform="translate(-4.312 -0.673)" fill="#ffac33"/>
  </g>
</svg>
