<svg id="Group_49710" data-name="Group 49710" xmlns="http://www.w3.org/2000/svg" width="45.936" height="45.936" viewBox="0 0 45.936 45.936">
  <path id="Path_45598" data-name="Path 45598" d="M3,8.1H8.1V3A5.119,5.119,0,0,0,3,8.1ZM3,28.52H8.1v-5.1H3ZM13.208,48.935h5.1v-5.1h-5.1ZM3,18.312H8.1v-5.1H3ZM28.52,3h-5.1V8.1h5.1ZM43.832,3V8.1h5.1A5.119,5.119,0,0,0,43.832,3ZM8.1,48.935v-5.1H3A5.119,5.119,0,0,0,8.1,48.935ZM3,38.728H8.1v-5.1H3ZM18.312,3h-5.1V8.1h5.1Zm5.1,45.935h5.1v-5.1h-5.1ZM43.832,28.52h5.1v-5.1h-5.1Zm0,20.416a5.119,5.119,0,0,0,5.1-5.1h-5.1Zm0-30.624h5.1v-5.1h-5.1Zm0,20.416h5.1v-5.1h-5.1ZM33.624,48.935h5.1v-5.1h-5.1Zm0-40.832h5.1V3h-5.1ZM15.76,38.728H36.176a2.559,2.559,0,0,0,2.552-2.552V15.76a2.559,2.559,0,0,0-2.552-2.552H15.76a2.559,2.559,0,0,0-2.552,2.552V36.176A2.559,2.559,0,0,0,15.76,38.728Zm2.552-20.416H33.624V33.624H18.312Z" transform="translate(-3 -3)" fill="#9f83eb"/>
</svg>
