<svg xmlns="http://www.w3.org/2000/svg" width="40.053" height="36.086" viewBox="0 0 40.053 36.086">
  <g id="Group_49713" data-name="Group 49713" transform="translate(2 2)">
    <path id="Path_45600" data-name="Path 45600" d="M25.163,5.561l-8,6.438a4.168,4.168,0,0,1-5.148,0L3.954,5.561" transform="translate(3.458 4.864)" fill="none" stroke="#9f83eb" stroke-linecap="round" stroke-linejoin="round" stroke-width="4" fill-rule="evenodd"/>
    <path id="Path_45601" data-name="Path 45601" d="M9.163,0H26.836a9.292,9.292,0,0,1,6.711,2.981,9.4,9.4,0,0,1,2.486,6.943V22.162A9.4,9.4,0,0,1,33.548,29.1a9.292,9.292,0,0,1-6.711,2.981H9.163C3.689,32.086,0,27.633,0,22.162V9.924C0,4.453,3.689,0,9.163,0Z" transform="translate(0 0)" fill="none" stroke="#9f83eb" stroke-linecap="round" stroke-linejoin="round" stroke-width="4" fill-rule="evenodd"/>
  </g>
</svg>
