<svg xmlns="http://www.w3.org/2000/svg" width="23.615" height="44.974" viewBox="0 0 23.615 44.974">
  <path id="Path_45889" data-name="Path 45889" d="M23.769,34.144a4.163,4.163,0,0,0-1.064-3,9.3,9.3,0,0,0-3.56-2.081A44.111,44.111,0,0,1,14.8,27.186a14.636,14.636,0,0,1-3.145-2.15A9,9,0,0,1,9.62,22.17,9.692,9.692,0,0,1,8.9,18.262a8.675,8.675,0,0,1,2.5-6.406,10.54,10.54,0,0,1,6.634-2.911v-3.1a1.849,1.849,0,1,1,3.7,0V9.012a9.643,9.643,0,0,1,6.406,3.42A10.019,10.019,0,0,1,30.2,16.992a2.428,2.428,0,0,1-2.535,2.771H26.552a3.636,3.636,0,0,1-3.175-2.746,4.273,4.273,0,0,0-.763-1.393,3.741,3.741,0,0,0-3.053-1.387,3.871,3.871,0,0,0-2.936,1.086,4.043,4.043,0,0,0-1.042,2.958A3.913,3.913,0,0,0,16.6,21.1a11.191,11.191,0,0,0,3.768,2.172,39.969,39.969,0,0,1,4.557,2.106A12.678,12.678,0,0,1,27.93,27.6,8.43,8.43,0,0,1,29.8,30.42a9.622,9.622,0,0,1,.646,3.677A8.623,8.623,0,0,1,28,40.477a10.732,10.732,0,0,1-6.749,2.891v2.763a1.838,1.838,0,0,1-3.677,0V43.391a11.216,11.216,0,0,1-7.353-3.351A9.911,9.911,0,0,1,7.879,35.2a2.429,2.429,0,0,1,2.535-2.771h1.114a3.717,3.717,0,0,1,3.211,2.741,4.726,4.726,0,0,0,.866,1.493,4.831,4.831,0,0,0,3.768,1.454,4.627,4.627,0,0,0,3.214-1.061,3.774,3.774,0,0,0,1.181-2.913Z" transform="translate(-7.333 -3.496)" fill="#9f83eb" stroke="#fcfcfc" strokeWidth="1"/>
</svg>
