<svg xmlns="http://www.w3.org/2000/svg" width="13.577" height="26.405" viewBox="0 0 13.577 26.405">
  <path id="Path_45890" data-name="Path 45890" d="M17.4,22.1a2.5,2.5,0,0,0-.639-1.8,5.586,5.586,0,0,0-2.137-1.249,26.487,26.487,0,0,1-2.611-1.126,8.789,8.789,0,0,1-1.888-1.291,5.4,5.4,0,0,1-1.221-1.721,5.82,5.82,0,0,1-.431-2.346,5.209,5.209,0,0,1,1.5-3.847,6.329,6.329,0,0,1,3.984-1.748V5.107a1.111,1.111,0,1,1,2.221,0v1.9a5.79,5.79,0,0,1,3.847,2.054A6.016,6.016,0,0,1,21.266,11.8a1.458,1.458,0,0,1-1.522,1.664h-.669a2.183,2.183,0,0,1-1.907-1.649,2.566,2.566,0,0,0-.458-.836,2.247,2.247,0,0,0-1.833-.833,2.325,2.325,0,0,0-1.763.652,2.428,2.428,0,0,0-.626,1.776,2.35,2.35,0,0,0,.61,1.694,6.72,6.72,0,0,0,2.263,1.3A24,24,0,0,1,18.1,16.837a7.613,7.613,0,0,1,1.8,1.333,5.062,5.062,0,0,1,1.124,1.693,5.778,5.778,0,0,1,.388,2.208A5.178,5.178,0,0,1,19.943,25.9a6.444,6.444,0,0,1-4.052,1.736V29.3a1.1,1.1,0,0,1-2.208,0V27.651a6.735,6.735,0,0,1-4.415-2.012,5.951,5.951,0,0,1-1.4-2.905A1.459,1.459,0,0,1,9.385,21.07h.669a2.232,2.232,0,0,1,1.928,1.646,2.838,2.838,0,0,0,.52.9,2.9,2.9,0,0,0,2.263.873,2.779,2.779,0,0,0,1.93-.637A2.266,2.266,0,0,0,17.4,22.1Z" transform="translate(-7.838 -3.996)" fill="#fff"/>
</svg>
