<svg xmlns="http://www.w3.org/2000/svg" width="65.518" height="25.759" viewBox="0 0 65.518 25.759">
  <g id="google-pay-1" transform="translate(-4.076 -16.833)">
    <path id="Path_45853" data-name="Path 45853" d="M449.29,978.326a9,9,0,0,0-.218-2.126H439.3v3.862h5.737a5.079,5.079,0,0,1-2.126,3.377l-.021.128,3.089,2.393.214.021a10.179,10.179,0,0,0,3.1-7.654" transform="translate(-424.819 -950.858)" fill="#4285f4"/>
    <path id="Path_45854" data-name="Path 45854" d="M222.595,1080.553a9.924,9.924,0,0,0,6.893-2.521l-3.282-2.546a6.151,6.151,0,0,1-3.607,1.041,6.274,6.274,0,0,1-5.922-4.326l-.123.012-3.212,2.484-.041.115a10.375,10.375,0,0,0,9.295,5.741" transform="translate(-208.113 -1042.91)" fill="#34a853"/>
    <path id="Path_45855" data-name="Path 45855" d="M190.783,914.182a6.371,6.371,0,0,1-.345-2.06,6.758,6.758,0,0,1,.337-2.06l0-.136-3.253-2.525-.107.049a10.383,10.383,0,0,0,0,9.344Z" transform="translate(-182.224 -884.888)" fill="#fbbc05"/>
    <path id="Path_45856" data-name="Path 45856" d="M222.4,773.307a5.743,5.743,0,0,1,4.022,1.551l2.936-2.867a10.007,10.007,0,0,0-6.963-2.706,10.4,10.4,0,0,0-9.3,5.737l3.364,2.612a6.3,6.3,0,0,1,5.939-4.327" transform="translate(-207.921 -752.452)" fill="#eb4335"/>
    <path id="Path_45857" data-name="Path 45857" d="M1024.118,791.09v7.563H1021.7V779.969h6.412a5.822,5.822,0,0,1,4.154,1.616,5.377,5.377,0,0,1,.308,7.6q-.148.16-.308.308a5.806,5.806,0,0,1-4.154,1.591Zm0-8.822v6.523h4.051a3.252,3.252,0,0,0,2.476-5.445l-.025-.025a.785.785,0,0,0-.062-.062,3.161,3.161,0,0,0-2.389-.991Zm15.447,3.183a6.008,6.008,0,0,1,4.232,1.423,5.027,5.027,0,0,1,1.55,3.9v7.88h-2.311v-1.777h-.1a4.628,4.628,0,0,1-4,2.192,5.194,5.194,0,0,1-3.558-1.254,3.992,3.992,0,0,1-1.431-3.13,3.789,3.789,0,0,1,1.509-3.154,6.411,6.411,0,0,1,4.035-1.172,7.207,7.207,0,0,1,3.545.781v-.551a2.717,2.717,0,0,0-1-2.122,3.432,3.432,0,0,0-2.332-.872,3.715,3.715,0,0,0-3.2,1.694l-2.126-1.332A5.905,5.905,0,0,1,1039.565,785.451Zm-3.13,9.286a1.919,1.919,0,0,0,.8,1.567,2.958,2.958,0,0,0,1.88.625,3.85,3.85,0,0,0,2.718-1.123,3.5,3.5,0,0,0,1.2-2.636,4.971,4.971,0,0,0-3.154-.9,4.1,4.1,0,0,0-2.455.7A2.131,2.131,0,0,0,1036.436,794.738Zm22.183-8.867-8.069,18.416h-2.5l2.994-6.444-5.309-11.976h2.628l3.837,9.184h.053l3.73-9.184Z" transform="translate(-989.026 -761.696)"/>
  </g>
</svg>
