<svg xmlns="http://www.w3.org/2000/svg" width="23.891" height="16.637" viewBox="0 0 23.891 16.637">
  <g id="_255" data-name="255" transform="translate(0.5 0.574)">
    <path id="Rectangle-1187" d="M22.685,9.6a.715.715,0,0,1-.515,1.216H13.6a.715.715,0,1,1,0-1.431h6.852L17.6,6.535a.715.715,0,0,1,1.012-1.012L22.661,9.57l.025.026ZM.72,15.1A.716.716,0,0,0,0,15.82H0a.717.717,0,0,0,.72.715H9.295a.716.716,0,0,0,.72-.715h0a.717.717,0,0,0-.72-.715Z" transform="translate(0 -5.314)" fill="#fff" stroke="#fff" strokeWidth="1" fillRule="evenodd"/>
    <path id="Rectangle-365" d="M22.436,18.243l-4.047,4.047a.715.715,0,0,1-1.012-1.012L20.5,18.156H15.732a4.669,4.669,0,0,1-2.941-1.219l-3.7-3.7a3.224,3.224,0,0,0-1.926-.794l-6.444.028a.715.715,0,0,1-.006-1.431l6.444-.028A4.62,4.62,0,0,1,10.1,12.222l3.7,3.7a3.277,3.277,0,0,0,1.929.8h6.444a.715.715,0,0,1,.408,1.3A.714.714,0,0,1,22.436,18.243Z" transform="translate(0 -6.935)" fill="#e3d4ff" stroke="#e3d4ff" strokeWidth="1"/>
  </g>
</svg>
