<svg xmlns="http://www.w3.org/2000/svg" width="43.543" height="41.041" viewBox="0 0 43.543 41.041">
  <g id="Layer_2" data-name="Layer 2" transform="translate(0.5 0.5)">
    <path id="log-in" d="M43.04,4H38.035a2.5,2.5,0,1,0,0,5.005h2.5v30.03h-2.5a2.5,2.5,0,1,0,0,5.005H43.04a2.5,2.5,0,0,0,2.5-2.5V6.5A2.5,2.5,0,0,0,43.04,4ZM25.022,12.509a2.5,2.5,0,1,0-4,3l4.5,6.006H5.5a2.5,2.5,0,1,0,0,5.005H25.748l-4.3,6.106a2.5,2.5,0,0,0,4.079,2.9l7.057-10.01a2.5,2.5,0,0,0,0-2.953Z" transform="translate(-3 -4)" fill="#9f83eb" stroke="#f9f9f9" strokeWidth="1"/>
  </g>
</svg>
