<svg xmlns="http://www.w3.org/2000/svg" width="39.861" height="24.638" viewBox="0 0 39.861 24.638">
  <g id="mastercard-2" transform="translate(0 0.001)">
    <path id="Path_45849" data-name="Path 45849" d="M740.488,151.52H729.71V132.15h10.779Z" transform="translate(-715.168 -129.517)" fill="#b9b9b9"/>
    <path id="Path_45850" data-name="Path 45850" d="M15.225,12.318a12.3,12.3,0,0,1,4.7-9.685,12.319,12.319,0,1,0,0,19.37,12.3,12.3,0,0,1-4.7-9.685" transform="translate(0 0)" fill="#8d8d8d"/>
    <path id="Path_45851" data-name="Path 45851" d="M1020.041,12.318A12.318,12.318,0,0,1,1000.11,22a12.32,12.32,0,0,0,0-19.37,12.318,12.318,0,0,1,19.931,9.685" transform="translate(-980.18 0)" fill="#d2d2d2"/>
  </g>
</svg>
