<svg xmlns="http://www.w3.org/2000/svg" width="21.5" height="21.5" viewBox="0 0 21.5 21.5">
  <g id="Group_49710" data-name="Group 49710" transform="translate(-1.25 -1.25)" opacity="0.42">
    <path id="Path_45609" data-name="Path 45609" d="M18.03,7.97a.75.75,0,0,1,0,1.061l-7,7a.75.75,0,0,1-1.061,0l-4-4A.75.75,0,0,1,7.03,10.97l3.47,3.47,6.47-6.47A.75.75,0,0,1,18.03,7.97Z" fill-rule="evenodd"/>
    <path id="Path_45610" data-name="Path 45610" d="M12,2.75A9.25,9.25,0,1,0,17.55,19.4a.75.75,0,1,1,.9,1.2,10.73,10.73,0,1,1,3.416-4.326.75.75,0,0,1-1.376-.6A9.255,9.255,0,0,0,12,2.75Z" fill-rule="evenodd"/>
  </g>
</svg>
