<svg xmlns="http://www.w3.org/2000/svg" width="21" height="20" viewBox="0 0 21 20">
  <path id="Path_45890" data-name="Path 45890" d="M17.85,11H14.7a3.077,3.077,0,0,0-3.15,3v3a3.077,3.077,0,0,0,3.15,3h3.15A3.077,3.077,0,0,0,21,17V14a3.077,3.077,0,0,0-3.15-3M6.3,11H3.15A3.077,3.077,0,0,0,0,14v3a3.077,3.077,0,0,0,3.15,3H6.3a3.077,3.077,0,0,0,3.15-3V14A3.077,3.077,0,0,0,6.3,11M17.85,0H14.7a3.077,3.077,0,0,0-3.15,3V6A3.077,3.077,0,0,0,14.7,9h3.15A3.077,3.077,0,0,0,21,6V3a3.077,3.077,0,0,0-3.15-3M9.45,3V6A3.077,3.077,0,0,1,6.3,9H3.15A3.077,3.077,0,0,1,0,6V3A3.077,3.077,0,0,1,3.15,0H6.3A3.077,3.077,0,0,1,9.45,3" fill="#d0d0d0" fill-rule="evenodd"/>
</svg>
