<svg xmlns="http://www.w3.org/2000/svg" width="23.395" height="23.404" viewBox="0 0 23.395 23.404">
  <g id="Group_49711" data-name="Group 49711" transform="translate(-1.071 -1.057)">
    <path id="Path_45647" data-name="Path 45647" d="M1.544,1.526a1.583,1.583,0,0,0,0,2.256l.493.489c.042,1.668-.961,3.748-.961,6.534,0,2.764,1.019,4.838.962,6.527l-.494.49a1.583,1.583,0,0,0,0,2.256,1.614,1.614,0,0,0,2.274,0l.493-.489c1.4-.149,5.658.97,8.458.97s7.01-1,8.466-.959l.482.478a1.614,1.614,0,0,0,2.275,0,1.583,1.583,0,0,0,0-2.256l-.506-.5c-.2-1.7.977-3.737.975-6.515,0-2.8-1.157-4.854-.969-6.527l.5-.5a1.583,1.583,0,0,0,0-2.256,1.614,1.614,0,0,0-2.275,0l-.523.519c-1.492.055-5.652-.986-8.426-.986S5.8,2.216,4.356,2.06l-.538-.534a1.622,1.622,0,0,0-2.274,0Z" fill="#00a1ff"/>
    <path id="Path_45648" data-name="Path 45648" d="M5.191,4.756c-.233.233.151.745.151.745.042,1.492-1.348,3.592-1.348,6.272s1.389,4.78,1.348,6.272c0,0-.384.512-.151.745.166.166.871-.035.957-.751a51.836,51.836,0,0,0,0-12.53c-.065-.537-.673-1.036-.957-.751Z" transform="translate(-0.768 -0.951)" fill="#06f"/>
    <path id="Path_45649" data-name="Path 45649" d="M14.852,28.646a5.835,5.835,0,1,1,5.835-5.835,5.835,5.835,0,0,1-5.835,5.835Z" transform="translate(-2.089 -4.185)" fill="#a8d0ff"/>
    <path id="Path_45650" data-name="Path 45650" d="M16.451,20.016c-.705,0-.9.582-1.038,1.273l-.389,1.953-.892.276c-.674.209-1.273.333-1.273,1.038s.568.926,1.273.926H16.1a1.271,1.271,0,0,0,1.273-1.273v-2.92c0-.705-.221-1.273-.926-1.273Z" transform="translate(-3.098 -4.984)" fill="#fff"/>
  </g>
</svg>
