<svg xmlns="http://www.w3.org/2000/svg" width="53.218" height="17.243" viewBox="0 0 53.218 17.243">
  <path id="visa-10" d="M35.163.5c-3.779,0-7.155,1.959-7.155,5.577,0,4.15,5.989,4.436,5.989,6.521,0,.878-1.006,1.664-2.724,1.664a9.045,9.045,0,0,1-4.261-1.1l-.78,3.652a13.3,13.3,0,0,0,4.887.927c4.131,0,7.382-2.055,7.382-5.735,0-4.385-6.014-4.663-6.014-6.6,0-.688.826-1.441,2.539-1.441a8.63,8.63,0,0,1,3.51.8L39.3,1.24A11.422,11.422,0,0,0,35.163.5ZM.592.766.5,1.3a17.768,17.768,0,0,1,3.021.871C5.365,2.835,5.5,3.223,5.807,4.426L9.19,17.468h4.535L20.712.766H16.187L11.7,12.122,9.866,2.5A1.98,1.98,0,0,0,7.805.766H.592Zm21.94,0-3.55,16.7H23.3L26.834.766h-4.3ZM46.6.766a2.036,2.036,0,0,0-2,1.53L38.28,17.468H42.8l.875-2.529h5.513l.532,2.529h3.993L50.234.766Zm.588,4.512,1.341,6.267H44.934Z" transform="translate(-0.5 -0.5)" fill="#e5e5e5"/>
</svg>
