<svg id="zoom-svgrepo-com" xmlns="http://www.w3.org/2000/svg" width="31" height="31" viewBox="0 0 31 31">
  <rect id="Rectangle_19264" data-name="Rectangle 19264" width="31" height="31" rx="5" fill="#2d8cff"/>
  <path id="Path_39950" data-name="Path 39950" d="M82.56,156.759a.894.894,0,0,0,.969-.408c.1-.153.1-.408.1-.969v-7.7a2.149,2.149,0,0,0-.1-.969.713.713,0,0,0-.969-.408c-1.071.714-3.416,2.8-3.467,3.671a3.652,3.652,0,0,0-.041.765v1.938a3.652,3.652,0,0,0,.041.765,1.7,1.7,0,0,0,.408.969c.612.459,2.651,2.294,3.11,2.294ZM64,148.091c0-.765,0-1.173.153-1.377.1-.2.408-.408.561-.561.2-.153.561-.153,1.377-.153h6.577c1.938,0,2.906,0,3.671.408a4,4,0,0,1,1.53,1.53c.408.765.408,1.734.408,3.671v3.467c0,.765,0,1.173-.153,1.377-.1.2-.408.408-.561.561-.2.153-.561.153-1.377.153H69.609c-1.938,0-2.906,0-3.671-.408a4,4,0,0,1-1.53-1.53C64,154.464,64,153.5,64,151.558Z" transform="translate(-58.862 -136.691)" fill="#fff"/>
</svg>
