<svg xmlns="http://www.w3.org/2000/svg" width="16.279" height="25.675" viewBox="0 0 16.279 25.675">
  <path id="attachment-svgrepo-com_1_" data-name="attachment-svgrepo-com (1)" d="M13.322,26.912a7.555,7.555,0,0,1-5.968-2.387c-2.721-3.079-2.148-7.949-2.113-8.152V6.919c.024-1.957.919-5.669,4.5-5.669s4.476,3.712,4.476,5.669v9.549a.9.9,0,0,1-1.79,0V6.919c0-.155,0-3.879-2.686-3.879S7.056,6.764,7.056,6.919v9.549c0,.155-.5,4.4,1.683,6.863a5.8,5.8,0,0,0,4.583,1.79,5.8,5.8,0,0,0,4.583-1.79c2.184-2.459,1.695-6.708,1.695-6.756V2.145a.9.9,0,0,1,1.79,0V16.468c0,.1.6,4.965-2.125,8.045a7.555,7.555,0,0,1-5.944,2.4Z" transform="translate(-5.168 -1.25)" fill="#d9d9d9"/>
</svg>
