<svg xmlns="http://www.w3.org/2000/svg" xmlns:xlink="http://www.w3.org/1999/xlink" width="256.066" height="256.066" viewBox="0 0 256.066 256.066">
  <defs>
    <filter id="Ellipse_1154" x="58.333" y="57.663" width="140.401" height="140.401" filterUnits="userSpaceOnUse">
      <feOffset input="SourceAlpha"/>
      <feGaussianBlur stdDeviation="10" result="blur"/>
      <feFlood flood-color="#62b965" flood-opacity="0.09"/>
      <feComposite operator="in" in2="blur"/>
      <feComposite in="SourceGraphic"/>
    </filter>
  </defs>
  <g id="Group_49710" data-name="Group 49710" transform="translate(-59.905 -116.907)">
    <g id="_Clip_Group_" data-name="&lt;Clip Group&gt;" transform="translate(17.094 74.095)">
      <path id="_Compound_Path_" data-name="&lt;Compound Path&gt;" d="M492.666,365.093A128.033,128.033,0,1,1,364.633,237.06,127.961,127.961,0,0,1,492.666,365.093ZM274.4,274.858a127.686,127.686,0,1,0,90.235-37.346A126.761,126.761,0,0,0,274.4,274.858Z" transform="translate(-193.788 -194.248)" fill="#62b965" fillRule="evenodd" opacity="0.15"/>
      <path id="_Compound_Path_2" data-name="&lt;Compound Path&gt;" d="M618.432,526.536a92.356,92.356,0,1,1-92.356-92.356A92.3,92.3,0,0,1,618.432,526.536Zm-157.357-65a91.978,91.978,0,1,0,65-26.9A91.315,91.315,0,0,0,461.075,461.535Z" transform="translate(-355.231 -355.691)" fill="#62b965" fillRule="evenodd" opacity="0.4"/>
      <path id="_Compound_Path_3" data-name="&lt;Compound Path&gt;" d="M723.233,661.067a62.627,62.627,0,1,1-62.627-62.627A62.59,62.59,0,0,1,723.233,661.067Zm-124.8,0a62.174,62.174,0,1,0,62.174-62.174A62.244,62.244,0,0,0,598.432,661.067Z" transform="translate(-489.762 -490.222)" fill="#62b965" fillRule="evenodd"/>
    </g>
    <g id="_Group_" data-name="&lt;Group&gt;" transform="translate(91.073 94.305)">
      <g id="Group_38724" data-name="Group 38724" transform="translate(-58.835 -22.233)">
        <g transform="matrix(1, 0, 0, 1, 27.67, 44.84)" filter="url(#Ellipse_1154)">
          <circle id="Ellipse_1154-2" data-name="Ellipse 1154" cx="40.2" cy="40.2" r="40.2" transform="translate(88.33 87.66)" fill="#62b965"/>
        </g>
        <path id="Path_9369" data-name="Path 9369" d="M45.358,15,24.83,38.094,12,27.83" transform="translate(127.522 146.151)" fill="none" stroke="#fff" stroke-linecap="round" stroke-linejoin="round" stroke-miterlimit="10" strokeWidth="6"/>
      </g>
    </g>
  </g>
</svg>
