<svg xmlns="http://www.w3.org/2000/svg" width="18.754" height="20.207" viewBox="0 0 18.754 20.207">
  <path id="add-user_5_" data-name="add-user (5)" d="M30.328,20.207a.809.809,0,0,1-.828-.789,7.373,7.373,0,0,1,7.535-7.183h1.242a7.853,7.853,0,0,1,2.481.4.781.781,0,0,1,.509,1.005.839.839,0,0,1-1.054.485,6.129,6.129,0,0,0-1.936-.311H37.035a5.753,5.753,0,0,0-5.879,5.6A.809.809,0,0,1,30.328,20.207ZM43.162,5.328a5.6,5.6,0,0,0-11.178,0,5.6,5.6,0,0,0,11.178,0Zm-1.656,0a3.937,3.937,0,0,1-7.866,0,3.937,3.937,0,0,1,7.866,0Zm5.92,10.143H44.942V13.1a.829.829,0,0,0-1.656,0v2.368H40.8a.79.79,0,1,0,0,1.579h2.484v2.368a.829.829,0,0,0,1.656,0V17.049h2.484a.79.79,0,1,0,0-1.579Z" transform="translate(-29.5)" fill="#fff"/>
</svg>
