<svg xmlns="http://www.w3.org/2000/svg" width="25.321" height="19.301" viewBox="0 0 25.321 19.301">
  <path id="discord-svgrepo-com" d="M21.435,4.453a20.88,20.88,0,0,0-5.154-1.6.078.078,0,0,0-.083.039c-.222.4-.468.912-.641,1.319a19.275,19.275,0,0,0-5.789,0,13.336,13.336,0,0,0-.651-1.319.081.081,0,0,0-.083-.039,20.822,20.822,0,0,0-5.154,1.6.074.074,0,0,0-.034.028A21.363,21.363,0,0,0,.1,18.893a.087.087,0,0,0,.033.06,21,21,0,0,0,6.323,3.2.082.082,0,0,0,.089-.03,14.865,14.865,0,0,0,1.293-2.1.08.08,0,0,0-.043-.112,13.828,13.828,0,0,1-1.975-.941.081.081,0,0,1-.008-.135q.2-.149.392-.308a.078.078,0,0,1,.081-.011,14.977,14.977,0,0,0,12.726,0,.078.078,0,0,1,.082.011c.127.1.26.209.394.308a.081.081,0,0,1-.006.134,12.976,12.976,0,0,1-1.976.941.081.081,0,0,0-.043.113,16.858,16.858,0,0,0,1.292,2.1.08.08,0,0,0,.089.03,20.93,20.93,0,0,0,6.332-3.2.081.081,0,0,0,.034-.057A21.226,21.226,0,0,0,21.467,4.484a.064.064,0,0,0-.033-.032ZM8.461,16.016a2.433,2.433,0,0,1-2.276-2.552,2.421,2.421,0,0,1,2.276-2.552,2.408,2.408,0,0,1,2.276,2.553,2.42,2.42,0,0,1-2.276,2.551Zm8.414,0A2.433,2.433,0,0,1,14.6,13.464a2.42,2.42,0,0,1,2.276-2.552,2.408,2.408,0,0,1,2.276,2.553,2.413,2.413,0,0,1-2.276,2.551Z" transform="translate(0 -2.854)" fill="#f35a89"/>
</svg>
