<svg id="XMLID_834_" xmlns="http://www.w3.org/2000/svg" width="12.43" height="24.607" viewBox="0 0 12.43 24.607">
  <path id="XMLID_835_" d="M77.1,13.105h2.7v11.1a.4.4,0,0,0,.4.4h4.573a.4.4,0,0,0,.4-.4V13.158h3.1a.4.4,0,0,0,.394-.352l.471-4.088a.4.4,0,0,0-.394-.442H85.164V5.713c0-.772.416-1.164,1.236-1.164h2.335a.4.4,0,0,0,.4-.4V.4a.4.4,0,0,0-.4-.4H85.518c-.023,0-.073,0-.147,0a6.167,6.167,0,0,0-4.033,1.52,4.229,4.229,0,0,0-1.406,3.759v3H77.1a.4.4,0,0,0-.4.4v4.036A.4.4,0,0,0,77.1,13.105Z" transform="translate(-76.703)" fill="#f35a89"/>
</svg>
