<svg xmlns="http://www.w3.org/2000/svg" width="28.668" height="23.576" viewBox="0 0 28.668 23.576">
  <path id="fansly" d="M7.177.3a7.374,7.374,0,0,1,.994.061c.16.028.421.083.581.124s.435.123.612.183a8.152,8.152,0,0,1,1.559.774c.177.118.452.324.612.458s.713.669,2.17,2.129V4.3L11.487,6.519h-.274l-1.009-1A14.175,14.175,0,0,0,8.981,4.372a4.707,4.707,0,0,0-.474-.263,3.963,3.963,0,0,0-.55-.2,4.118,4.118,0,0,0-.6-.1,4.355,4.355,0,0,0-.6,0,4.148,4.148,0,0,0-.55.09,4.236,4.236,0,0,0-.52.177,4.36,4.36,0,0,0-.535.29,3.569,3.569,0,0,0-.981.981,4.335,4.335,0,0,0-.291.535A4.213,4.213,0,0,0,3.71,6.4a4.142,4.142,0,0,0-.09.55,4.35,4.35,0,0,0,0,.6,4.057,4.057,0,0,0,.1.6,3.941,3.941,0,0,0,.2.55,4.739,4.739,0,0,0,.263.474c.1.15.546.621,2.867,2.949L12.1,7.074c2.775-2.77,5.162-5.129,5.3-5.242s.391-.293.55-.4.421-.263.581-.347.442-.215.627-.291.5-.185.7-.243.546-.138.764-.177A5.42,5.42,0,0,1,21.806.3a5.424,5.424,0,0,1,1.177.071c.219.039.562.119.764.177s.518.168.7.243.467.208.627.293.407.232.55.326.391.275.55.4a8.382,8.382,0,0,1,.628.581c.186.191.421.458.523.593s.257.355.346.489.262.451.385.7a8.066,8.066,0,0,1,.346.825c.067.2.156.525.2.718s.092.468.109.611.041.432.051.642a7.062,7.062,0,0,1-.017.81c-.02.235-.064.572-.1.749s-.1.445-.138.6-.126.405-.186.565-.168.414-.24.565-.21.405-.306.565-.267.414-.379.565-.336.419-.5.6-.648.675-1.873,1.894h-.306L23.66,12.82c-.607-.6-1.084-1.1-1.108-1.161a.342.342,0,0,1-.023-.183,9.771,9.771,0,0,1,.987-1.062,14.6,14.6,0,0,0,1.123-1.207,4.881,4.881,0,0,0,.263-.443,3.85,3.85,0,0,0,.187-.466,4.752,4.752,0,0,0,.126-.519,3.684,3.684,0,0,0,.046-.519,4.26,4.26,0,0,0-.034-.489,4.3,4.3,0,0,0-.109-.5,4.153,4.153,0,0,0-.182-.489,4.353,4.353,0,0,0-.269-.474,3.838,3.838,0,0,0-.373-.459,4.519,4.519,0,0,0-.424-.376,4.16,4.16,0,0,0-.5-.309,4.008,4.008,0,0,0-.55-.226c-.143-.043-.349-.093-.458-.112a4.2,4.2,0,0,0-.566-.033,4.124,4.124,0,0,0-.612.048,4.436,4.436,0,0,0-.474.124,3.9,3.9,0,0,0-.428.176c-.109.055-.3.167-.428.25-.17.111-.582.5-2.936,2.843l3.624,3.621c3.323,3.32,3.624,3.629,3.624,3.72a.472.472,0,0,1-.044.183c-.024.046-2.023,2.058-4.441,4.471-3.321,3.313-4.434,4.406-4.55,4.467a1.911,1.911,0,0,1-.336.128,1.737,1.737,0,0,1-.367.047,1.768,1.768,0,0,1-.321-.033,1.927,1.927,0,0,1-.306-.11c-.147-.068-.919-.827-6-5.9-3.209-3.2-5.945-5.955-6.08-6.115s-.332-.421-.438-.58-.253-.4-.327-.535-.187-.361-.252-.5S.532,9.7.475,9.528.337,9.092.3,8.933s-.1-.421-.123-.58A8.175,8.175,0,0,1,.108,7.42,5.952,5.952,0,0,1,.143,6.4c.028-.21.086-.54.129-.733s.133-.509.2-.7.2-.523.3-.733.247-.485.324-.611.259-.387.4-.58a7.987,7.987,0,0,1,.629-.719,7.983,7.983,0,0,1,.719-.629c.193-.144.455-.325.581-.4s.4-.223.612-.324.54-.238.734-.3.51-.156.7-.2.5-.1.673-.124A6.706,6.706,0,0,1,7.176.3Zm6.115,11.049a5.013,5.013,0,0,0-.474.216,4.044,4.044,0,0,0-.563.371,4.107,4.107,0,0,0-.5.5,3.479,3.479,0,0,0-.408.642,3.778,3.778,0,0,0-.263.672,2.986,2.986,0,0,0-.095.749,3.013,3.013,0,0,0,.034.7,4.615,4.615,0,0,0,.113.458,4.65,4.65,0,0,0,.2.474,3.84,3.84,0,0,0,.314.519,4.341,4.341,0,0,0,.416.466,4.08,4.08,0,0,0,.471.376,4.35,4.35,0,0,0,.42.242c.1.048.27.115.375.151s.291.085.413.111a4.257,4.257,0,0,0,.527.065,3.431,3.431,0,0,0,.581-.02,4.458,4.458,0,0,0,.535-.113,4.245,4.245,0,0,0,.5-.19,4.294,4.294,0,0,0,.489-.28,3.713,3.713,0,0,0,.9-.9,4.211,4.211,0,0,0,.281-.489,4.261,4.261,0,0,0,.189-.5A4.427,4.427,0,0,0,17.865,15a3.516,3.516,0,0,0,.02-.58,4.192,4.192,0,0,0-.064-.489c-.025-.118-.075-.3-.111-.413a4.361,4.361,0,0,0-.215-.489,4.173,4.173,0,0,0-.3-.489,4.1,4.1,0,0,0-.375-.413,4.253,4.253,0,0,0-.455-.37,4.467,4.467,0,0,0-.382-.232,4.61,4.61,0,0,0-.428-.174,3.989,3.989,0,0,0-.535-.141,4.414,4.414,0,0,0-.627-.042,3.422,3.422,0,0,0-.642.06,4.327,4.327,0,0,0-.458.123ZM14.5,12.4a2.748,2.748,0,0,1,.421.053c.124.031.157.051.141.086s-.038.094-.061.153a.828.828,0,0,0-.042.237.978.978,0,0,0,.059.29,1.14,1.14,0,0,0,.148.267,1.057,1.057,0,0,0,.253.2.623.623,0,0,0,.394.092c.2,0,.25-.012.581-.2l.064.145a3.115,3.115,0,0,1,.126.39,1.7,1.7,0,0,1,.046.611,2.009,2.009,0,0,1-.083.565,3.03,3.03,0,0,1-.156.367,2.72,2.72,0,0,1-.236.351,2.093,2.093,0,0,1-.756.6,2.864,2.864,0,0,1-.458.169,2.029,2.029,0,0,1-.6.038,1.81,1.81,0,0,1-.627-.1,2.721,2.721,0,0,1-.458-.215,2.741,2.741,0,0,1-.443-.373,1.9,1.9,0,0,1-.357-.5,2.848,2.848,0,0,1-.178-.457,2.932,2.932,0,0,1-.065-.443,2.221,2.221,0,0,1,.029-.489,2.706,2.706,0,0,1,.125-.443,3.242,3.242,0,0,1,.18-.366,2.553,2.553,0,0,1,.7-.7,3.31,3.31,0,0,1,.366-.18,2.612,2.612,0,0,1,.413-.122A2.352,2.352,0,0,1,14.5,12.4Z" transform="translate(-0.103 -0.297)" fill="#fff"/>
</svg>
