<svg id="XMLID_13_" xmlns="http://www.w3.org/2000/svg" width="23.577" height="23.576" viewBox="0 0 23.577 23.576">
  <path id="XMLID_17_" d="M16.553,0H7.024A7.032,7.032,0,0,0,0,7.024v9.53a7.032,7.032,0,0,0,7.024,7.024h9.53a7.032,7.032,0,0,0,7.024-7.024V7.024A7.032,7.032,0,0,0,16.553,0Zm4.652,16.553a4.652,4.652,0,0,1-4.652,4.652H7.024a4.652,4.652,0,0,1-4.652-4.652V7.024A4.652,4.652,0,0,1,7.024,2.372h9.53a4.652,4.652,0,0,1,4.652,4.652v9.53Z" transform="translate(0 0)" fill="#fff"/>
  <path id="XMLID_81_" d="M139.1,133a6.1,6.1,0,1,0,6.1,6.1A6.1,6.1,0,0,0,139.1,133Zm0,9.824a3.726,3.726,0,1,1,3.726-3.726A3.726,3.726,0,0,1,139.1,142.824Z" transform="translate(-127.309 -127.309)" fill="#fff"/>
  <ellipse id="XMLID_83_" cx="1.461" cy="1.461" rx="1.461" ry="1.461" transform="translate(16.437 4.275)" fill="#fff"/>
</svg>
