<svg xmlns="http://www.w3.org/2000/svg" width="25.243" height="23.576" viewBox="0 0 25.243 23.576">
  <path id="snapchat-svgrepo-com_1_" data-name="snapchat-svgrepo-com (1)" d="M12.838.793a6.721,6.721,0,0,1,6.237,4.019c.556,1.255.424,3.386.314,5.1l0,.063c-.013.189-.023.363-.032.536a.817.817,0,0,0,.422.095,2.955,2.955,0,0,0,1.086-.317,1.048,1.048,0,0,1,.488-.109,1.439,1.439,0,0,1,.535.095,1,1,0,0,1,.772.881q.024.708-1.276,1.228c-.094.031-.22.079-.362.125-.473.142-1.2.379-1.4.852a1.1,1.1,0,0,0,.126.913l.016.016c.063.143,1.605,3.655,5.039,4.222a.525.525,0,0,1,.442.535.637.637,0,0,1-.047.237c-.252.6-1.339,1.039-3.309,1.337a2.824,2.824,0,0,0-.172.6,4.232,4.232,0,0,1-.141.582.551.551,0,0,1-.584.426h-.032a3.356,3.356,0,0,1-.566-.078,6.346,6.346,0,0,0-1.339-.142,5.111,5.111,0,0,0-.96.078,4.718,4.718,0,0,0-1.812.93,5.734,5.734,0,0,1-3.465,1.355c-.063,0-.125-.016-.189-.016h-.157A5.6,5.6,0,0,1,9.02,23a4.665,4.665,0,0,0-1.8-.93,6.966,6.966,0,0,0-.976-.078,6.6,6.6,0,0,0-1.338.157,3.028,3.028,0,0,1-.568.078.587.587,0,0,1-.613-.442c-.064-.2-.095-.409-.142-.6a2.791,2.791,0,0,0-.175-.6C1.4,20.354.31,19.912.059,19.3A.632.632,0,0,1,0,19.062a.522.522,0,0,1,.442-.535c3.433-.568,4.975-4.08,5.039-4.228l.017-.031a1.05,1.05,0,0,0,.125-.914c-.205-.456-.93-.692-1.4-.851a2.349,2.349,0,0,1-.364-.125C2.695,11.92,2.537,11.4,2.6,11.039A1.243,1.243,0,0,1,3.829,10.2a1.065,1.065,0,0,1,.4.078,2.877,2.877,0,0,0,1.161.316.994.994,0,0,0,.489-.11l-.048-.6c-.1-1.71-.237-3.84.323-5.087A6.614,6.614,0,0,1,12.334.808l.441-.016h.063Z" transform="translate(0 -0.793)" fill="#fff"/>
</svg>
