<svg id="XMLID_826_" xmlns="http://www.w3.org/2000/svg" width="25.856" height="21.168" viewBox="0 0 25.856 21.168">
  <path id="XMLID_827_" d="M25.268,30.54A9.8,9.8,0,0,1,24.018,31a5.528,5.528,0,0,0,1.125-1.979.417.417,0,0,0-.61-.486,9.842,9.842,0,0,1-2.909,1.15,5.553,5.553,0,0,0-9.436,3.967,5.662,5.662,0,0,0,.045.717A14.21,14.21,0,0,1,2.48,29.19a.417.417,0,0,0-.684.054,5.559,5.559,0,0,0,.569,6.389,4.7,4.7,0,0,1-.743-.332A.417.417,0,0,0,1,35.656c0,.025,0,.049,0,.074A5.57,5.57,0,0,0,3.72,40.5c-.141-.014-.282-.035-.422-.061a.417.417,0,0,0-.475.537A5.549,5.549,0,0,0,6.888,44.7a9.82,9.82,0,0,1-5.249,1.5,10.041,10.041,0,0,1-1.176-.069.417.417,0,0,0-.274.765,14.969,14.969,0,0,0,8.094,2.373,14.4,14.4,0,0,0,11.157-4.9,15.532,15.532,0,0,0,3.866-10.123c0-.152,0-.306-.007-.459a10.79,10.79,0,0,0,2.483-2.63.417.417,0,0,0-.516-.613Z" transform="translate(0.002 -28.097)" fill="#fff"/>
</svg>
