<svg id="upload_3_" data-name="upload (3)" xmlns="http://www.w3.org/2000/svg" width="23.907" height="22.156" viewBox="0 0 23.907 22.156">
  <g id="Group_39004" data-name="Group 39004">
    <path id="Path_34071" data-name="Path 34071" d="M23.222,228.252a.682.682,0,0,0-.685.685v6.23a3.074,3.074,0,0,1-3.07,3.07H4.439a3.074,3.074,0,0,1-3.07-3.07v-6.332a.685.685,0,1,0-1.37,0v6.332a4.444,4.444,0,0,0,4.439,4.439H19.468a4.444,4.444,0,0,0,4.439-4.439v-6.23A.685.685,0,0,0,23.222,228.252Z" transform="translate(0 -217.45)" fill="#bb14e2"/>
    <path id="Path_34072" data-name="Path 34072" d="M137.491,22.775l3.186-3.186v13.9a.685.685,0,1,0,1.37,0v-13.9l3.186,3.186a.689.689,0,0,0,.482.2.66.66,0,0,0,.482-.2.683.683,0,0,0,0-.969l-4.353-4.353a.693.693,0,0,0-.482-.2.663.663,0,0,0-.482.2l-4.353,4.353a.683.683,0,1,0,.964.969Z" transform="translate(-129.408 -17.25)" fill="#bb14e2"/>
  </g>
</svg>
