<svg id="Group_49139" data-name="Group 49139" xmlns="http://www.w3.org/2000/svg" width="20.051" height="17.592" viewBox="0 0 20.051 17.592">
  <ellipse id="Ellipse_1237" data-name="Ellipse 1237" cx="1.378" cy="1.365" rx="1.378" ry="1.365" transform="translate(6.18 4.341)" fill="#fff"/>
  <path id="Path_24836" data-name="Path 24836" d="M18.865,34.73a4.259,4.259,0,0,0-2.372-1.118V26.673a2.716,2.716,0,0,0-.784-1.9A2.686,2.686,0,0,0,13.794,24H2.7a2.768,2.768,0,0,0-1.913.777A2.636,2.636,0,0,0,0,26.673V37.99a2.716,2.716,0,0,0,.784,1.9,2.686,2.686,0,0,0,1.913.777H13.431a4.05,4.05,0,0,0,5.434-.246,4,4,0,0,0,0-5.687ZM1.014,26.673a1.58,1.58,0,0,1,.5-1.156A1.686,1.686,0,0,1,2.7,25.024h11.1a1.686,1.686,0,0,1,1.186.493,1.656,1.656,0,0,1,.5,1.175v5.915L12.647,29.8a.517.517,0,0,0-.727,0L7.653,34.047,4.764,31.166a.517.517,0,0,0-.727,0L1.014,34.2ZM2.679,39.7v-.038a1.686,1.686,0,0,1-1.186-.493,1.722,1.722,0,0,1-.478-1.175V35.639L4.4,32.265l2.889,2.862a.536.536,0,0,0,.727,0l4.267-4.246,2.793,2.787-.172.057a1.789,1.789,0,0,0-.249.076c-.077.019-.153.057-.23.076a.575.575,0,0,0-.153.076,1.785,1.785,0,0,0-.191.095l-.287.171c-.057.038-.1.057-.153.095-.038.019-.057.038-.1.057a2.3,2.3,0,0,0-.459.4A3.992,3.992,0,0,0,11.9,37.611a4.131,4.131,0,0,0,.1.834c.019.076.038.133.057.209.057.19.115.379.191.569v.019a3.467,3.467,0,0,0,.249.455Zm15.44,0a3.047,3.047,0,0,1-4.228.038c-.077-.076-.153-.171-.23-.246-.057-.057-.115-.133-.172-.19a1.8,1.8,0,0,1-.191-.322c-.038-.076-.077-.133-.115-.209a1.59,1.59,0,0,1-.1-.322c-.019-.076-.057-.171-.077-.246a3.11,3.11,0,0,1-.057-.607,3.029,3.029,0,0,1,.88-2.123,2.972,2.972,0,0,1,2.143-.872,3.086,3.086,0,0,1,2.143.872A2.949,2.949,0,0,1,19,37.592,3.018,3.018,0,0,1,18.118,39.7Z" transform="translate(0 -24)" fill="#fff"/>
  <path id="Path_24837" data-name="Path 24837" d="M300.191,264.517a.516.516,0,0,0-.133-.088.435.435,0,0,0-.133-.029h-.03a.434.434,0,0,0-.133.029.35.35,0,0,0-.133.088l-.917.909a.405.405,0,0,0,0,.557.414.414,0,0,0,.562,0l.237-.235v1.613a.4.4,0,0,0,.8,0v-1.613l.237.235a.414.414,0,0,0,.562,0,.4.4,0,0,0,0-.557Z" transform="translate(-283.934 -252.515)" fill="#fff"/>
</svg>
