<svg xmlns="http://www.w3.org/2000/svg" width="30.218" height="21.889" viewBox="0 0 30.218 21.889">
  <g id="youtube-svgrepo-com" transform="translate(0.75 0.75)">
    <path id="Path_37092" data-name="Path 37092" d="M15.526,12.872,10.5,15.744V10Z" transform="translate(1.705 -2.677)" fill="#fff" stroke="#fff" stroke-linecap="round" stroke-linejoin="round" strokeWidth="1.5"/>
    <path id="Path_37093" data-name="Path 37093" d="M2,16.111V14.079C2,9.921,2,7.843,3.3,6.505s3.347-1.4,7.441-1.511c1.94-.055,3.922-.094,5.618-.094s3.678.039,5.618.094c4.094.116,6.141.174,7.441,1.511s1.3,3.416,1.3,7.574v2.032c0,4.157,0,6.236-1.3,7.573s-3.347,1.4-7.441,1.511c-1.94.055-3.922.094-5.618.094s-3.678-.039-5.618-.094C6.647,25.08,4.6,25.022,3.3,23.684S2,20.268,2,16.111Z" transform="translate(-2 -4.9)" fill="none" stroke="#fff" strokeWidth="1.5"/>
  </g>
</svg>
